{"glyphs":{"0":{"ha":833,"x_min":74,"x_max":758,"o":"m 417 0 q 229 60 307 0 q 113 224 151 119 q 74 460 74 328 q 113 695 74 592 q 230 858 153 799 q 417 918 307 918 q 603 858 526 918 q 719 695 681 799 q 758 460 758 592 q 719 224 758 328 q 603 60 681 119 q 417 0 526 0 m 193 460 q 253 195 193 293 q 417 97 314 97 q 579 195 519 97 q 639 460 639 293 q 578 723 639 625 q 417 821 518 821 q 253 723 314 821 q 193 460 193 625 z "},"1":{"ha":639,"x_min":54,"x_max":399,"o":"m 282 775 q 272 792 282 792 q 257 786 267 792 l 107 697 l 54 790 l 253 900 q 308 914 276 914 q 372 892 346 914 q 399 831 399 871 l 399 8 l 282 8 l 282 775 z "},"2":{"ha":750,"x_min":78,"x_max":669,"o":"m 78 108 q 229 258 119 154 q 383 408 324 346 q 483 535 442 469 q 524 658 524 601 q 471 780 524 739 q 346 821 418 821 q 247 787 289 821 q 179 700 204 753 l 89 753 q 191 872 125 825 q 353 918 257 918 q 501 886 436 918 q 603 795 567 854 q 640 658 640 736 q 600 510 640 582 q 497 371 560 438 q 319 200 433 304 q 244 129 285 165 q 236 117 236 121 q 247 111 236 111 l 669 111 l 669 14 l 78 14 l 78 108 z "},"3":{"ha":756,"x_min":53,"x_max":697,"o":"m 375 0 q 53 156 161 0 l 143 221 q 241 129 182 161 q 378 97 300 97 q 519 136 460 97 q 578 265 578 175 q 528 376 578 333 q 375 418 479 418 l 217 418 l 217 514 l 346 514 q 488 556 440 514 q 535 664 535 597 q 484 781 535 742 q 354 821 433 821 q 168 700 222 821 l 78 753 q 183 872 114 826 q 357 918 251 918 q 513 888 446 918 q 617 802 581 857 q 654 675 654 747 q 624 555 654 603 q 540 488 593 507 q 528 478 528 483 q 542 471 528 472 q 653 401 608 458 q 697 253 697 344 q 611 67 697 133 q 375 0 525 0 z "},"4":{"ha":833,"x_min":78,"x_max":778,"o":"m 522 208 q 508 222 522 222 l 78 222 l 78 317 l 483 907 l 639 907 l 639 333 q 653 319 639 319 l 778 319 l 778 222 l 653 222 q 639 208 639 222 l 639 11 l 522 11 l 522 208 m 231 338 q 224 324 224 328 q 233 319 224 319 l 508 319 q 522 333 522 319 l 522 749 q 517 760 522 758 q 506 754 511 763 l 231 338 z "},"5":{"ha":729,"x_min":53,"x_max":657,"o":"m 347 0 q 170 38 243 0 q 53 138 97 75 l 142 210 q 221 128 169 160 q 342 97 272 97 q 442 123 396 97 q 514 195 488 149 q 540 301 540 242 q 486 449 540 392 q 349 506 432 506 q 242 478 286 506 q 176 413 197 450 l 75 431 l 125 904 l 611 904 l 611 807 l 260 807 q 238 799 244 807 q 229 776 232 792 l 201 549 q 376 603 269 603 q 525 561 461 603 q 623 451 589 519 q 657 301 657 382 q 620 152 657 221 q 513 42 583 83 q 347 0 442 0 z "},"6":{"ha":764,"x_min":72,"x_max":690,"o":"m 401 0 q 250 38 311 0 q 143 147 189 76 q 90 288 108 206 q 72 460 72 371 q 160 791 72 664 q 415 918 247 918 q 547 892 488 918 q 658 808 607 867 l 581 728 q 415 821 514 821 q 254 733 313 821 q 189 478 196 644 q 190 469 189 471 q 192 471 190 468 q 194 476 193 474 q 286 569 226 535 q 415 603 346 603 q 563 561 500 603 q 658 451 625 519 q 690 301 690 382 q 656 152 690 221 q 556 42 621 83 q 401 0 490 0 m 217 301 q 241 196 217 243 q 306 123 265 149 q 396 97 347 97 q 484 124 443 97 q 549 197 525 150 q 574 301 574 243 q 549 408 574 361 q 485 480 525 454 q 396 506 444 506 q 306 480 347 506 q 241 408 265 454 q 217 301 217 361 z "},"7":{"ha":694,"x_min":63,"x_max":632,"o":"m 256 11 q 507 789 256 271 q 510 800 510 793 q 499 807 510 807 l 63 807 l 63 904 l 632 904 l 632 810 q 430 339 488 531 q 372 11 372 147 l 256 11 z "},"8":{"ha":790,"x_min":69,"x_max":721,"o":"m 393 0 q 160 67 250 0 q 69 253 69 135 q 112 386 69 331 q 214 467 154 442 q 222 471 217 468 q 228 475 228 474 q 215 483 228 478 q 133 556 164 506 q 101 675 101 606 q 138 799 101 744 q 240 886 175 854 q 388 918 306 918 l 403 918 q 551 886 486 918 q 652 799 615 854 q 689 675 689 744 q 658 556 689 606 q 575 483 626 506 q 563 475 563 478 q 568 471 563 474 q 576 467 574 468 q 678 386 636 442 q 721 253 721 331 q 631 67 721 135 q 397 0 540 0 l 393 0 m 189 265 q 252 137 189 176 q 390 97 315 97 l 400 97 q 538 137 475 97 q 601 265 601 176 q 577 338 601 301 q 508 397 553 374 q 407 419 464 419 l 383 419 q 276 397 319 419 q 210 338 232 374 q 189 265 189 303 m 221 664 q 265 556 221 599 q 396 514 310 514 q 525 556 481 514 q 569 664 569 599 q 520 781 569 740 q 396 821 471 821 q 270 781 319 821 q 221 664 221 740 z "},"9":{"ha":764,"x_min":74,"x_max":692,"o":"m 349 0 q 217 26 276 0 q 106 110 157 51 l 183 190 q 349 97 250 97 q 510 185 451 97 q 575 440 568 274 q 574 449 575 447 q 572 447 574 450 q 569 442 571 444 q 478 349 538 383 q 349 315 418 315 q 201 357 264 315 q 106 467 139 399 q 74 617 74 536 q 108 766 74 697 q 208 876 143 835 q 363 918 274 918 q 514 880 453 918 q 621 771 575 842 q 674 630 656 713 q 692 458 692 547 q 604 127 692 254 q 349 0 517 0 m 190 617 q 215 510 190 557 q 279 438 239 464 q 368 413 319 413 q 458 438 417 413 q 523 510 499 464 q 547 617 547 557 q 523 722 547 675 q 458 795 499 769 q 368 821 417 821 q 280 794 321 821 q 215 722 239 768 q 190 617 190 675 z "}," ":{"ha":294,"x_min":0,"x_max":0,"o":""}," ":{"ha":294,"x_min":0,"x_max":0,"o":""},"A":{"ha":833,"x_min":46,"x_max":788,"o":"m 46 31 l 357 904 l 476 904 l 788 31 l 678 1 l 589 263 q 565 279 583 279 l 269 279 q 246 263 251 279 l 157 1 l 46 31 m 293 397 q 292 389 292 394 q 310 374 292 374 l 525 374 q 540 380 536 374 q 542 397 544 386 l 426 738 q 418 749 422 749 q 408 738 413 749 l 293 397 z "},"Æ":{"ha":1221,"x_min":46,"x_max":1156,"o":"m 46 38 l 519 904 l 1138 904 l 1138 807 l 760 807 q 729 776 729 807 l 729 549 q 760 518 729 518 l 1118 518 l 1118 424 l 760 424 q 729 393 729 424 l 729 157 q 741 123 729 135 q 775 111 753 111 l 1156 111 l 1156 14 l 726 14 q 638 42 667 14 q 610 129 610 69 l 610 279 l 328 279 q 308 276 314 279 q 296 263 301 272 l 154 1 l 46 38 m 369 397 q 363 381 363 383 q 369 375 363 376 q 386 374 375 374 l 610 374 l 610 772 q 606 790 610 783 q 597 796 603 796 q 578 779 586 796 l 369 397 z "},"B":{"ha":819,"x_min":104,"x_max":761,"o":"m 206 14 q 133 42 161 14 q 104 115 104 69 l 104 904 l 428 904 q 644 841 569 904 q 718 675 718 778 q 604 488 718 525 q 592 478 592 483 q 606 471 592 472 q 717 401 672 458 q 761 253 761 344 q 690 79 761 144 q 465 14 618 14 l 206 14 m 224 133 q 229 118 224 124 q 244 113 235 113 l 439 113 q 594 153 546 113 q 642 265 642 194 q 593 376 642 333 q 444 418 544 418 l 244 418 q 229 413 235 418 q 224 397 224 407 l 224 133 m 224 535 q 229 519 224 525 q 244 514 235 514 l 415 514 q 552 556 506 514 q 599 664 599 597 q 554 766 599 726 q 418 806 510 806 l 244 806 q 229 800 235 806 q 224 785 224 794 l 224 535 z "},"C":{"ha":833,"x_min":72,"x_max":790,"o":"m 471 0 q 257 60 347 0 q 119 224 167 119 q 72 460 72 329 q 119 694 72 590 q 257 858 167 799 q 471 918 347 918 q 623 890 556 918 q 749 803 690 863 l 671 722 q 471 821 592 821 q 326 776 389 821 q 227 650 263 732 q 192 460 192 568 q 227 268 192 350 q 326 142 263 186 q 471 97 389 97 q 603 129 544 97 q 700 221 663 161 l 790 156 q 658 40 738 81 q 471 0 578 0 z "},"D":{"ha":871,"x_min":104,"x_max":799,"o":"m 221 14 q 133 42 161 14 q 104 129 104 69 l 104 904 l 360 904 q 594 847 494 904 q 746 690 693 790 q 799 460 799 589 q 746 228 799 329 q 594 71 693 128 q 360 14 494 14 l 221 14 m 224 157 q 235 123 224 135 q 269 111 247 111 l 360 111 q 525 152 453 111 q 638 272 597 193 q 679 460 679 351 q 638 647 679 568 q 525 766 597 725 q 360 807 453 807 l 254 807 q 224 776 224 807 l 224 157 z "},"Ð":{"ha":899,"x_min":-14,"x_max":826,"o":"m 249 14 q 160 42 189 14 q 132 129 132 69 l 132 422 l -14 422 l -14 519 l 132 519 l 132 904 l 388 904 q 622 847 522 904 q 774 690 721 790 q 826 460 826 589 q 774 228 826 329 q 622 71 721 128 q 388 14 522 14 l 249 14 m 251 157 q 263 123 251 135 q 297 111 275 111 l 388 111 q 553 152 481 111 q 666 272 625 193 q 707 460 707 351 q 666 647 707 568 q 553 766 625 725 q 388 807 481 807 l 282 807 q 251 776 251 807 l 251 519 l 403 519 l 403 422 l 251 422 l 251 157 z "},"E":{"ha":743,"x_min":104,"x_max":678,"o":"m 221 14 q 133 42 161 14 q 104 129 104 69 l 104 904 l 660 904 l 660 807 l 254 807 q 224 776 224 807 l 224 549 q 254 518 224 518 l 640 518 l 640 424 l 254 424 q 224 393 224 424 l 224 157 q 235 123 224 135 q 269 111 247 111 l 678 111 l 678 14 l 221 14 z "},"F":{"ha":736,"x_min":104,"x_max":658,"o":"m 104 904 l 658 904 l 658 807 l 254 807 q 224 776 224 807 l 224 535 q 254 504 224 504 l 640 504 l 640 410 l 254 410 q 224 379 224 410 l 224 11 l 104 11 l 104 904 z "},"G":{"ha":875,"x_min":72,"x_max":792,"o":"m 465 0 q 253 60 342 0 q 118 224 164 119 q 72 460 72 328 q 119 694 72 590 q 257 858 167 799 q 471 918 347 918 q 635 891 565 918 q 763 803 704 864 l 685 722 q 590 798 642 775 q 471 821 539 821 q 326 776 389 821 q 227 650 263 732 q 192 460 192 568 q 226 268 192 350 q 322 142 260 186 q 465 97 383 97 q 577 117 524 97 q 668 176 631 138 q 678 203 678 186 l 678 378 q 673 405 678 400 q 646 410 668 410 l 458 410 l 458 504 l 689 504 q 770 483 749 504 q 792 403 792 463 l 792 206 q 764 122 792 151 q 465 0 650 0 z "},"H":{"ha":861,"x_min":104,"x_max":757,"o":"m 104 907 l 224 907 l 224 549 q 254 518 224 518 l 607 518 q 638 549 638 518 l 638 907 l 757 907 l 757 11 l 638 11 l 638 393 q 607 424 638 424 l 254 424 q 224 393 224 424 l 224 11 l 104 11 l 104 907 z "},"Ħ":{"ha":911,"x_min":-3,"x_max":914,"o":"m 129 672 l -3 672 l -3 769 l 129 769 l 129 907 l 249 907 l 249 769 l 663 769 l 663 907 l 782 907 l 782 769 l 914 769 l 914 672 l 782 672 l 782 11 l 663 11 l 663 393 q 632 424 663 424 l 279 424 q 249 393 249 424 l 249 11 l 129 11 l 129 672 m 249 549 q 279 518 249 518 l 632 518 q 663 549 663 518 l 663 672 l 249 672 l 249 549 z "},"I":{"ha":336,"x_min":108,"x_max":228,"o":"m 108 907 l 228 907 l 228 11 l 108 11 l 108 907 z "},"Ĳ":{"ha":925,"x_min":108,"x_max":821,"o":"m 108 907 l 228 907 l 228 11 l 108 11 l 108 907 m 568 1 q 397 49 465 1 q 306 160 329 96 l 408 211 q 465 131 426 163 q 561 99 503 99 q 701 296 701 99 l 701 904 l 821 904 l 821 294 q 749 75 821 149 q 568 1 678 1 z "},"J":{"ha":658,"x_min":39,"x_max":554,"o":"m 301 1 q 131 49 199 1 q 39 160 63 96 l 142 211 q 198 131 160 163 q 294 99 236 99 q 435 296 435 99 l 435 904 l 554 904 l 554 294 q 483 75 554 149 q 301 1 411 1 z "},"K":{"ha":819,"x_min":104,"x_max":771,"o":"m 368 385 q 353 394 361 394 q 339 386 346 394 l 233 268 q 224 242 224 258 l 224 11 l 104 11 l 104 907 l 224 907 l 224 449 q 233 431 224 431 q 246 439 238 431 l 642 915 l 738 842 l 444 506 q 439 492 439 500 q 444 476 439 483 l 771 64 l 675 -4 l 368 385 z "},"L":{"ha":708,"x_min":104,"x_max":635,"o":"m 221 14 q 133 42 161 14 q 104 129 104 69 l 104 907 l 224 907 l 224 154 q 235 120 224 132 q 269 108 247 108 l 635 108 l 635 14 l 221 14 z "},"Ŀ":{"ha":708,"x_min":104,"x_max":635,"o":"m 458 417 q 401 440 425 417 q 378 497 378 464 q 401 554 378 531 q 458 578 425 578 q 515 554 492 578 q 539 497 539 531 q 515 440 539 464 q 458 417 492 417 m 104 907 l 224 907 l 224 154 q 235 120 224 132 q 269 108 247 108 l 635 108 l 635 14 l 221 14 q 133 42 161 14 q 104 129 104 69 l 104 907 z "},"Ł":{"ha":778,"x_min":14,"x_max":704,"o":"m 14 471 l 174 519 l 174 907 l 293 907 l 293 556 l 475 610 l 475 515 l 293 461 l 293 154 q 305 120 293 132 q 339 108 317 108 l 704 108 l 704 14 l 290 14 q 202 42 231 14 q 174 129 174 69 l 174 425 l 14 376 l 14 471 z "},"M":{"ha":1014,"x_min":104,"x_max":910,"o":"m 104 904 l 236 904 l 499 208 q 508 197 503 197 q 517 208 513 197 l 779 904 l 910 904 l 910 11 l 790 11 l 790 617 q 787 628 790 626 q 781 619 783 629 l 567 42 l 447 42 l 233 619 q 228 628 232 628 q 224 617 224 628 l 224 11 l 104 11 l 104 904 z "},"N":{"ha":833,"x_min":104,"x_max":729,"o":"m 104 904 l 232 904 l 594 247 q 606 239 599 239 q 613 250 613 239 l 613 907 l 729 907 l 729 14 l 601 14 l 239 671 q 228 679 235 679 q 221 668 221 679 l 221 11 l 104 11 l 104 904 z "},"Ŋ":{"ha":833,"x_min":104,"x_max":729,"o":"m 104 904 l 232 904 l 599 257 q 608 249 603 249 q 613 260 613 249 l 613 907 l 729 907 l 729 -100 q 685 -217 729 -174 q 567 -260 642 -260 q 501 -256 529 -260 l 501 -157 q 550 -162 528 -162 q 613 -94 613 -162 l 613 14 l 239 671 q 228 679 235 679 q 221 668 221 679 l 221 11 l 104 11 l 104 904 z "},"O":{"ha":940,"x_min":72,"x_max":868,"o":"m 471 0 q 257 60 347 0 q 119 224 167 119 q 72 460 72 329 q 119 694 72 590 q 257 858 167 799 q 471 918 347 918 q 684 858 594 918 q 821 694 774 799 q 868 460 868 590 q 821 224 868 329 q 684 60 774 119 q 471 0 594 0 m 192 460 q 227 268 192 350 q 326 142 263 186 q 471 97 389 97 q 615 142 553 97 q 713 268 678 186 q 749 460 749 350 q 713 650 749 568 q 615 776 678 732 q 471 821 553 821 q 326 776 389 821 q 227 650 263 732 q 192 460 192 568 z "},"Ø":{"ha":940,"x_min":72,"x_max":868,"o":"m 74 -29 l 181 128 q 100 274 128 189 q 72 460 72 360 q 119 694 72 590 q 257 858 167 799 q 471 918 347 918 q 682 860 593 918 l 782 1004 l 865 946 l 760 792 q 840 644 813 729 q 868 460 868 558 q 821 224 868 329 q 684 60 774 119 q 471 0 594 0 q 258 60 349 0 l 157 -87 l 74 -29 m 192 460 q 249 226 192 321 l 622 771 q 471 821 560 821 q 326 776 389 821 q 227 650 263 732 q 192 460 192 568 m 318 147 q 471 97 386 97 q 615 142 553 97 q 713 268 678 186 q 749 460 749 350 q 692 693 749 599 l 318 147 z "},"Œ":{"ha":1164,"x_min":72,"x_max":1099,"o":"m 553 14 q 197 130 321 15 q 72 460 72 244 q 197 789 72 675 q 553 904 321 903 l 1081 904 l 1081 807 l 703 807 q 672 776 672 807 l 672 549 q 703 518 672 518 l 1061 518 l 1061 424 l 703 424 q 672 393 672 424 l 672 157 q 684 123 672 135 q 718 111 696 111 l 1099 111 l 1099 14 l 553 14 m 192 460 q 553 111 192 114 l 553 807 q 192 460 192 804 z "},"P":{"ha":833,"x_min":104,"x_max":761,"o":"m 104 904 l 388 904 q 673 825 585 904 q 761 622 761 746 q 673 416 761 496 q 388 336 585 336 l 251 336 q 224 308 224 336 l 224 11 l 104 11 l 104 904 m 224 472 q 232 442 224 450 q 263 433 240 433 l 388 433 q 578 483 515 433 q 642 622 642 533 q 578 758 642 708 q 388 807 514 807 l 254 807 q 224 776 224 807 l 224 472 z "},"Þ":{"ha":833,"x_min":104,"x_max":761,"o":"m 104 906 l 224 906 l 224 751 l 388 751 q 673 672 585 751 q 761 469 761 593 q 673 263 761 343 q 388 183 585 183 l 251 183 q 224 156 224 183 l 224 11 l 104 11 l 104 906 m 224 319 q 232 289 224 297 q 263 281 240 281 l 388 281 q 578 331 515 281 q 642 469 642 381 q 578 605 642 556 q 388 654 514 654 l 254 654 q 224 624 224 654 l 224 319 z "},"Q":{"ha":940,"x_min":72,"x_max":868,"o":"m 658 25 q 632 33 647 40 q 471 0 551 0 q 257 60 347 0 q 119 224 167 119 q 72 460 72 329 q 119 694 72 590 q 257 858 167 799 q 471 918 347 918 q 684 858 594 918 q 821 694 774 799 q 868 460 868 590 q 837 267 868 354 q 747 117 806 179 q 739 101 739 108 q 744 88 739 96 l 849 -56 l 758 -121 l 658 25 m 192 460 q 227 268 192 350 q 326 142 263 186 q 471 97 389 97 q 567 114 521 97 q 579 129 579 118 q 574 143 579 138 l 454 301 l 544 367 l 657 211 q 671 201 664 201 q 685 211 681 201 q 749 460 749 313 q 713 650 749 568 q 615 776 678 732 q 471 821 553 821 q 326 776 389 821 q 227 650 263 732 q 192 460 192 568 z "},"R":{"ha":833,"x_min":104,"x_max":761,"o":"m 443 349 q 429 361 438 358 q 404 364 421 364 l 251 364 q 224 336 224 364 l 224 11 l 104 11 l 104 904 l 399 904 q 668 827 585 904 q 751 636 751 750 q 709 483 751 550 q 572 389 667 415 q 554 376 554 383 q 561 361 554 371 l 761 46 l 660 -7 l 443 349 m 224 500 q 232 469 224 478 q 263 461 240 461 l 399 461 q 574 509 515 461 q 632 636 632 557 q 573 760 632 713 q 399 807 514 807 l 254 807 q 224 776 224 807 l 224 500 z "},"S":{"ha":806,"x_min":69,"x_max":743,"o":"m 411 0 q 211 42 306 0 q 69 168 117 83 l 167 232 q 265 131 199 165 q 417 97 331 97 q 570 140 514 97 q 626 257 626 183 q 413 421 626 396 q 172 505 244 440 q 100 672 100 569 q 135 798 100 742 q 242 887 171 854 q 413 919 313 919 q 591 885 517 919 q 703 790 665 850 l 622 719 q 544 794 599 767 q 408 822 489 822 q 269 781 321 822 q 217 676 217 740 q 267 574 217 613 q 438 524 317 536 q 670 437 597 507 q 743 256 743 367 q 707 126 743 185 q 597 34 671 68 q 411 0 522 0 z "},"T":{"ha":778,"x_min":56,"x_max":722,"o":"m 331 776 q 300 807 331 807 l 56 807 l 56 904 l 722 904 l 722 807 l 481 807 q 450 776 450 807 l 450 11 l 331 11 l 331 776 z "},"Ŧ":{"ha":778,"x_min":56,"x_max":722,"o":"m 331 364 q 300 394 331 394 l 104 394 l 104 492 l 300 492 q 331 522 331 492 l 331 776 q 300 807 331 807 l 56 807 l 56 904 l 722 904 l 722 807 l 481 807 q 450 776 450 807 l 450 522 q 481 492 450 492 l 674 492 l 674 394 l 481 394 q 450 364 450 394 l 450 11 l 331 11 l 331 364 z "},"U":{"ha":861,"x_min":104,"x_max":757,"o":"m 431 0 q 185 97 267 0 q 104 367 104 193 l 104 907 l 224 907 l 224 354 q 275 165 224 233 q 431 97 326 97 q 585 165 533 97 q 638 354 638 233 l 638 907 l 757 907 l 757 367 q 675 97 757 193 q 431 0 593 0 z "},"V":{"ha":806,"x_min":46,"x_max":760,"o":"m 46 888 l 157 917 l 394 181 q 404 169 399 169 q 413 181 408 169 l 650 917 l 760 888 l 463 14 l 343 14 l 46 888 z "},"W":{"ha":1053,"x_min":40,"x_max":1013,"o":"m 40 894 l 158 914 l 299 211 q 306 200 301 200 q 313 211 310 200 l 460 863 l 594 863 l 742 211 q 749 200 744 200 q 756 211 753 200 l 896 914 l 1013 894 l 819 14 l 683 14 l 532 665 q 527 675 531 675 q 521 665 524 675 l 369 14 l 233 14 l 40 894 z "},"X":{"ha":828,"x_min":49,"x_max":779,"o":"m 49 74 l 338 457 q 343 471 343 464 q 338 483 343 478 l 71 844 l 168 911 l 401 582 q 415 572 411 572 q 428 582 421 572 l 661 911 l 757 844 l 490 483 q 485 471 485 475 q 490 457 485 468 l 779 74 l 685 1 l 428 357 q 415 365 422 365 q 401 357 408 365 l 143 1 l 49 74 z "},"Y":{"ha":806,"x_min":46,"x_max":760,"o":"m 343 356 q 336 382 343 369 l 46 865 l 150 915 l 390 503 q 404 493 396 493 q 417 503 411 493 l 657 915 l 760 865 l 469 382 q 463 356 463 369 l 463 11 l 343 11 l 343 356 z "},"Z":{"ha":750,"x_min":78,"x_max":694,"o":"m 78 108 l 521 789 q 528 803 528 800 q 518 807 528 807 l 90 807 l 90 904 l 674 904 l 674 810 l 231 129 q 224 115 224 119 q 233 111 224 111 l 694 111 l 694 14 l 78 14 l 78 108 z "},"Ａ":{"ha":1389,"x_min":324,"x_max":1065,"o":"m 324 31 l 635 904 l 754 904 l 1065 31 l 956 1 l 867 263 q 843 279 861 279 l 547 279 q 524 263 529 279 l 435 1 l 324 31 m 571 397 q 569 389 569 394 q 588 374 569 374 l 803 374 q 818 380 814 374 q 819 397 822 386 l 704 738 q 696 749 700 749 q 686 738 690 749 l 571 397 z "},"Ｂ":{"ha":1389,"x_min":385,"x_max":1042,"o":"m 486 14 q 413 42 442 14 q 385 115 385 69 l 385 904 l 708 904 q 924 841 850 904 q 999 675 999 778 q 885 488 999 525 q 872 478 872 483 q 886 471 872 472 q 997 401 953 458 q 1042 253 1042 344 q 970 79 1042 144 q 746 14 899 14 l 486 14 m 504 133 q 510 118 504 124 q 525 113 515 113 l 719 113 q 874 153 826 113 q 922 265 922 194 q 874 376 922 333 q 725 418 825 418 l 525 418 q 510 413 515 418 q 504 397 504 407 l 504 133 m 504 535 q 510 519 504 525 q 525 514 515 514 l 696 514 q 833 556 786 514 q 879 664 879 597 q 835 766 879 726 q 699 806 790 806 l 525 806 q 510 800 515 806 q 504 785 504 794 l 504 535 z "},"Ｃ":{"ha":1389,"x_min":357,"x_max":1075,"o":"m 756 0 q 542 60 632 0 q 404 224 451 119 q 357 460 357 329 q 404 694 357 590 q 542 858 451 799 q 756 918 632 918 q 908 890 840 918 q 1033 803 975 863 l 956 722 q 756 821 876 821 q 610 776 674 821 q 512 650 547 732 q 476 460 476 568 q 512 268 476 350 q 610 142 547 186 q 756 97 674 97 q 888 129 829 97 q 985 221 947 161 l 1075 156 q 942 40 1022 81 q 756 0 863 0 z "},"Ｄ":{"ha":1389,"x_min":376,"x_max":1071,"o":"m 493 14 q 405 42 433 14 q 376 129 376 69 l 376 904 l 632 904 q 866 847 767 904 q 1018 690 965 790 q 1071 460 1071 589 q 1018 228 1071 329 q 866 71 965 128 q 632 14 767 14 l 493 14 m 496 157 q 508 123 496 135 q 542 111 519 111 l 632 111 q 797 152 725 111 q 910 272 869 193 q 951 460 951 351 q 910 647 951 568 q 797 766 869 725 q 632 807 725 807 l 526 807 q 496 776 496 807 l 496 157 z "},"Ｅ":{"ha":1389,"x_min":436,"x_max":1010,"o":"m 553 14 q 465 42 493 14 q 436 129 436 69 l 436 904 l 992 904 l 992 807 l 586 807 q 556 776 556 807 l 556 549 q 586 518 556 518 l 972 518 l 972 424 l 586 424 q 556 393 556 424 l 556 157 q 567 123 556 135 q 601 111 579 111 l 1010 111 l 1010 14 l 553 14 z "},"Ｆ":{"ha":1389,"x_min":443,"x_max":997,"o":"m 443 904 l 997 904 l 997 807 l 593 807 q 563 776 563 807 l 563 535 q 593 504 563 504 l 979 504 l 979 410 l 593 410 q 563 379 563 410 l 563 11 l 443 11 l 443 904 z "},"Ｇ":{"ha":1389,"x_min":278,"x_max":997,"o":"m 671 0 q 458 60 547 0 q 324 224 369 119 q 278 460 278 328 q 325 694 278 590 q 463 858 372 799 q 676 918 553 918 q 840 891 771 918 q 968 803 910 864 l 890 722 q 796 798 847 775 q 676 821 744 821 q 531 776 594 821 q 433 650 468 732 q 397 460 397 568 q 431 268 397 350 q 527 142 465 186 q 671 97 589 97 q 783 117 729 97 q 874 176 836 138 q 883 203 883 186 l 883 378 q 878 405 883 400 q 851 410 874 410 l 664 410 l 664 504 l 894 504 q 976 483 954 504 q 997 403 997 463 l 997 206 q 969 122 997 151 q 671 0 856 0 z "},"Ｈ":{"ha":1389,"x_min":368,"x_max":1021,"o":"m 368 907 l 488 907 l 488 549 q 518 518 488 518 l 871 518 q 901 549 901 518 l 901 907 l 1021 907 l 1021 11 l 901 11 l 901 393 q 871 424 901 424 l 518 424 q 488 393 488 424 l 488 11 l 368 11 l 368 907 z "},"Ｉ":{"ha":1389,"x_min":635,"x_max":754,"o":"m 635 907 l 754 907 l 754 11 l 635 11 l 635 907 z "},"Ｊ":{"ha":1389,"x_min":369,"x_max":885,"o":"m 632 1 q 461 49 529 1 q 369 160 393 96 l 472 211 q 528 131 490 163 q 625 99 567 99 q 765 296 765 99 l 765 904 l 885 904 l 885 294 q 813 75 885 149 q 632 1 742 1 z "},"Ｋ":{"ha":1389,"x_min":406,"x_max":1072,"o":"m 669 385 q 654 394 663 394 q 640 386 647 394 l 535 268 q 525 242 525 258 l 525 11 l 406 11 l 406 907 l 525 907 l 525 449 q 535 431 525 431 q 547 439 539 431 l 943 915 l 1039 842 l 746 506 q 740 492 740 500 q 746 476 740 483 l 1072 64 l 976 -4 l 669 385 z "},"Ｌ":{"ha":1389,"x_min":501,"x_max":1032,"o":"m 618 14 q 530 42 558 14 q 501 129 501 69 l 501 907 l 621 907 l 621 154 q 633 120 621 132 q 667 108 644 108 l 1032 108 l 1032 14 l 618 14 z "},"Ｍ":{"ha":1389,"x_min":292,"x_max":1097,"o":"m 292 904 l 424 904 l 686 208 q 696 197 690 197 q 704 208 700 197 l 967 904 l 1097 904 l 1097 11 l 978 11 l 978 617 q 974 628 978 626 q 968 619 971 629 l 754 42 l 635 42 l 421 619 q 415 628 419 628 q 411 617 411 628 l 411 11 l 292 11 l 292 904 z "},"Ｎ":{"ha":1389,"x_min":382,"x_max":1007,"o":"m 382 904 l 510 904 l 872 247 q 883 239 876 239 q 890 250 890 239 l 890 907 l 1007 907 l 1007 14 l 879 14 l 517 671 q 506 679 513 679 q 499 668 499 679 l 499 11 l 382 11 l 382 904 z "},"Ｏ":{"ha":1389,"x_min":297,"x_max":1093,"o":"m 696 0 q 482 60 572 0 q 344 224 392 119 q 297 460 297 329 q 344 694 297 590 q 482 858 392 799 q 696 918 572 918 q 909 858 819 918 q 1046 694 999 799 q 1093 460 1093 590 q 1046 224 1093 329 q 909 60 999 119 q 696 0 819 0 m 417 460 q 452 268 417 350 q 551 142 488 186 q 696 97 614 97 q 840 142 778 97 q 938 268 903 186 q 974 460 974 350 q 938 650 974 568 q 840 776 903 732 q 696 821 778 821 q 551 776 614 821 q 452 650 488 732 q 417 460 417 568 z "},"Ｐ":{"ha":1389,"x_min":414,"x_max":1071,"o":"m 414 904 l 697 904 q 983 825 894 904 q 1071 622 1071 746 q 983 416 1071 496 q 697 336 894 336 l 561 336 q 533 308 533 336 l 533 11 l 414 11 l 414 904 m 533 472 q 542 442 533 450 q 572 433 550 433 l 697 433 q 888 483 825 433 q 951 622 951 533 q 888 758 951 708 q 697 807 824 807 l 564 807 q 533 776 533 807 l 533 472 z "},"Ｑ":{"ha":1389,"x_min":297,"x_max":1093,"o":"m 883 25 q 857 33 872 40 q 696 0 776 0 q 482 60 572 0 q 344 224 392 119 q 297 460 297 329 q 344 694 297 590 q 482 858 392 799 q 696 918 572 918 q 909 858 819 918 q 1046 694 999 799 q 1093 460 1093 590 q 1062 267 1093 354 q 972 117 1031 179 q 964 101 964 108 q 969 88 964 96 l 1074 -56 l 983 -121 l 883 25 m 417 460 q 452 268 417 350 q 551 142 488 186 q 696 97 614 97 q 792 114 746 97 q 804 129 804 118 q 799 143 804 138 l 679 301 l 769 367 l 882 211 q 896 201 889 201 q 910 211 906 201 q 974 460 974 313 q 938 650 974 568 q 840 776 903 732 q 696 821 778 821 q 551 776 614 821 q 452 650 488 732 q 417 460 417 568 z "},"Ｒ":{"ha":1389,"x_min":401,"x_max":1058,"o":"m 740 349 q 726 361 735 358 q 701 364 718 364 l 549 364 q 521 336 521 364 l 521 11 l 401 11 l 401 904 l 696 904 q 965 827 882 904 q 1049 636 1049 750 q 1006 483 1049 550 q 869 389 964 415 q 851 376 851 383 q 858 361 851 371 l 1058 46 l 957 -7 l 740 349 m 521 500 q 529 469 521 478 q 560 461 538 461 l 696 461 q 871 509 813 461 q 929 636 929 557 q 870 760 929 713 q 696 807 811 807 l 551 807 q 521 776 521 807 l 521 500 z "},"Ｓ":{"ha":1389,"x_min":365,"x_max":1039,"o":"m 707 0 q 507 42 601 0 q 365 168 413 83 l 463 232 q 560 131 494 165 q 713 97 626 97 q 866 140 810 97 q 922 257 922 183 q 708 421 922 396 q 468 505 540 440 q 396 672 396 569 q 431 798 396 742 q 538 887 467 854 q 708 919 608 919 q 887 885 813 919 q 999 790 961 850 l 918 719 q 840 794 894 767 q 704 822 785 822 q 565 781 617 822 q 513 676 513 740 q 563 574 513 613 q 733 524 613 536 q 966 437 893 507 q 1039 256 1039 367 q 1003 126 1039 185 q 892 34 967 68 q 707 0 818 0 z "},"Ｔ":{"ha":1389,"x_min":361,"x_max":1028,"o":"m 636 776 q 606 807 636 807 l 361 807 l 361 904 l 1028 904 l 1028 807 l 786 807 q 756 776 756 807 l 756 11 l 636 11 l 636 776 z "},"Ｕ":{"ha":1389,"x_min":368,"x_max":1021,"o":"m 694 0 q 449 97 531 0 q 368 367 368 193 l 368 907 l 488 907 l 488 354 q 539 165 488 233 q 694 97 590 97 q 849 165 797 97 q 901 354 901 233 l 901 907 l 1021 907 l 1021 367 q 939 97 1021 193 q 694 0 857 0 z "},"Ｖ":{"ha":1389,"x_min":338,"x_max":1051,"o":"m 338 888 l 449 917 l 686 181 q 696 169 690 169 q 704 181 700 169 l 942 917 l 1051 888 l 754 14 l 635 14 l 338 888 z "},"Ｗ":{"ha":1389,"x_min":208,"x_max":1181,"o":"m 208 894 l 326 914 l 467 211 q 474 200 469 200 q 481 211 478 200 l 628 863 l 763 863 l 910 211 q 917 200 913 200 q 924 211 921 200 l 1064 914 l 1181 894 l 988 14 l 851 14 l 700 665 q 695 675 699 675 q 689 665 692 675 l 538 14 l 401 14 l 208 894 z "},"Ｘ":{"ha":1389,"x_min":329,"x_max":1060,"o":"m 329 74 l 618 457 q 624 471 624 464 q 618 483 624 478 l 351 844 l 449 911 l 682 582 q 696 572 692 572 q 708 582 701 572 l 942 911 l 1038 844 l 771 483 q 765 471 765 475 q 771 457 765 468 l 1060 74 l 965 1 l 708 357 q 696 365 703 365 q 682 357 689 365 l 424 1 l 329 74 z "},"Ｙ":{"ha":1389,"x_min":338,"x_max":1051,"o":"m 635 356 q 628 382 635 369 l 338 865 l 442 915 l 682 503 q 696 493 688 493 q 708 503 703 493 l 949 915 l 1051 865 l 761 382 q 754 356 754 369 l 754 11 l 635 11 l 635 356 z "},"Ｚ":{"ha":1389,"x_min":386,"x_max":1003,"o":"m 386 108 l 829 789 q 836 803 836 800 q 826 807 836 807 l 399 807 l 399 904 l 982 904 l 982 810 l 539 129 q 532 115 532 119 q 542 111 532 111 l 1003 111 l 1003 14 l 386 14 l 386 108 z "},"a":{"ha":778,"x_min":72,"x_max":678,"o":"m 360 0 q 147 92 222 0 q 72 329 72 183 q 147 567 72 475 q 360 658 222 658 q 544 579 476 658 q 554 574 549 574 q 561 585 558 574 l 567 647 l 678 647 l 678 11 l 567 11 l 561 72 q 556 84 560 82 q 546 79 551 86 q 360 0 474 0 m 189 329 q 239 159 189 221 q 381 97 289 97 q 500 150 451 97 q 561 275 549 203 l 561 379 q 499 508 550 454 q 381 561 449 561 q 239 499 289 561 q 189 329 189 438 z "},"æ":{"ha":1229,"x_min":72,"x_max":1164,"o":"m 360 0 q 147 92 222 0 q 72 329 72 183 q 147 567 72 475 q 360 658 222 658 q 544 579 476 658 q 554 574 549 574 q 561 585 558 574 l 567 647 l 678 647 l 678 596 q 686 592 678 583 q 874 658 754 658 q 1075 578 996 658 q 1164 361 1154 499 q 1101 285 1164 285 l 696 285 q 685 281 689 285 q 683 269 682 276 q 747 142 696 188 q 876 97 797 97 q 981 120 933 97 q 1056 183 1029 143 l 1140 114 q 1032 30 1099 60 q 878 0 965 0 q 688 67 754 0 q 681 68 683 69 q 678 61 678 67 l 678 11 l 567 11 l 561 72 q 556 84 560 82 q 546 79 551 86 q 360 0 474 0 m 189 329 q 239 159 189 221 q 381 97 289 97 q 500 150 451 97 q 561 275 549 203 l 561 379 q 499 508 550 454 q 381 561 449 561 q 239 499 289 561 q 189 329 189 438 m 683 389 q 696 376 683 376 l 1038 376 q 1049 381 1044 376 q 1051 392 1053 385 q 993 512 1040 463 q 872 561 946 561 q 749 517 799 561 q 683 392 699 472 l 683 389 z "},"b":{"ha":778,"x_min":100,"x_max":706,"o":"m 418 0 q 232 79 304 0 q 224 85 228 85 q 217 72 219 85 l 211 11 l 100 11 l 100 907 l 217 907 l 217 585 q 224 574 217 574 q 233 579 229 574 q 418 658 301 658 q 631 567 556 658 q 706 329 706 475 q 631 92 706 183 q 418 0 556 0 m 217 275 q 278 150 229 203 q 397 97 326 97 q 539 159 489 97 q 589 329 589 221 q 539 499 589 438 q 397 561 489 561 q 278 508 329 561 q 217 379 228 454 l 217 275 z "},"c":{"ha":692,"x_min":72,"x_max":654,"o":"m 396 0 q 221 43 294 0 q 110 160 147 86 q 72 329 72 235 q 110 498 72 424 q 221 615 147 572 q 396 658 294 658 q 523 636 468 658 q 624 569 578 614 l 543 496 q 394 561 486 561 q 245 499 301 561 q 189 329 189 436 q 245 160 189 222 q 394 97 301 97 q 493 120 450 97 q 563 186 536 143 l 654 119 q 396 0 567 0 z "},"d":{"ha":778,"x_min":72,"x_max":678,"o":"m 360 0 q 147 92 222 0 q 72 329 72 183 q 147 567 72 475 q 360 658 222 658 q 544 579 476 658 q 554 574 549 574 q 561 585 561 574 l 561 907 l 678 907 l 678 11 l 567 11 l 561 72 q 556 84 560 82 q 546 79 551 86 q 360 0 474 0 m 189 329 q 239 159 189 221 q 381 97 289 97 q 500 150 451 97 q 561 275 549 203 l 561 379 q 499 508 550 454 q 381 561 449 561 q 239 499 289 561 q 189 329 189 438 z "},"ð":{"ha":778,"x_min":72,"x_max":706,"o":"m 389 0 q 219 43 290 0 q 110 160 147 86 q 72 329 72 235 q 110 498 72 424 q 219 615 147 572 q 389 658 290 658 q 461 649 429 658 q 524 617 493 639 q 378 749 471 692 l 217 663 l 185 757 l 271 803 l 244 814 l 193 833 l 233 918 q 382 861 324 890 l 510 929 l 538 833 l 482 804 q 706 358 706 647 l 706 357 q 622 97 706 194 q 389 0 538 0 m 189 329 q 244 160 189 222 q 389 97 299 97 q 533 160 478 97 q 589 329 589 224 q 533 499 589 436 q 389 561 478 561 q 244 499 299 561 q 189 329 189 436 z "},"đ":{"ha":824,"x_min":72,"x_max":779,"o":"m 360 0 q 147 92 222 0 q 72 329 72 183 q 147 567 72 475 q 360 658 222 658 q 544 579 476 658 q 554 574 549 574 q 561 585 561 574 l 561 714 l 460 714 l 460 811 l 561 811 l 561 907 l 678 907 l 678 811 l 779 811 l 779 714 l 678 714 l 678 11 l 567 11 l 561 72 q 556 84 560 82 q 546 79 551 86 q 360 0 474 0 m 189 329 q 239 159 189 221 q 381 97 289 97 q 500 150 451 97 q 561 275 549 203 l 561 379 q 499 508 550 454 q 381 561 449 561 q 239 499 289 561 q 189 329 189 438 z "},"e":{"ha":740,"x_min":72,"x_max":675,"o":"m 389 0 q 216 43 288 0 q 108 160 144 86 q 72 329 72 235 q 108 498 72 424 q 215 615 144 572 q 385 658 286 658 q 586 578 507 658 q 675 361 665 499 q 613 285 675 285 l 207 285 q 197 281 200 285 q 194 269 193 276 q 258 142 207 188 q 388 97 308 97 q 492 120 444 97 q 567 183 540 143 l 651 114 q 543 30 610 60 q 389 0 476 0 m 194 389 q 207 376 194 376 l 549 376 q 560 381 556 376 q 563 392 564 385 q 504 512 551 463 q 383 561 457 561 q 260 517 310 561 q 194 392 210 472 l 194 389 z "},"f":{"ha":653,"x_min":56,"x_max":621,"o":"m 219 525 q 206 540 219 540 l 56 540 l 56 635 l 206 635 q 219 649 219 635 l 219 694 q 249 826 219 772 q 326 906 278 879 q 431 932 375 932 q 549 908 499 932 q 621 839 600 883 l 535 778 q 496 822 522 807 q 438 838 469 838 q 364 801 392 838 q 336 693 336 764 l 336 649 q 350 635 336 635 l 581 635 l 581 540 l 350 540 q 336 525 336 540 l 336 11 l 219 11 l 219 525 z "},"g":{"ha":778,"x_min":72,"x_max":678,"o":"m 386 -268 q 197 -222 274 -268 q 96 -112 119 -175 l 199 -61 q 263 -139 215 -107 q 379 -171 310 -171 q 513 -123 464 -171 q 561 18 561 -75 l 561 97 q 556 109 560 107 q 546 104 551 111 q 360 25 474 25 q 203 67 268 25 q 106 181 139 110 q 72 342 72 253 q 106 502 72 431 q 203 616 139 574 q 360 658 268 658 q 544 579 476 658 q 554 574 549 574 q 561 585 558 574 l 567 647 l 678 647 l 678 17 q 594 -197 678 -125 q 386 -268 511 -268 m 189 342 q 240 182 189 242 q 381 122 290 122 q 500 175 451 122 q 561 300 549 228 l 561 383 q 499 508 550 456 q 381 561 449 561 q 240 501 290 561 q 189 342 189 442 z "},"h":{"ha":769,"x_min":100,"x_max":669,"o":"m 100 907 l 217 907 l 217 582 q 224 571 217 571 q 233 576 229 571 q 410 658 308 658 q 599 583 528 658 q 669 347 669 507 l 669 11 l 553 11 l 553 360 q 399 561 553 561 q 269 497 321 561 q 217 318 217 432 l 217 11 l 100 11 l 100 907 z "},"ħ":{"ha":815,"x_min":44,"x_max":715,"o":"m 146 714 l 44 714 l 44 811 l 146 811 l 146 907 l 263 907 l 263 811 l 364 811 l 364 714 l 263 714 l 263 582 q 269 571 263 571 q 279 576 275 571 q 456 658 354 658 q 644 583 574 658 q 715 347 715 507 l 715 11 l 599 11 l 599 360 q 444 561 599 561 q 315 497 367 561 q 263 318 263 432 l 263 11 l 146 11 l 146 714 z "},"i":{"ha":328,"x_min":83,"x_max":244,"o":"m 106 647 l 222 647 l 222 11 l 106 11 l 106 647 m 83 847 q 107 904 83 881 q 164 928 131 928 q 221 904 197 928 q 244 847 244 881 q 221 790 244 814 q 164 767 197 767 q 107 790 131 767 q 83 847 83 814 z "},"ı":{"ha":328,"x_min":106,"x_max":222,"o":"m 106 647 l 222 647 l 222 11 l 106 11 l 106 647 z "},"ĳ":{"ha":656,"x_min":83,"x_max":572,"o":"m 106 647 l 222 647 l 222 11 l 106 11 l 106 647 m 83 847 q 107 904 83 881 q 164 928 131 928 q 221 904 197 928 q 244 847 244 881 q 221 790 244 814 q 164 767 197 767 q 107 790 131 767 q 83 847 83 814 m 388 -260 q 322 -256 350 -260 l 322 -157 q 371 -162 349 -162 q 433 -94 433 -162 l 433 647 l 550 647 l 550 -100 q 506 -217 550 -174 q 388 -260 463 -260 m 411 847 q 435 904 411 881 q 492 928 458 928 q 549 904 525 928 q 572 847 572 881 q 549 790 572 814 q 492 767 525 767 q 435 790 458 767 q 411 847 411 814 z "},"j":{"ha":328,"x_min":-6,"x_max":244,"o":"m 60 -260 q -6 -256 22 -260 l -6 -157 q 43 -162 21 -162 q 106 -94 106 -162 l 106 647 l 222 647 l 222 -100 q 178 -217 222 -174 q 60 -260 135 -260 m 83 847 q 107 904 83 881 q 164 928 131 928 q 221 904 197 928 q 244 847 244 881 q 221 790 244 814 q 164 767 197 767 q 107 790 131 767 q 83 847 83 814 z "},"k":{"ha":732,"x_min":100,"x_max":694,"o":"m 350 275 q 331 276 340 286 l 224 176 q 217 160 217 169 l 217 11 l 100 11 l 100 907 l 217 907 l 217 342 q 222 331 217 333 q 233 335 228 329 l 571 664 l 661 588 l 433 374 q 429 364 429 369 q 433 354 429 361 l 694 64 l 604 -7 l 350 275 z "},"ĸ":{"ha":732,"x_min":100,"x_max":694,"o":"m 350 275 q 331 276 340 286 l 224 176 q 217 160 217 169 l 217 11 l 100 11 l 100 647 l 217 647 l 217 342 q 222 331 217 333 q 233 335 228 329 l 571 664 l 661 588 l 433 374 q 429 364 429 369 q 433 354 429 361 l 694 64 l 604 -7 l 350 275 z "},"l":{"ha":326,"x_min":100,"x_max":264,"o":"m 232 8 q 100 121 100 8 l 100 907 l 217 907 l 217 121 q 242 97 217 97 q 264 100 256 97 l 264 11 q 232 8 250 8 z "},"ŀ":{"ha":539,"x_min":100,"x_max":469,"o":"m 389 417 q 332 440 356 417 q 308 497 308 464 q 332 554 308 531 q 389 578 356 578 q 446 554 422 578 q 469 497 469 531 q 446 440 469 464 q 389 417 422 417 m 100 907 l 217 907 l 217 121 q 242 97 217 97 q 264 100 256 97 l 264 11 q 232 8 250 8 q 100 121 100 8 l 100 907 z "},"ł":{"ha":503,"x_min":42,"x_max":433,"o":"m 42 475 l 176 522 l 176 907 l 293 907 l 293 564 l 433 614 l 433 518 l 293 468 l 293 121 q 318 97 293 97 q 340 100 332 97 l 340 11 q 308 8 326 8 q 176 121 176 8 l 176 426 l 42 379 l 42 475 z "},"m":{"ha":1083,"x_min":100,"x_max":983,"o":"m 100 647 l 211 647 l 217 582 q 223 571 218 572 q 233 576 228 569 q 302 636 261 614 q 392 658 343 658 q 558 582 503 658 q 572 569 568 569 q 583 576 578 569 q 765 658 654 658 q 922 587 861 658 q 983 375 983 515 l 983 11 l 867 11 l 867 388 q 835 519 867 478 q 754 561 803 561 q 678 534 714 561 q 622 458 643 507 q 600 346 600 408 l 600 11 l 483 11 l 483 388 q 451 519 483 478 q 371 561 419 561 q 295 534 331 561 q 238 458 260 507 q 217 346 217 408 l 217 11 l 100 11 l 100 647 z "},"n":{"ha":769,"x_min":100,"x_max":669,"o":"m 100 647 l 211 647 l 217 582 q 223 571 218 572 q 233 576 228 569 q 410 658 308 658 q 599 583 528 658 q 669 347 669 507 l 669 11 l 553 11 l 553 360 q 399 561 553 561 q 269 497 321 561 q 217 318 217 432 l 217 11 l 100 11 l 100 647 z "},"ŉ":{"ha":996,"x_min":104,"x_max":896,"o":"m 326 647 l 438 647 l 443 582 q 449 571 444 572 q 460 576 454 569 q 636 658 535 658 q 825 583 754 658 q 896 347 896 507 l 896 11 l 779 11 l 779 360 q 625 561 779 561 q 495 497 547 561 q 443 318 443 432 l 443 11 l 326 11 l 326 647 m 231 1024 l 222 679 l 113 679 l 104 1024 l 231 1024 z "},"ŋ":{"ha":769,"x_min":100,"x_max":669,"o":"m 100 647 l 211 647 l 217 582 q 223 571 218 572 q 233 576 228 569 q 410 658 308 658 q 599 583 528 658 q 669 347 669 507 l 669 -100 q 626 -217 669 -174 q 507 -260 582 -260 q 442 -256 469 -260 l 442 -157 q 490 -162 468 -162 q 553 -94 553 -162 l 553 360 q 399 561 553 561 q 269 497 321 561 q 217 318 217 432 l 217 11 l 100 11 l 100 647 z "},"o":{"ha":778,"x_min":72,"x_max":706,"o":"m 389 0 q 219 43 290 0 q 110 160 147 86 q 72 329 72 235 q 110 498 72 424 q 219 615 147 572 q 389 658 290 658 q 559 615 488 658 q 668 498 631 572 q 706 329 706 424 q 668 160 706 235 q 559 43 631 86 q 389 0 488 0 m 189 329 q 244 160 189 222 q 389 97 299 97 q 533 160 478 97 q 589 329 589 224 q 533 499 589 436 q 389 561 478 561 q 244 499 299 561 q 189 329 189 436 z "},"ø":{"ha":778,"x_min":72,"x_max":706,"o":"m 74 -29 l 157 92 q 94 197 115 136 q 72 329 72 258 q 110 498 72 424 q 219 615 147 572 q 389 658 290 658 q 526 632 465 658 l 617 763 l 700 704 l 611 575 q 681 467 657 531 q 706 329 706 404 q 668 160 706 235 q 559 43 631 86 q 389 0 488 0 q 239 32 306 0 l 157 -87 l 74 -29 m 189 329 q 224 189 189 247 l 468 546 q 389 561 431 561 q 244 499 299 561 q 189 329 189 436 m 297 118 q 389 97 339 97 q 533 160 478 97 q 589 329 589 224 q 547 481 589 421 l 297 118 z "},"œ":{"ha":1257,"x_min":72,"x_max":1192,"o":"m 389 0 q 219 43 290 0 q 110 160 147 86 q 72 329 72 235 q 110 498 72 424 q 219 615 147 572 q 389 658 290 658 q 540 620 474 658 q 640 517 606 582 q 647 513 643 513 q 651 517 650 513 q 752 620 686 582 q 901 658 818 658 q 1103 578 1024 658 q 1192 361 1182 499 q 1129 285 1192 285 l 724 285 q 713 281 717 285 q 711 269 710 276 q 774 142 724 188 q 904 97 825 97 q 1009 120 961 97 q 1083 183 1057 143 l 1168 114 q 1060 30 1126 60 q 906 0 993 0 q 751 38 818 0 q 650 142 685 76 q 646 146 649 146 q 640 142 643 146 q 540 38 606 76 q 389 0 474 0 m 189 329 q 244 160 189 222 q 389 97 299 97 q 533 160 478 97 q 589 329 589 224 q 533 499 589 436 q 389 561 478 561 q 244 499 299 561 q 189 329 189 436 m 711 389 q 724 376 711 376 l 1065 376 q 1076 381 1072 376 q 1079 392 1081 385 q 1021 512 1068 463 q 900 561 974 561 q 776 517 826 561 q 711 392 726 472 l 711 389 z "},"p":{"ha":778,"x_min":100,"x_max":706,"o":"m 100 647 l 211 647 l 217 586 q 222 574 218 576 q 232 579 226 572 q 418 658 304 658 q 631 567 556 658 q 706 329 706 475 q 631 92 706 183 q 418 0 556 0 q 233 79 301 0 q 224 85 229 85 q 217 74 217 85 l 217 -249 l 100 -249 l 100 647 m 217 279 q 278 151 228 204 q 397 97 329 97 q 539 159 489 97 q 589 329 589 221 q 539 499 589 438 q 397 561 489 561 q 278 508 326 561 q 217 383 229 456 l 217 279 z "},"þ":{"ha":778,"x_min":100,"x_max":706,"o":"m 100 907 l 217 907 l 217 586 q 222 574 217 576 q 232 579 226 572 q 418 658 304 658 q 631 567 556 658 q 706 329 706 475 q 631 92 706 183 q 418 0 556 0 q 233 79 301 0 q 224 85 229 85 q 217 74 217 85 l 217 -249 l 100 -249 l 100 907 m 217 279 q 278 151 228 204 q 397 97 329 97 q 539 159 489 97 q 589 329 589 221 q 539 499 589 438 q 397 561 489 561 q 278 508 326 561 q 217 383 229 456 l 217 279 z "},"q":{"ha":778,"x_min":72,"x_max":678,"o":"m 561 72 q 554 83 561 83 q 544 78 549 83 q 360 -1 476 -1 q 147 90 222 -1 q 72 328 72 182 q 147 565 72 474 q 360 657 222 657 q 546 578 474 657 q 554 572 550 572 q 561 585 560 572 l 567 646 l 678 646 l 678 -250 l 561 -250 l 561 72 m 189 328 q 239 158 189 219 q 381 96 289 96 q 499 149 449 96 q 561 278 550 203 l 561 382 q 500 507 549 454 q 381 560 451 560 q 239 498 289 560 q 189 328 189 436 z "},"r":{"ha":583,"x_min":100,"x_max":549,"o":"m 100 647 l 211 647 l 217 576 q 223 565 218 567 q 233 571 228 564 q 410 658 308 658 q 488 651 457 658 q 549 622 518 643 l 501 529 q 399 561 458 561 q 307 531 349 561 q 241 445 265 501 q 217 313 217 389 l 217 11 l 100 11 l 100 647 z "},"s":{"ha":669,"x_min":65,"x_max":610,"o":"m 340 -3 q 178 27 254 -3 q 65 118 103 57 l 151 189 q 228 119 179 143 q 344 94 278 94 q 453 122 413 94 q 493 190 493 149 q 459 256 493 231 q 342 290 425 282 q 93 476 93 318 q 122 568 93 526 q 206 635 150 610 q 342 661 263 661 q 489 637 428 661 q 581 569 550 613 l 506 496 q 442 544 483 525 q 339 564 400 564 q 244 538 278 564 q 210 475 210 513 q 244 415 210 435 q 363 386 279 396 q 552 322 494 371 q 610 186 610 272 q 542 51 610 106 q 340 -3 474 -3 z "},"ß":{"ha":764,"x_min":104,"x_max":706,"o":"m 104 524 q 389 918 104 918 q 538 883 478 918 q 627 793 599 849 q 656 675 656 738 q 613 554 656 604 q 515 485 569 504 q 508 480 508 483 q 515 474 508 476 q 653 391 601 451 q 706 246 706 331 q 671 131 706 183 q 569 46 636 78 q 410 14 503 14 l 321 14 l 321 113 l 383 113 q 535 149 483 113 q 586 251 586 185 q 438 417 586 367 q 392 438 404 428 q 381 475 381 449 q 393 514 381 503 q 438 536 406 525 q 510 589 483 551 q 536 678 536 626 q 499 780 536 740 q 389 819 461 819 q 224 507 224 819 l 224 14 l 104 14 l 104 524 z "},"t":{"ha":667,"x_min":56,"x_max":633,"o":"m 435 0 q 283 50 346 0 q 219 206 219 100 l 219 526 q 206 540 219 540 l 56 540 l 56 635 l 206 635 q 219 650 219 635 l 219 838 l 336 838 l 336 650 q 350 635 336 635 l 567 635 l 567 540 l 350 540 q 336 526 336 540 l 336 207 q 365 122 336 149 q 442 94 394 94 q 504 113 475 94 q 546 167 533 132 l 633 113 q 558 29 608 58 q 435 0 508 0 z "},"ŧ":{"ha":667,"x_min":56,"x_max":633,"o":"m 435 0 q 283 50 346 0 q 219 206 219 100 l 219 304 q 206 318 219 318 l 56 318 l 56 413 l 206 413 q 219 428 219 413 l 219 526 q 206 540 219 540 l 56 540 l 56 635 l 206 635 q 219 650 219 635 l 219 838 l 336 838 l 336 650 q 350 635 336 635 l 567 635 l 567 540 l 350 540 q 336 526 336 540 l 336 428 q 350 413 336 413 l 567 413 l 567 318 l 350 318 q 336 304 336 318 l 336 207 q 365 122 336 149 q 442 94 394 94 q 504 113 475 94 q 546 167 533 132 l 633 113 q 558 29 608 58 q 435 0 508 0 z "},"u":{"ha":769,"x_min":100,"x_max":669,"o":"m 353 0 q 165 76 231 0 q 100 325 100 153 l 100 647 l 217 647 l 217 313 q 253 144 217 192 q 364 97 290 97 q 456 127 413 97 q 526 213 499 157 q 553 340 553 268 l 553 647 l 669 647 l 669 11 l 558 11 l 553 88 q 547 99 551 97 q 536 93 542 100 q 453 25 500 50 q 353 0 407 0 z "},"v":{"ha":678,"x_min":39,"x_max":639,"o":"m 39 629 l 149 657 l 329 167 q 340 157 335 157 q 350 167 347 157 l 529 657 l 639 629 l 397 14 l 281 14 l 39 629 z "},"w":{"ha":872,"x_min":33,"x_max":839,"o":"m 33 638 l 144 656 l 247 186 q 253 176 250 176 q 258 186 256 176 l 383 624 l 490 624 l 615 186 q 626 186 622 167 l 728 656 l 839 638 l 678 14 l 568 14 l 440 465 q 432 465 436 481 l 304 14 l 194 14 l 33 638 z "},"x":{"ha":661,"x_min":33,"x_max":628,"o":"m 33 61 l 258 329 q 264 340 264 335 q 258 351 264 346 l 50 604 l 142 657 l 321 435 q 332 428 328 428 q 342 435 335 428 l 519 657 l 611 604 l 403 351 q 397 340 397 343 q 403 329 397 338 l 628 61 l 539 3 l 342 244 q 332 251 338 251 q 321 244 328 251 l 122 3 l 33 61 z "},"y":{"ha":667,"x_min":33,"x_max":633,"o":"m 132 -260 q 64 -256 92 -260 l 64 -157 q 115 -162 90 -162 q 184 -144 151 -162 q 233 -83 217 -125 l 275 18 q 275 38 281 28 l 33 629 l 143 657 l 328 181 q 339 171 333 171 q 349 181 346 171 l 524 657 l 633 629 l 347 -100 q 265 -218 318 -176 q 132 -260 211 -260 z "},"z":{"ha":669,"x_min":75,"x_max":603,"o":"m 75 89 l 425 538 q 422 553 438 553 l 86 553 l 86 644 l 586 644 l 586 568 l 236 119 q 239 106 225 106 l 603 106 l 603 14 l 75 14 l 75 89 z "},"ａ":{"ha":1389,"x_min":378,"x_max":983,"o":"m 665 0 q 453 92 528 0 q 378 329 378 183 q 453 567 378 475 q 665 658 528 658 q 850 579 782 658 q 860 574 854 574 q 867 585 864 574 l 872 647 l 983 647 l 983 11 l 872 11 l 867 72 q 861 84 865 82 q 851 79 857 86 q 665 0 779 0 m 494 329 q 544 159 494 221 q 686 97 594 97 q 806 150 757 97 q 867 275 854 203 l 867 379 q 805 508 856 454 q 686 561 754 561 q 544 499 594 561 q 494 329 494 438 z "},"ｂ":{"ha":1389,"x_min":419,"x_max":1025,"o":"m 738 0 q 551 79 624 0 q 543 85 547 85 q 536 72 539 85 l 531 11 l 419 11 l 419 907 l 536 907 l 536 585 q 543 574 536 574 q 553 579 549 574 q 738 658 621 658 q 950 567 875 658 q 1025 329 1025 475 q 950 92 1025 183 q 738 0 875 0 m 536 275 q 597 150 549 203 q 717 97 646 97 q 858 159 808 97 q 908 329 908 221 q 858 499 908 438 q 717 561 808 561 q 598 508 649 561 q 536 379 547 454 l 536 275 z "},"ｃ":{"ha":1389,"x_min":432,"x_max":1014,"o":"m 756 0 q 581 43 654 0 q 469 160 507 86 q 432 329 432 235 q 469 498 432 424 q 581 615 507 572 q 756 658 654 658 q 883 636 828 658 q 983 569 938 614 l 903 496 q 754 561 846 561 q 605 499 661 561 q 549 329 549 436 q 605 160 549 222 q 754 97 661 97 q 853 120 810 97 q 922 186 896 143 l 1014 119 q 756 0 926 0 z "},"ｄ":{"ha":1389,"x_min":364,"x_max":969,"o":"m 651 0 q 439 92 514 0 q 364 329 364 183 q 439 567 364 475 q 651 658 514 658 q 836 579 768 658 q 846 574 840 574 q 853 585 853 574 l 853 907 l 969 907 l 969 11 l 858 11 l 853 72 q 847 84 851 82 q 838 79 843 86 q 651 0 765 0 m 481 329 q 531 159 481 221 q 672 97 581 97 q 792 150 743 97 q 853 275 840 203 l 853 379 q 791 508 842 454 q 672 561 740 561 q 531 499 581 561 q 481 329 481 438 z "},"ｅ":{"ha":1389,"x_min":407,"x_max":1010,"o":"m 724 0 q 551 43 622 0 q 443 160 479 86 q 407 329 407 235 q 443 498 407 424 q 550 615 479 572 q 719 658 621 658 q 921 578 842 658 q 1010 361 1000 499 q 947 285 1010 285 l 542 285 q 531 281 535 285 q 529 269 528 276 q 592 142 542 188 q 722 97 643 97 q 827 120 779 97 q 901 183 875 143 l 986 114 q 878 30 944 60 q 724 0 811 0 m 529 389 q 542 376 529 376 l 883 376 q 894 381 890 376 q 897 392 899 385 q 839 512 886 463 q 718 561 792 561 q 594 517 644 561 q 529 392 544 472 l 529 389 z "},"ｆ":{"ha":1389,"x_min":440,"x_max":1006,"o":"m 604 525 q 590 540 604 540 l 440 540 l 440 635 l 590 635 q 604 649 604 635 l 604 694 q 633 826 604 772 q 711 906 663 879 q 815 932 760 932 q 934 908 883 932 q 1006 839 985 883 l 919 778 q 881 822 907 807 q 822 838 854 838 q 749 801 776 838 q 721 693 721 764 l 721 649 q 735 635 721 635 l 965 635 l 965 540 l 735 540 q 721 525 721 540 l 721 11 l 604 11 l 604 525 z "},"ｇ":{"ha":1389,"x_min":350,"x_max":956,"o":"m 664 -268 q 474 -222 551 -268 q 374 -112 397 -175 l 476 -61 q 540 -139 493 -107 q 657 -171 588 -171 q 790 -123 742 -171 q 839 18 839 -75 l 839 97 q 833 109 838 107 q 824 104 829 111 q 638 25 751 25 q 481 67 546 25 q 383 181 417 110 q 350 342 350 253 q 383 502 350 431 q 481 616 417 574 q 638 658 546 658 q 822 579 754 658 q 832 574 826 574 q 839 585 836 574 l 844 647 l 956 647 l 956 17 q 872 -197 956 -125 q 664 -268 789 -268 m 467 342 q 517 182 467 242 q 658 122 568 122 q 778 175 729 122 q 839 300 826 228 l 839 383 q 777 508 828 456 q 658 561 726 561 q 517 501 568 561 q 467 342 467 442 z "},"ｈ":{"ha":1389,"x_min":410,"x_max":979,"o":"m 410 907 l 526 907 l 526 582 q 533 571 526 571 q 543 576 539 571 q 719 658 618 658 q 908 583 838 658 q 979 347 979 507 l 979 11 l 863 11 l 863 360 q 708 561 863 561 q 578 497 631 561 q 526 318 526 432 l 526 11 l 410 11 l 410 907 z "},"ｉ":{"ha":1389,"x_min":614,"x_max":775,"o":"m 636 647 l 753 647 l 753 11 l 636 11 l 636 647 m 614 847 q 638 904 614 881 q 694 928 661 928 q 751 904 728 928 q 775 847 775 881 q 751 790 775 814 q 694 767 728 767 q 638 790 661 767 q 614 847 614 814 z "},"ｊ":{"ha":1389,"x_min":507,"x_max":757,"o":"m 572 -260 q 507 -256 535 -260 l 507 -157 q 556 -162 533 -162 q 618 -94 618 -162 l 618 647 l 735 647 l 735 -100 q 691 -217 735 -174 q 572 -260 647 -260 m 596 847 q 619 904 596 881 q 676 928 643 928 q 733 904 710 928 q 757 847 757 881 q 733 790 757 814 q 676 767 710 767 q 619 790 643 767 q 596 847 596 814 z "},"ｋ":{"ha":1389,"x_min":435,"x_max":1029,"o":"m 685 275 q 665 276 675 286 l 558 176 q 551 160 551 169 l 551 11 l 435 11 l 435 907 l 551 907 l 551 342 q 557 331 551 333 q 568 335 563 329 l 906 664 l 996 588 l 768 374 q 764 364 764 369 q 768 354 764 361 l 1029 64 l 939 -7 l 685 275 z "},"ｌ":{"ha":1389,"x_min":654,"x_max":818,"o":"m 786 8 q 654 121 654 8 l 654 907 l 771 907 l 771 121 q 796 97 771 97 q 818 100 810 97 l 818 11 q 786 8 804 8 z "},"ｍ":{"ha":1389,"x_min":253,"x_max":1136,"o":"m 253 647 l 364 647 l 369 582 q 376 571 371 572 q 386 576 381 569 q 455 636 414 614 q 544 658 496 658 q 711 582 656 658 q 725 569 721 569 q 736 576 731 569 q 918 658 807 658 q 1075 587 1014 658 q 1136 375 1136 515 l 1136 11 l 1019 11 l 1019 388 q 988 519 1019 478 q 907 561 956 561 q 831 534 867 561 q 774 458 796 507 q 753 346 753 408 l 753 11 l 636 11 l 636 388 q 604 519 636 478 q 524 561 572 561 q 448 534 483 561 q 391 458 413 507 q 369 346 369 408 l 369 11 l 253 11 l 253 647 z "},"ｎ":{"ha":1389,"x_min":410,"x_max":979,"o":"m 410 647 l 521 647 l 526 582 q 533 571 528 572 q 543 576 538 569 q 719 658 618 658 q 908 583 838 658 q 979 347 979 507 l 979 11 l 863 11 l 863 360 q 708 561 863 561 q 578 497 631 561 q 526 318 526 432 l 526 11 l 410 11 l 410 647 z "},"ｏ":{"ha":1389,"x_min":378,"x_max":1011,"o":"m 694 0 q 524 43 596 0 q 415 160 453 86 q 378 329 378 235 q 415 498 378 424 q 524 615 453 572 q 694 658 596 658 q 865 615 793 658 q 974 498 936 572 q 1011 329 1011 424 q 974 160 1011 235 q 865 43 936 86 q 694 0 793 0 m 494 329 q 549 160 494 222 q 694 97 604 97 q 839 160 783 97 q 894 329 894 224 q 839 499 894 436 q 694 561 783 561 q 549 499 604 561 q 494 329 494 436 z "},"ｐ":{"ha":1389,"x_min":419,"x_max":1025,"o":"m 419 647 l 531 647 l 536 586 q 542 574 538 576 q 551 579 546 572 q 738 658 624 658 q 950 567 875 658 q 1025 329 1025 475 q 950 92 1025 183 q 738 0 875 0 q 553 79 621 0 q 543 85 549 85 q 536 74 536 85 l 536 -249 l 419 -249 l 419 647 m 536 279 q 598 151 547 204 q 717 97 649 97 q 858 159 808 97 q 908 329 908 221 q 858 499 908 438 q 717 561 808 561 q 597 508 646 561 q 536 383 549 456 l 536 279 z "},"ｑ":{"ha":1389,"x_min":364,"x_max":969,"o":"m 853 72 q 846 83 853 83 q 836 78 840 83 q 651 -1 768 -1 q 439 90 514 -1 q 364 328 364 182 q 439 565 364 474 q 651 657 514 657 q 838 578 765 657 q 846 572 842 572 q 853 585 851 572 l 858 646 l 969 646 l 969 -250 l 853 -250 l 853 72 m 481 328 q 531 158 481 219 q 672 96 581 96 q 791 149 740 96 q 853 278 842 203 l 853 382 q 792 507 840 454 q 672 560 743 560 q 531 498 581 560 q 481 328 481 436 z "},"ｒ":{"ha":1389,"x_min":496,"x_max":944,"o":"m 496 647 l 607 647 l 613 576 q 619 565 614 567 q 629 571 624 564 q 806 658 704 658 q 883 651 853 658 q 944 622 914 643 l 897 529 q 794 561 854 561 q 703 531 744 561 q 637 445 661 501 q 613 313 613 389 l 613 11 l 496 11 l 496 647 z "},"ｓ":{"ha":1389,"x_min":413,"x_max":957,"o":"m 688 -3 q 526 27 601 -3 q 413 118 450 57 l 499 189 q 576 119 526 143 q 692 94 625 94 q 800 122 760 94 q 840 190 840 149 q 806 256 840 231 q 689 290 772 282 q 440 476 440 318 q 469 568 440 526 q 553 635 497 610 q 689 661 610 661 q 836 637 775 661 q 928 569 897 613 l 853 496 q 789 544 831 525 q 686 564 747 564 q 591 538 625 564 q 557 475 557 513 q 592 415 557 435 q 710 386 626 396 q 899 322 842 371 q 957 186 957 272 q 889 51 957 106 q 688 -3 821 -3 z "},"ｔ":{"ha":1389,"x_min":378,"x_max":956,"o":"m 757 0 q 605 50 668 0 q 542 206 542 100 l 542 526 q 528 540 542 540 l 378 540 l 378 635 l 528 635 q 542 650 542 635 l 542 838 l 658 838 l 658 650 q 672 635 658 635 l 889 635 l 889 540 l 672 540 q 658 526 658 540 l 658 207 q 688 122 658 149 q 764 94 717 94 q 826 113 797 94 q 868 167 856 132 l 956 113 q 881 29 931 58 q 757 0 831 0 z "},"ｕ":{"ha":1389,"x_min":410,"x_max":979,"o":"m 663 0 q 475 76 540 0 q 410 325 410 153 l 410 647 l 526 647 l 526 313 q 563 144 526 192 q 674 97 600 97 q 765 127 722 97 q 835 213 808 157 q 863 340 863 268 l 863 647 l 979 647 l 979 11 l 868 11 l 863 88 q 856 99 861 97 q 846 93 851 100 q 763 25 810 50 q 663 0 717 0 z "},"ｖ":{"ha":1389,"x_min":394,"x_max":994,"o":"m 394 629 l 504 657 l 685 167 q 696 157 690 157 q 706 167 703 157 l 885 657 l 994 629 l 753 14 l 636 14 l 394 629 z "},"ｗ":{"ha":1389,"x_min":292,"x_max":1097,"o":"m 292 638 l 403 656 l 506 186 q 511 176 508 176 q 517 186 514 176 l 642 624 l 749 624 l 874 186 q 885 186 881 167 l 986 656 l 1097 638 l 936 14 l 826 14 l 699 465 q 690 465 694 481 l 563 14 l 453 14 l 292 638 z "},"ｘ":{"ha":1389,"x_min":397,"x_max":992,"o":"m 397 61 l 622 329 q 628 340 628 335 q 622 351 628 346 l 414 604 l 506 657 l 685 435 q 696 428 692 428 q 706 435 699 428 l 883 657 l 975 604 l 767 351 q 761 340 761 343 q 767 329 761 338 l 992 61 l 903 3 l 706 244 q 696 251 701 251 q 685 244 692 251 l 486 3 l 397 61 z "},"ｙ":{"ha":1389,"x_min":374,"x_max":974,"o":"m 472 -260 q 404 -256 432 -260 l 404 -157 q 456 -162 431 -162 q 524 -144 492 -162 q 574 -83 557 -125 l 615 18 q 615 38 621 28 l 374 629 l 483 657 l 668 181 q 679 171 674 171 q 689 181 686 171 l 864 657 l 974 629 l 688 -100 q 605 -218 658 -176 q 472 -260 551 -260 z "},"ｚ":{"ha":1389,"x_min":431,"x_max":958,"o":"m 431 89 l 781 538 q 778 553 793 553 l 442 553 l 442 644 l 942 644 l 942 568 l 592 119 q 594 106 581 106 l 958 106 l 958 14 l 431 14 l 431 89 z "},"ⁿ":{"ha":590,"x_min":100,"x_max":490,"o":"m 100 938 l 201 938 l 203 904 q 208 897 203 899 q 215 899 213 896 q 311 944 257 944 q 440 892 390 944 q 490 735 490 840 l 490 510 l 382 510 l 382 742 q 363 831 382 808 q 306 854 344 854 q 235 819 263 854 q 207 717 207 783 l 207 510 l 100 510 l 100 938 z "},"ª":{"ha":588,"x_min":72,"x_max":488,"o":"m 256 501 q 122 565 172 501 q 72 724 72 628 q 122 883 72 819 q 256 946 171 946 q 327 931 294 946 q 376 896 360 915 q 381 894 379 893 q 383 897 383 894 l 385 938 l 488 938 l 488 508 l 385 508 l 382 550 q 376 553 382 557 q 327 517 360 532 q 256 501 294 501 m 179 724 q 283 592 179 592 q 345 616 318 592 q 379 675 372 640 l 379 768 q 344 828 374 801 q 283 856 315 856 q 179 724 179 856 z "},"º":{"ha":575,"x_min":72,"x_max":503,"o":"m 288 501 q 130 565 188 501 q 72 724 72 628 q 130 883 72 819 q 288 946 188 946 q 445 883 388 946 q 503 724 503 819 q 445 565 503 628 q 288 501 388 501 m 179 724 q 208 628 179 661 q 288 594 238 594 q 367 628 338 594 q 396 724 396 661 q 367 819 396 786 q 288 853 338 853 q 208 820 238 853 q 179 724 179 788 z "},"А":{"ha":833,"x_min":46,"x_max":788,"o":"m 46 31 l 357 904 l 476 904 l 788 31 l 678 1 l 589 263 q 565 279 583 279 l 269 279 q 246 263 251 279 l 157 1 l 46 31 m 293 397 q 292 389 292 394 q 310 374 292 374 l 525 374 q 540 380 536 374 q 542 397 544 386 l 426 738 q 418 749 422 749 q 408 738 413 749 l 293 397 z "},"Б":{"ha":819,"x_min":104,"x_max":761,"o":"m 206 14 q 133 42 161 14 q 104 115 104 69 l 104 904 l 664 904 l 664 806 l 244 806 q 229 800 235 806 q 224 785 224 794 l 224 535 q 229 519 224 525 q 244 514 235 514 l 424 514 q 678 444 594 514 q 761 253 761 374 q 690 79 761 144 q 465 14 618 14 l 206 14 m 224 133 q 229 118 224 124 q 244 113 235 113 l 439 113 q 594 153 546 113 q 642 265 642 194 q 593 376 642 333 q 444 418 544 418 l 244 418 q 229 413 235 418 q 224 397 224 407 l 224 133 z "},"В":{"ha":819,"x_min":104,"x_max":761,"o":"m 206 14 q 133 42 161 14 q 104 115 104 69 l 104 904 l 428 904 q 644 841 569 904 q 718 675 718 778 q 604 488 718 525 q 592 478 592 483 q 606 471 592 472 q 717 401 672 458 q 761 253 761 344 q 690 79 761 144 q 465 14 618 14 l 206 14 m 224 133 q 229 118 224 124 q 244 113 235 113 l 439 113 q 594 153 546 113 q 642 265 642 194 q 593 376 642 333 q 444 418 544 418 l 244 418 q 229 413 235 418 q 224 397 224 407 l 224 133 m 224 535 q 229 519 224 525 q 244 514 235 514 l 415 514 q 552 556 506 514 q 599 664 599 597 q 554 766 599 726 q 418 806 510 806 l 244 806 q 229 800 235 806 q 224 785 224 794 l 224 535 z "},"Г":{"ha":736,"x_min":104,"x_max":658,"o":"m 104 904 l 658 904 l 658 807 l 254 807 q 224 776 224 807 l 224 11 l 104 11 l 104 904 z "},"Д":{"ha":1006,"x_min":42,"x_max":936,"o":"m 42 75 l 128 75 q 215 349 186 196 q 243 651 243 503 l 243 904 l 833 904 l 833 75 l 936 75 l 936 -250 l 831 -250 l 831 -22 l 147 -22 l 147 -250 l 42 -250 l 42 75 m 264 106 q 258 85 258 93 q 263 76 258 78 q 281 75 268 75 l 683 75 q 714 106 714 75 l 714 776 q 683 807 714 807 l 392 807 q 361 776 361 807 l 361 631 q 333 363 361 508 q 264 106 306 218 z "},"Е":{"ha":743,"x_min":104,"x_max":678,"o":"m 221 14 q 133 42 161 14 q 104 129 104 69 l 104 904 l 660 904 l 660 807 l 254 807 q 224 776 224 807 l 224 549 q 254 518 224 518 l 640 518 l 640 424 l 254 424 q 224 393 224 424 l 224 157 q 235 123 224 135 q 269 111 247 111 l 678 111 l 678 14 l 221 14 z "},"Ё":{"ha":743,"x_min":104,"x_max":678,"o":"m 536 968 q 490 986 507 968 q 472 1032 472 1004 q 490 1079 472 1061 q 536 1097 507 1097 q 582 1079 565 1097 q 599 1032 599 1061 q 582 985 599 1003 q 536 968 565 968 m 104 904 l 660 904 l 660 807 l 254 807 q 224 776 224 807 l 224 549 q 254 518 224 518 l 640 518 l 640 424 l 254 424 q 224 393 224 424 l 224 157 q 235 123 224 135 q 269 111 247 111 l 678 111 l 678 14 l 221 14 q 133 42 161 14 q 104 129 104 69 l 104 904 m 186 1032 q 203 1079 186 1061 q 250 1097 221 1097 q 296 1079 279 1097 q 313 1032 313 1061 q 296 985 313 1003 q 250 968 279 968 q 203 986 221 968 q 186 1032 186 1004 z "},"Ж":{"ha":1165,"x_min":38,"x_max":1128,"o":"m 754 411 l 640 411 l 640 13 l 525 13 l 525 411 l 411 411 l 168 13 l 38 13 l 313 460 l 58 907 l 188 907 l 413 508 l 525 508 l 525 907 l 640 907 l 640 508 l 753 508 l 978 907 l 1107 907 l 853 460 l 1128 13 l 997 13 l 754 411 z "},"З":{"ha":756,"x_min":53,"x_max":697,"o":"m 375 0 q 53 156 161 0 l 143 221 q 241 129 182 161 q 378 97 300 97 q 519 136 460 97 q 578 265 578 175 q 528 376 578 333 q 375 418 479 418 l 217 418 l 217 514 l 346 514 q 488 556 440 514 q 535 664 535 597 q 484 781 535 742 q 354 821 433 821 q 168 700 222 821 l 78 753 q 183 872 114 826 q 357 918 251 918 q 513 888 446 918 q 617 802 581 857 q 654 675 654 747 q 624 555 654 603 q 540 488 593 507 q 528 478 528 483 q 542 471 528 472 q 653 401 608 458 q 697 253 697 344 q 611 67 697 133 q 375 0 525 0 z "},"И":{"ha":833,"x_min":104,"x_max":729,"o":"m 613 11 l 613 668 q 606 679 613 679 q 594 671 599 679 l 232 14 l 104 14 l 104 907 l 221 907 l 221 250 q 228 239 221 239 q 239 247 235 239 l 601 904 l 729 904 l 729 11 l 613 11 z "},"Й":{"ha":833,"x_min":104,"x_max":729,"o":"m 424 924 q 283 975 333 924 q 228 1110 233 1026 l 338 1110 q 363 1038 342 1065 q 424 1010 383 1010 q 485 1038 464 1010 q 511 1110 507 1065 l 619 1110 q 563 975 614 1026 q 424 924 513 924 m 104 907 l 221 907 l 221 250 q 228 239 221 239 q 239 247 235 239 l 601 904 l 729 904 l 729 11 l 613 11 l 613 668 q 606 679 613 679 q 594 671 599 679 l 232 14 l 104 14 l 104 907 z "},"К":{"ha":819,"x_min":104,"x_max":771,"o":"m 368 385 q 353 394 361 394 q 339 386 346 394 l 233 268 q 224 242 224 258 l 224 11 l 104 11 l 104 907 l 224 907 l 224 449 q 233 431 224 431 q 246 439 238 431 l 642 915 l 738 842 l 444 506 q 439 492 439 500 q 444 476 439 483 l 771 64 l 675 -4 l 368 385 z "},"Л":{"ha":935,"x_min":42,"x_max":831,"o":"m 711 776 q 681 807 711 807 l 375 807 q 344 776 344 807 l 344 292 q 42 -1 336 0 l 42 96 q 184 144 142 96 q 226 306 226 193 l 226 904 l 831 904 l 831 13 l 711 13 l 711 776 z "},"М":{"ha":1014,"x_min":104,"x_max":910,"o":"m 104 904 l 236 904 l 499 208 q 508 197 503 197 q 517 208 513 197 l 779 904 l 910 904 l 910 11 l 790 11 l 790 617 q 787 628 790 626 q 781 619 783 629 l 567 42 l 447 42 l 233 619 q 228 628 232 628 q 224 617 224 628 l 224 11 l 104 11 l 104 904 z "},"Н":{"ha":861,"x_min":104,"x_max":757,"o":"m 104 907 l 224 907 l 224 549 q 254 518 224 518 l 607 518 q 638 549 638 518 l 638 907 l 757 907 l 757 11 l 638 11 l 638 393 q 607 424 638 424 l 254 424 q 224 393 224 424 l 224 11 l 104 11 l 104 907 z "},"О":{"ha":940,"x_min":72,"x_max":868,"o":"m 471 0 q 257 60 347 0 q 119 224 167 119 q 72 460 72 329 q 119 694 72 590 q 257 858 167 799 q 471 918 347 918 q 684 858 594 918 q 821 694 774 799 q 868 460 868 590 q 821 224 868 329 q 684 60 774 119 q 471 0 594 0 m 192 460 q 227 268 192 350 q 326 142 263 186 q 471 97 389 97 q 615 142 553 97 q 713 268 678 186 q 749 460 749 350 q 713 650 749 568 q 615 776 678 732 q 471 821 553 821 q 326 776 389 821 q 227 650 263 732 q 192 460 192 568 z "},"П":{"ha":860,"x_min":104,"x_max":756,"o":"m 104 904 l 756 904 l 756 13 l 636 13 l 636 776 q 606 807 636 807 l 254 807 q 224 776 224 807 l 224 13 l 104 13 l 104 904 z "},"Р":{"ha":833,"x_min":104,"x_max":761,"o":"m 104 904 l 388 904 q 673 825 585 904 q 761 622 761 746 q 673 416 761 496 q 388 336 585 336 l 251 336 q 224 308 224 336 l 224 11 l 104 11 l 104 904 m 224 472 q 232 442 224 450 q 263 433 240 433 l 388 433 q 578 483 515 433 q 642 622 642 533 q 578 758 642 708 q 388 807 514 807 l 254 807 q 224 776 224 807 l 224 472 z "},"С":{"ha":833,"x_min":72,"x_max":790,"o":"m 471 0 q 257 60 347 0 q 119 224 167 119 q 72 460 72 329 q 119 694 72 590 q 257 858 167 799 q 471 918 347 918 q 623 890 556 918 q 749 803 690 863 l 671 722 q 471 821 592 821 q 326 776 389 821 q 227 650 263 732 q 192 460 192 568 q 227 268 192 350 q 326 142 263 186 q 471 97 389 97 q 603 129 544 97 q 700 221 663 161 l 790 156 q 658 40 738 81 q 471 0 578 0 z "},"Т":{"ha":778,"x_min":56,"x_max":722,"o":"m 331 776 q 300 807 331 807 l 56 807 l 56 904 l 722 904 l 722 807 l 481 807 q 450 776 450 807 l 450 11 l 331 11 l 331 776 z "},"У":{"ha":733,"x_min":53,"x_max":700,"o":"m 175 0 q 79 4 125 0 l 79 103 q 158 97 126 97 q 227 116 194 97 q 276 176 260 135 l 318 278 q 318 297 324 288 l 53 892 l 158 931 l 371 440 q 382 431 376 431 q 392 440 388 431 l 594 931 l 700 892 l 390 160 q 175 0 324 0 z "},"Ф":{"ha":1025,"x_min":72,"x_max":953,"o":"m 453 90 q 265 142 353 93 q 125 275 178 192 q 72 460 72 358 q 125 644 72 561 q 265 774 178 726 q 453 826 353 822 l 453 904 l 572 904 l 572 826 q 760 774 672 822 q 900 644 847 726 q 953 460 953 561 q 900 275 953 358 q 760 142 847 192 q 572 90 672 93 l 572 13 l 453 13 l 453 90 m 192 460 q 264 266 192 339 q 453 188 336 193 l 453 729 q 264 652 336 724 q 192 460 192 581 m 572 188 q 761 266 689 193 q 833 460 833 339 q 761 652 833 581 q 572 729 689 724 l 572 188 z "},"Х":{"ha":828,"x_min":49,"x_max":779,"o":"m 49 74 l 338 457 q 343 471 343 464 q 338 483 343 478 l 71 844 l 168 911 l 401 582 q 415 572 411 572 q 428 582 421 572 l 661 911 l 757 844 l 490 483 q 485 471 485 475 q 490 457 485 468 l 779 74 l 685 1 l 428 357 q 415 365 422 365 q 401 357 408 365 l 143 1 l 49 74 z "},"Ч":{"ha":769,"x_min":100,"x_max":669,"o":"m 553 336 q 546 347 553 347 q 536 342 540 347 q 360 260 461 260 q 171 335 242 260 q 100 571 100 411 l 100 907 l 217 907 l 217 558 q 371 357 217 357 q 501 422 449 357 q 553 600 553 486 l 553 907 l 669 907 l 669 11 l 553 11 l 553 336 z "},"Ц":{"ha":917,"x_min":104,"x_max":875,"o":"m 104 904 l 224 904 l 224 140 q 254 110 224 110 l 606 110 q 636 140 636 110 l 636 904 l 756 904 l 756 110 l 875 110 l 875 -250 l 756 -250 l 756 -18 q 725 13 756 13 l 104 13 l 104 904 z "},"Ш":{"ha":1174,"x_min":104,"x_max":1069,"o":"m 104 904 l 224 904 l 224 140 q 254 110 224 110 l 496 110 q 526 140 526 110 l 526 904 l 647 904 l 647 140 q 678 110 647 110 l 919 110 q 950 140 950 110 l 950 904 l 1069 904 l 1069 13 l 104 13 l 104 904 z "},"Щ":{"ha":1231,"x_min":104,"x_max":1189,"o":"m 104 904 l 224 904 l 224 140 q 254 110 224 110 l 496 110 q 526 140 526 110 l 526 904 l 647 904 l 647 140 q 678 110 647 110 l 919 110 q 950 140 950 110 l 950 904 l 1069 904 l 1069 110 l 1189 110 l 1189 -250 l 1069 -250 l 1069 -18 q 1039 13 1069 13 l 104 13 l 104 904 z "},"Ь":{"ha":819,"x_min":104,"x_max":761,"o":"m 206 14 q 133 42 161 14 q 104 115 104 69 l 104 904 l 224 904 l 224 535 q 229 519 224 525 q 244 514 235 514 l 424 514 q 678 444 594 514 q 761 253 761 374 q 690 79 761 144 q 465 14 618 14 l 206 14 m 224 133 q 229 118 224 124 q 244 113 235 113 l 439 113 q 594 153 546 113 q 642 265 642 194 q 593 376 642 333 q 444 418 544 418 l 244 418 q 229 413 235 418 q 224 397 224 407 l 224 133 z "},"Ы":{"ha":1065,"x_min":104,"x_max":961,"o":"m 206 14 q 133 42 161 14 q 104 115 104 69 l 104 904 l 224 904 l 224 535 q 229 519 224 525 q 244 514 235 514 l 424 514 q 678 444 594 514 q 761 253 761 374 q 690 79 761 144 q 465 14 618 14 l 206 14 m 224 133 q 229 118 224 124 q 244 113 235 113 l 439 113 q 594 153 546 113 q 642 265 642 194 q 593 376 642 333 q 444 418 544 418 l 244 418 q 229 413 235 418 q 224 397 224 407 l 224 133 m 844 904 l 961 904 l 961 11 l 844 11 l 844 904 z "},"Ъ":{"ha":936,"x_min":42,"x_max":864,"o":"m 308 14 q 235 42 264 14 q 207 115 207 69 l 207 778 q 200 801 207 794 q 176 808 193 808 l 42 808 l 42 904 l 326 904 l 326 535 q 332 519 326 525 q 347 514 338 514 l 526 514 q 781 444 697 514 q 864 253 864 374 q 792 79 864 144 q 568 14 721 14 l 308 14 m 326 133 q 332 118 326 124 q 347 113 338 113 l 542 113 q 697 153 649 113 q 744 265 744 194 q 696 376 744 333 q 547 418 647 418 l 347 418 q 332 413 338 418 q 326 397 326 407 l 326 133 z "},"Э":{"ha":833,"x_min":43,"x_max":761,"o":"m 363 0 q 176 40 256 0 q 43 156 96 81 l 133 221 q 230 129 171 161 q 363 97 289 97 q 544 174 471 97 q 636 382 618 250 q 638 400 638 389 q 634 410 638 407 q 619 413 631 413 l 158 413 l 158 508 l 619 508 q 634 511 631 508 q 638 521 638 514 q 636 539 638 532 q 544 745 618 669 q 363 821 471 821 q 163 722 242 821 l 85 803 q 210 890 143 863 q 363 918 278 918 q 576 858 486 918 q 714 694 667 799 q 761 460 761 590 q 714 224 761 329 q 576 60 667 119 q 363 0 486 0 z "},"Ю":{"ha":1232,"x_min":108,"x_max":1160,"o":"m 108 907 l 228 907 l 228 539 q 235 515 228 522 q 258 508 242 508 l 344 508 q 361 514 357 508 q 368 532 365 519 q 431 732 381 644 q 565 869 481 819 q 763 918 650 918 q 976 858 886 918 q 1113 694 1065 799 q 1160 460 1160 590 q 1113 224 1160 329 q 976 60 1065 119 q 763 0 886 0 q 565 50 650 0 q 429 189 479 100 q 367 392 379 278 q 361 408 365 403 q 344 413 357 413 l 258 413 q 235 406 242 413 q 228 382 228 399 l 228 11 l 108 11 l 108 907 m 483 460 q 519 268 483 350 q 617 142 554 186 q 763 97 681 97 q 907 142 844 97 q 1005 268 969 186 q 1040 460 1040 350 q 1005 650 1040 568 q 907 776 969 732 q 763 821 844 821 q 617 776 681 821 q 519 650 554 732 q 483 460 483 568 z "},"Я":{"ha":833,"x_min":72,"x_max":729,"o":"m 174 -7 l 72 46 l 272 361 q 279 376 279 371 q 261 389 279 383 q 124 483 167 415 q 82 636 82 550 q 165 827 82 750 q 435 904 249 904 l 729 904 l 729 11 l 610 11 l 610 336 q 582 364 610 364 l 429 364 q 404 361 413 364 q 390 349 396 358 l 174 -7 m 201 636 q 260 509 201 557 q 435 461 319 461 l 571 461 q 601 469 593 461 q 610 500 610 478 l 610 776 q 579 807 610 807 l 435 807 q 260 760 319 807 q 201 636 201 713 z "},"а":{"ha":778,"x_min":72,"x_max":678,"o":"m 360 0 q 147 92 222 0 q 72 329 72 183 q 147 567 72 475 q 360 658 222 658 q 544 579 476 658 q 554 574 549 574 q 561 585 558 574 l 567 647 l 678 647 l 678 11 l 567 11 l 561 72 q 556 84 560 82 q 546 79 551 86 q 360 0 474 0 m 189 329 q 239 159 189 221 q 381 97 289 97 q 500 150 451 97 q 561 275 549 203 l 561 379 q 499 508 550 454 q 381 561 449 561 q 239 499 289 561 q 189 329 189 438 z "},"б":{"ha":778,"x_min":72,"x_max":706,"o":"m 389 0 q 219 43 290 0 q 110 163 147 86 q 72 338 72 239 q 117 672 72 549 q 244 844 163 794 q 450 894 326 894 q 571 897 532 894 q 643 918 610 900 l 681 828 q 577 802 629 807 q 436 797 525 797 q 297 751 347 797 q 214 593 246 706 q 297 644 256 629 q 389 658 339 658 q 559 615 488 658 q 668 498 631 572 q 706 329 706 424 q 668 160 706 235 q 559 43 631 86 q 389 0 488 0 m 189 329 q 244 160 189 222 q 389 97 299 97 q 533 160 478 97 q 589 329 589 224 q 533 499 589 436 q 389 561 478 561 q 244 499 299 561 q 189 329 189 436 z "},"в":{"ha":664,"x_min":104,"x_max":606,"o":"m 179 13 q 123 29 142 13 q 104 83 104 46 l 104 647 l 351 647 q 517 601 458 647 q 575 478 575 554 q 549 397 575 431 q 479 350 522 364 q 476 346 476 349 q 479 342 476 343 q 569 287 532 326 q 606 190 606 247 q 550 61 606 110 q 378 13 494 13 l 179 13 m 219 125 q 223 112 219 115 q 236 108 226 108 l 360 108 q 460 131 431 108 q 490 200 490 154 q 460 267 490 244 q 364 289 431 289 l 236 289 q 223 286 226 289 q 219 272 219 283 l 219 125 m 219 399 q 223 385 219 389 q 236 382 226 382 l 343 382 q 460 469 460 382 q 433 531 460 510 q 344 551 406 551 l 236 551 q 223 549 226 551 q 219 535 219 546 l 219 399 z "},"г":{"ha":589,"x_min":104,"x_max":547,"o":"m 104 647 l 547 647 l 547 550 l 254 550 q 229 544 235 550 q 224 519 224 539 l 224 11 l 104 11 l 104 647 z "},"д":{"ha":853,"x_min":42,"x_max":811,"o":"m 42 75 l 128 75 q 203 267 176 158 q 229 492 229 375 l 229 647 l 708 647 l 708 75 l 811 75 l 811 -236 l 706 -236 l 706 -22 l 147 -22 l 147 -236 l 42 -236 l 42 75 m 265 99 q 258 82 258 85 q 276 75 258 75 l 558 75 q 583 81 578 75 q 589 106 589 86 l 589 519 q 583 544 589 539 q 558 550 578 550 l 378 550 q 353 544 358 550 q 347 519 347 539 l 347 471 q 324 265 347 367 q 265 99 301 163 z "},"е":{"ha":740,"x_min":72,"x_max":675,"o":"m 389 0 q 216 43 288 0 q 108 160 144 86 q 72 329 72 235 q 108 498 72 424 q 215 615 144 572 q 385 658 286 658 q 586 578 507 658 q 675 361 665 499 q 613 285 675 285 l 207 285 q 197 281 200 285 q 194 269 193 276 q 258 142 207 188 q 388 97 308 97 q 492 120 444 97 q 567 183 540 143 l 651 114 q 543 30 610 60 q 389 0 476 0 m 194 389 q 207 376 194 376 l 549 376 q 560 381 556 376 q 563 392 564 385 q 504 512 551 463 q 383 561 457 561 q 260 517 310 561 q 194 392 210 472 l 194 389 z "},"ё":{"ha":740,"x_min":72,"x_max":675,"o":"m 546 746 q 499 764 517 746 q 482 810 482 782 q 499 857 482 839 q 546 875 517 875 q 591 856 574 875 q 608 810 608 838 q 591 764 608 782 q 546 746 574 746 m 72 329 q 108 498 72 424 q 215 615 144 572 q 385 658 286 658 q 586 578 507 658 q 675 361 665 499 q 613 285 675 285 l 207 285 q 197 281 200 285 q 194 269 193 276 q 258 142 207 188 q 388 97 308 97 q 492 120 444 97 q 567 183 540 143 l 651 114 q 543 30 610 60 q 389 0 476 0 q 216 43 288 0 q 108 160 144 86 q 72 329 72 235 m 168 810 q 185 857 168 839 q 232 875 203 875 q 277 856 260 875 q 294 810 294 838 q 277 764 294 782 q 232 746 260 746 q 185 764 203 746 q 168 810 168 782 m 194 389 q 207 376 194 376 l 549 376 q 560 381 556 376 q 563 392 564 385 q 504 512 551 463 q 383 561 457 561 q 260 517 310 561 q 194 392 210 472 l 194 389 z "},"ж":{"ha":943,"x_min":38,"x_max":906,"o":"m 617 281 l 529 281 l 529 13 l 414 13 l 414 281 l 326 281 l 165 13 l 38 13 l 231 331 l 58 647 l 185 647 l 326 378 l 414 378 l 414 647 l 529 647 l 529 378 l 617 378 l 758 647 l 885 647 l 713 331 l 906 13 l 778 13 l 617 281 z "},"з":{"ha":606,"x_min":53,"x_max":547,"o":"m 301 -10 q 53 113 138 -10 l 139 175 q 206 107 165 129 q 303 85 246 85 q 433 190 433 85 q 301 288 433 288 l 175 288 l 175 381 l 281 381 q 401 476 401 381 q 371 551 401 529 q 286 574 340 574 q 206 551 236 574 q 160 485 176 528 l 71 538 q 153 631 99 594 q 289 668 207 668 q 452 617 389 668 q 515 485 515 565 q 489 397 515 432 q 422 347 463 363 q 422 340 413 343 q 510 290 472 331 q 547 181 547 249 q 512 80 547 124 q 419 13 476 36 q 301 -10 363 -10 z "},"и":{"ha":722,"x_min":104,"x_max":618,"o":"m 501 464 q 496 475 501 475 q 488 467 492 475 l 246 14 l 104 14 l 104 647 l 221 647 l 221 194 q 226 183 221 183 q 235 192 231 183 l 476 644 l 618 644 l 618 11 l 501 11 l 501 464 z "},"й":{"ha":722,"x_min":104,"x_max":618,"o":"m 501 464 q 496 475 501 475 q 488 467 492 475 l 246 14 l 104 14 l 104 647 l 221 647 l 221 194 q 226 183 221 183 q 235 192 231 183 l 476 644 l 618 644 l 618 11 l 501 11 l 501 464 m 283 888 q 308 815 288 843 q 369 788 329 788 q 431 815 410 788 q 457 888 453 843 l 565 888 q 509 753 560 804 q 369 701 458 701 q 229 753 279 701 q 174 888 179 804 l 283 888 z "},"к":{"ha":732,"x_min":100,"x_max":694,"o":"m 350 275 q 331 276 340 286 l 224 176 q 217 160 217 169 l 217 11 l 100 11 l 100 647 l 217 647 l 217 342 q 222 331 217 333 q 233 335 228 329 l 571 664 l 661 588 l 433 374 q 429 364 429 369 q 433 354 429 361 l 694 64 l 604 -7 l 350 275 z "},"л":{"ha":796,"x_min":42,"x_max":692,"o":"m 572 519 q 567 544 572 539 q 542 550 561 550 l 375 550 q 350 544 356 550 q 344 519 344 539 l 344 292 q 42 -1 336 0 l 42 96 q 184 144 142 96 q 226 306 226 193 l 226 647 l 692 647 l 692 13 l 572 13 l 572 519 z "},"м":{"ha":847,"x_min":104,"x_max":743,"o":"m 104 647 l 257 647 l 419 153 q 425 147 422 147 q 429 153 428 147 l 592 647 l 743 647 l 743 11 l 624 11 l 624 401 q 620 412 624 411 q 614 404 617 413 l 490 42 l 357 42 l 233 404 q 227 412 231 413 q 224 401 224 411 l 224 11 l 104 11 l 104 647 z "},"н":{"ha":736,"x_min":104,"x_max":632,"o":"m 104 647 l 224 647 l 224 407 q 254 376 224 376 l 482 376 q 513 407 513 376 l 513 647 l 632 647 l 632 11 l 513 11 l 513 251 q 482 282 513 282 l 254 282 q 224 251 224 282 l 224 11 l 104 11 l 104 647 z "},"о":{"ha":778,"x_min":72,"x_max":706,"o":"m 389 0 q 219 43 290 0 q 110 160 147 86 q 72 329 72 235 q 110 498 72 424 q 219 615 147 572 q 389 658 290 658 q 559 615 488 658 q 668 498 631 572 q 706 329 706 424 q 668 160 706 235 q 559 43 631 86 q 389 0 488 0 m 189 329 q 244 160 189 222 q 389 97 299 97 q 533 160 478 97 q 589 329 589 224 q 533 499 589 436 q 389 561 478 561 q 244 499 299 561 q 189 329 189 436 z "},"п":{"ha":736,"x_min":104,"x_max":632,"o":"m 104 647 l 632 647 l 632 13 l 513 13 l 513 519 q 507 544 513 539 q 482 550 501 550 l 254 550 q 229 544 235 550 q 224 519 224 539 l 224 13 l 104 13 l 104 647 z "},"р":{"ha":778,"x_min":100,"x_max":706,"o":"m 100 647 l 211 647 l 217 586 q 222 574 218 576 q 232 579 226 572 q 418 658 304 658 q 631 567 556 658 q 706 329 706 475 q 631 92 706 183 q 418 0 556 0 q 233 79 301 0 q 224 85 229 85 q 217 74 217 85 l 217 -249 l 100 -249 l 100 647 m 217 279 q 278 151 228 204 q 397 97 329 97 q 539 159 489 97 q 589 329 589 221 q 539 499 589 438 q 397 561 489 561 q 278 508 326 561 q 217 383 229 456 l 217 279 z "},"с":{"ha":692,"x_min":72,"x_max":654,"o":"m 396 0 q 221 43 294 0 q 110 160 147 86 q 72 329 72 235 q 110 498 72 424 q 221 615 147 572 q 396 658 294 658 q 523 636 468 658 q 624 569 578 614 l 543 496 q 394 561 486 561 q 245 499 301 561 q 189 329 189 436 q 245 160 189 222 q 394 97 301 97 q 493 120 450 97 q 563 186 536 143 l 654 119 q 396 0 567 0 z "},"т":{"ha":667,"x_min":56,"x_max":611,"o":"m 275 519 q 269 544 275 539 q 244 550 264 550 l 56 550 l 56 647 l 611 647 l 611 550 l 425 550 q 400 544 406 550 q 394 519 394 539 l 394 11 l 275 11 l 275 519 z "},"у":{"ha":667,"x_min":33,"x_max":633,"o":"m 132 -260 q 64 -256 92 -260 l 64 -157 q 115 -162 90 -162 q 184 -144 151 -162 q 233 -83 217 -125 l 275 18 q 275 38 281 28 l 33 629 l 143 657 l 328 181 q 339 171 333 171 q 349 181 346 171 l 524 657 l 633 629 l 347 -100 q 265 -218 318 -176 q 132 -260 211 -260 z "},"ф":{"ha":969,"x_min":72,"x_max":897,"o":"m 425 0 q 250 47 331 4 q 121 163 169 89 q 72 331 72 236 q 121 498 72 425 q 250 613 169 571 q 425 658 331 654 l 425 904 l 544 904 l 544 658 q 719 613 639 654 q 849 498 800 571 q 897 331 897 425 q 849 163 897 236 q 719 47 800 89 q 544 0 639 4 l 544 -250 l 425 -250 l 425 0 m 192 331 q 254 162 192 221 q 425 97 317 103 l 425 561 q 254 497 317 556 q 192 331 192 439 m 544 97 q 715 162 653 103 q 778 331 778 221 q 715 497 778 439 q 544 561 653 556 l 544 97 z "},"х":{"ha":661,"x_min":33,"x_max":628,"o":"m 33 61 l 258 329 q 264 340 264 335 q 258 351 264 346 l 50 604 l 142 657 l 321 435 q 332 428 328 428 q 342 435 335 428 l 519 657 l 611 604 l 403 351 q 397 340 397 343 q 403 329 397 338 l 628 61 l 539 3 l 342 244 q 332 251 338 251 q 321 244 328 251 l 122 3 l 33 61 z "},"ч":{"ha":714,"x_min":100,"x_max":614,"o":"m 497 251 q 488 257 497 272 q 332 179 433 179 q 160 244 221 179 q 100 435 100 308 l 100 646 l 217 646 l 217 422 q 248 312 217 347 q 343 276 279 276 q 457 326 417 276 q 497 464 497 376 l 497 646 l 614 646 l 614 13 l 497 13 l 497 251 z "},"ц":{"ha":793,"x_min":104,"x_max":751,"o":"m 104 647 l 224 647 l 224 140 q 229 115 224 121 q 254 110 235 110 l 482 110 q 507 115 501 110 q 513 140 513 121 l 513 647 l 632 647 l 632 110 l 751 110 l 751 -250 l 632 -250 l 632 -18 q 626 7 632 1 q 601 13 621 13 l 104 13 l 104 647 z "},"ш":{"ha":1007,"x_min":104,"x_max":903,"o":"m 104 647 l 224 647 l 224 140 q 229 115 224 121 q 254 110 235 110 l 413 110 q 438 115 432 110 q 443 140 443 121 l 443 647 l 564 647 l 564 140 q 569 115 564 121 q 594 110 575 110 l 753 110 q 778 115 772 110 q 783 140 783 121 l 783 647 l 903 647 l 903 13 l 104 13 l 104 647 z "},"щ":{"ha":1064,"x_min":104,"x_max":1022,"o":"m 104 647 l 224 647 l 224 140 q 229 115 224 121 q 254 110 235 110 l 413 110 q 438 115 432 110 q 443 140 443 121 l 443 647 l 564 647 l 564 140 q 569 115 564 121 q 594 110 575 110 l 753 110 q 778 115 772 110 q 783 140 783 121 l 783 647 l 903 647 l 903 110 l 1022 110 l 1022 -250 l 903 -250 l 903 -18 q 897 7 903 1 q 872 13 892 13 l 104 13 l 104 647 z "},"ь":{"ha":674,"x_min":100,"x_max":601,"o":"m 175 13 q 119 29 138 13 q 100 83 100 46 l 100 647 l 215 647 l 215 388 l 360 388 q 540 337 479 388 q 601 200 601 286 q 547 63 601 113 q 374 13 492 13 l 175 13 m 215 125 q 219 112 215 115 q 232 108 222 108 l 356 108 q 456 131 426 108 q 486 200 486 154 q 456 269 486 246 q 356 292 426 292 l 215 292 l 215 125 z "},"ы":{"ha":903,"x_min":100,"x_max":794,"o":"m 175 13 q 119 29 138 13 q 100 83 100 46 l 100 647 l 215 647 l 215 388 l 360 388 q 540 337 479 388 q 601 200 601 286 q 547 63 601 113 q 374 13 492 13 l 175 13 m 215 125 q 219 112 215 115 q 232 108 222 108 l 356 108 q 456 131 426 108 q 486 200 486 154 q 456 269 486 246 q 356 292 426 292 l 215 292 l 215 125 m 678 647 l 794 647 l 794 11 l 678 11 l 678 647 z "},"ъ":{"ha":738,"x_min":42,"x_max":665,"o":"m 239 13 q 183 29 201 13 q 164 83 164 46 l 164 519 q 158 544 164 539 q 133 550 153 550 l 42 550 l 42 647 l 279 647 l 279 388 l 424 388 q 604 337 543 388 q 665 200 665 286 q 610 63 665 113 q 438 13 556 13 l 239 13 m 279 125 q 283 112 279 115 q 296 108 286 108 l 419 108 q 520 131 490 108 q 550 200 550 154 q 520 269 550 246 q 419 292 490 292 l 279 292 l 279 125 z "},"э":{"ha":678,"x_min":38,"x_max":606,"o":"m 282 0 q 132 28 194 0 q 38 106 69 57 l 125 168 q 188 117 146 136 q 283 97 231 97 q 409 138 357 97 q 479 251 461 179 q 481 269 481 258 q 477 279 481 276 q 463 282 474 282 l 154 282 l 154 378 l 463 378 q 477 381 474 378 q 481 390 481 383 q 479 408 481 401 q 409 521 461 481 q 283 561 357 561 q 205 549 242 561 q 144 514 168 536 l 68 583 q 282 658 146 658 q 457 615 383 658 q 568 498 531 572 q 606 329 606 424 q 568 160 606 235 q 457 43 531 86 q 282 0 383 0 z "},"ю":{"ha":1042,"x_min":108,"x_max":969,"o":"m 653 0 q 440 74 522 0 q 340 267 358 147 q 333 278 338 275 q 319 281 329 281 l 258 281 q 235 274 242 281 q 228 250 228 267 l 228 11 l 108 11 l 108 647 l 228 647 l 228 407 q 235 383 228 390 q 258 376 242 376 l 319 376 q 340 389 336 376 q 439 584 357 510 q 653 658 521 658 q 823 615 751 658 q 932 498 894 572 q 969 329 969 424 q 932 160 969 235 q 823 43 894 86 q 653 0 751 0 m 453 329 q 508 160 453 222 q 653 97 563 97 q 797 160 742 97 q 853 329 853 224 q 797 499 853 436 q 653 561 742 561 q 508 499 563 561 q 453 329 453 436 z "},"я":{"ha":664,"x_min":72,"x_max":560,"o":"m 72 44 l 210 261 q 207 272 217 269 q 115 340 144 290 q 85 450 85 389 q 147 590 85 533 q 342 647 208 647 l 560 647 l 560 13 l 443 13 l 443 247 q 438 253 443 253 l 339 253 q 328 247 331 253 l 172 -6 l 72 44 m 201 450 q 235 374 201 401 q 342 347 269 347 l 429 347 q 443 361 443 347 l 443 539 q 429 553 443 553 l 342 553 q 235 525 269 553 q 201 450 201 497 z "},"Α":{"ha":833,"x_min":46,"x_max":788,"o":"m 46 31 l 357 904 l 476 904 l 788 31 l 678 1 l 589 263 q 565 279 583 279 l 269 279 q 246 263 251 279 l 157 1 l 46 31 m 293 397 q 292 389 292 394 q 310 374 292 374 l 525 374 q 540 380 536 374 q 542 397 544 386 l 426 738 q 418 749 422 749 q 408 738 413 749 l 293 397 z "},"Β":{"ha":819,"x_min":104,"x_max":761,"o":"m 206 14 q 133 42 161 14 q 104 115 104 69 l 104 904 l 428 904 q 644 841 569 904 q 718 675 718 778 q 604 488 718 525 q 592 478 592 483 q 606 471 592 472 q 717 401 672 458 q 761 253 761 344 q 690 79 761 144 q 465 14 618 14 l 206 14 m 224 133 q 229 118 224 124 q 244 113 235 113 l 439 113 q 594 153 546 113 q 642 265 642 194 q 593 376 642 333 q 444 418 544 418 l 244 418 q 229 413 235 418 q 224 397 224 407 l 224 133 m 224 535 q 229 519 224 525 q 244 514 235 514 l 415 514 q 552 556 506 514 q 599 664 599 597 q 554 766 599 726 q 418 806 510 806 l 244 806 q 229 800 235 806 q 224 785 224 794 l 224 535 z "},"Γ":{"ha":700,"x_min":104,"x_max":658,"o":"m 104 904 l 658 904 l 658 807 l 254 807 q 224 776 224 807 l 224 11 l 104 11 l 104 904 z "},"Δ":{"ha":785,"x_min":46,"x_max":739,"o":"m 46 107 l 332 904 l 451 904 l 739 107 l 739 13 l 46 13 l 46 107 m 617 107 l 403 735 q 393 749 399 749 q 382 733 388 749 l 168 107 l 617 107 z "},"Ε":{"ha":743,"x_min":104,"x_max":678,"o":"m 221 14 q 133 42 161 14 q 104 129 104 69 l 104 904 l 660 904 l 660 807 l 254 807 q 224 776 224 807 l 224 549 q 254 518 224 518 l 640 518 l 640 424 l 254 424 q 224 393 224 424 l 224 157 q 235 123 224 135 q 269 111 247 111 l 678 111 l 678 14 l 221 14 z "},"Ζ":{"ha":750,"x_min":78,"x_max":694,"o":"m 78 108 l 521 789 q 528 803 528 800 q 518 807 528 807 l 90 807 l 90 904 l 674 904 l 674 810 l 231 129 q 224 115 224 119 q 233 111 224 111 l 694 111 l 694 14 l 78 14 l 78 108 z "},"Η":{"ha":861,"x_min":104,"x_max":757,"o":"m 104 907 l 224 907 l 224 549 q 254 518 224 518 l 607 518 q 638 549 638 518 l 638 907 l 757 907 l 757 11 l 638 11 l 638 393 q 607 424 638 424 l 254 424 q 224 393 224 424 l 224 11 l 104 11 l 104 907 z "},"Θ":{"ha":940,"x_min":72,"x_max":868,"o":"m 254 508 l 686 508 l 686 411 l 254 411 l 254 508 m 72 460 q 119 694 72 590 q 257 858 167 799 q 471 918 347 918 q 684 858 594 918 q 821 694 774 799 q 868 460 868 590 q 821 224 868 329 q 684 60 774 119 q 471 0 594 0 q 257 60 347 0 q 119 224 167 119 q 72 460 72 329 m 192 460 q 227 268 192 350 q 326 142 263 186 q 471 97 389 97 q 615 142 553 97 q 713 268 678 186 q 749 460 749 350 q 713 650 749 568 q 615 776 678 732 q 471 821 553 821 q 326 776 389 821 q 227 650 263 732 q 192 460 192 568 z "},"Ι":{"ha":336,"x_min":108,"x_max":228,"o":"m 108 907 l 228 907 l 228 11 l 108 11 l 108 907 z "},"Κ":{"ha":819,"x_min":104,"x_max":771,"o":"m 368 385 q 353 394 361 394 q 339 386 346 394 l 233 268 q 224 242 224 258 l 224 11 l 104 11 l 104 907 l 224 907 l 224 449 q 233 431 224 431 q 246 439 238 431 l 642 915 l 738 842 l 444 506 q 439 492 439 500 q 444 476 439 483 l 771 64 l 675 -4 l 368 385 z "},"Λ":{"ha":833,"x_min":46,"x_max":788,"o":"m 46 31 l 357 904 l 476 904 l 788 31 l 678 1 l 426 738 q 418 749 422 749 q 408 738 413 749 l 157 1 l 46 31 z "},"Μ":{"ha":1014,"x_min":104,"x_max":910,"o":"m 104 904 l 236 904 l 499 208 q 508 197 503 197 q 517 208 513 197 l 779 904 l 910 904 l 910 11 l 790 11 l 790 617 q 787 628 790 626 q 781 619 783 629 l 567 42 l 447 42 l 233 619 q 228 628 232 628 q 224 617 224 628 l 224 11 l 104 11 l 104 904 z "},"Ν":{"ha":833,"x_min":104,"x_max":729,"o":"m 104 904 l 232 904 l 594 247 q 606 239 599 239 q 613 250 613 239 l 613 907 l 729 907 l 729 14 l 601 14 l 239 671 q 228 679 235 679 q 221 668 221 679 l 221 11 l 104 11 l 104 904 z "},"Ξ":{"ha":793,"x_min":42,"x_max":751,"o":"m 42 110 l 751 110 l 751 13 l 42 13 l 42 110 m 64 904 l 729 904 l 729 807 l 64 807 l 64 904 m 113 507 l 681 507 l 681 410 l 113 410 l 113 507 z "},"Ο":{"ha":940,"x_min":72,"x_max":868,"o":"m 471 0 q 257 60 347 0 q 119 224 167 119 q 72 460 72 329 q 119 694 72 590 q 257 858 167 799 q 471 918 347 918 q 684 858 594 918 q 821 694 774 799 q 868 460 868 590 q 821 224 868 329 q 684 60 774 119 q 471 0 594 0 m 192 460 q 227 268 192 350 q 326 142 263 186 q 471 97 389 97 q 615 142 553 97 q 713 268 678 186 q 749 460 749 350 q 713 650 749 568 q 615 776 678 732 q 471 821 553 821 q 326 776 389 821 q 227 650 263 732 q 192 460 192 568 z "},"Π":{"ha":860,"x_min":104,"x_max":756,"o":"m 104 904 l 756 904 l 756 13 l 636 13 l 636 776 q 606 807 636 807 l 254 807 q 224 776 224 807 l 224 13 l 104 13 l 104 904 z "},"Ρ":{"ha":833,"x_min":104,"x_max":761,"o":"m 104 904 l 388 904 q 673 825 585 904 q 761 622 761 746 q 673 416 761 496 q 388 336 585 336 l 251 336 q 224 308 224 336 l 224 11 l 104 11 l 104 904 m 224 472 q 232 442 224 450 q 263 433 240 433 l 388 433 q 578 483 515 433 q 642 622 642 533 q 578 758 642 708 q 388 807 514 807 l 254 807 q 224 776 224 807 l 224 472 z "},"Σ":{"ha":750,"x_min":78,"x_max":694,"o":"m 78 100 l 383 460 l 78 818 l 78 904 l 660 904 l 660 815 l 228 815 l 524 463 l 524 454 l 229 101 l 694 101 l 694 13 l 78 13 l 78 100 z "},"Τ":{"ha":778,"x_min":56,"x_max":722,"o":"m 331 776 q 300 807 331 807 l 56 807 l 56 904 l 722 904 l 722 807 l 481 807 q 450 776 450 807 l 450 11 l 331 11 l 331 776 z "},"Υ":{"ha":806,"x_min":46,"x_max":760,"o":"m 343 356 q 336 382 343 369 l 46 865 l 150 915 l 390 503 q 404 493 396 493 q 417 503 411 493 l 657 915 l 760 865 l 469 382 q 463 356 463 369 l 463 11 l 343 11 l 343 356 z "},"Φ":{"ha":1025,"x_min":72,"x_max":953,"o":"m 453 90 q 265 142 353 93 q 125 275 178 192 q 72 460 72 358 q 125 644 72 561 q 265 774 178 726 q 453 826 353 822 l 453 904 l 572 904 l 572 826 q 760 774 672 822 q 900 644 847 726 q 953 460 953 561 q 900 275 953 358 q 760 142 847 192 q 572 90 672 93 l 572 13 l 453 13 l 453 90 m 192 460 q 264 266 192 339 q 453 188 336 193 l 453 729 q 264 652 336 724 q 192 460 192 581 m 572 188 q 761 266 689 193 q 833 460 833 339 q 761 652 833 581 q 572 729 689 724 l 572 188 z "},"Χ":{"ha":828,"x_min":49,"x_max":779,"o":"m 49 74 l 338 457 q 343 471 343 464 q 338 483 343 478 l 71 844 l 168 911 l 401 582 q 415 572 411 572 q 428 582 421 572 l 661 911 l 757 844 l 490 483 q 485 471 485 475 q 490 457 485 468 l 779 74 l 685 1 l 428 357 q 415 365 422 365 q 401 357 408 365 l 143 1 l 49 74 z "},"Ψ":{"ha":1004,"x_min":104,"x_max":900,"o":"m 443 229 q 195 338 286 232 q 104 626 104 444 l 104 904 l 222 904 l 222 629 q 273 413 222 493 q 428 326 324 333 q 439 331 435 326 q 443 342 443 336 l 443 904 l 561 904 l 561 342 q 566 331 561 336 q 576 326 571 326 q 731 415 681 335 q 782 629 782 494 l 782 904 l 900 904 l 900 626 q 859 419 900 508 q 742 281 818 331 q 561 229 665 232 l 561 -46 l 443 -46 l 443 229 z "},"Ω":{"ha":926,"x_min":65,"x_max":861,"o":"m 69 110 l 282 110 q 289 111 288 110 q 288 115 290 113 q 127 284 189 181 q 65 511 65 388 q 117 723 65 631 q 258 867 168 815 q 464 918 349 918 q 669 867 579 918 q 810 723 760 815 q 861 511 861 631 q 799 283 861 388 q 639 115 738 179 q 638 111 636 113 q 644 110 639 110 l 857 110 l 857 13 l 536 13 l 536 144 q 692 313 640 231 q 743 511 743 396 q 708 670 743 600 q 610 781 674 740 q 464 821 547 821 q 317 781 381 821 q 218 670 253 740 q 183 511 183 600 q 235 313 183 396 q 390 144 286 231 l 390 13 l 69 13 l 69 110 z "},"α":{"ha":810,"x_min":72,"x_max":740,"o":"m 343 0 q 201 42 263 0 q 106 160 140 85 q 72 331 72 235 q 106 500 72 425 q 201 617 140 575 q 343 658 263 658 q 476 618 425 658 q 564 503 526 578 q 572 490 571 490 q 579 508 575 490 l 607 647 l 721 647 l 644 331 l 740 13 l 624 13 l 585 160 q 578 175 581 175 q 569 164 575 175 q 480 44 533 88 q 343 0 426 0 m 189 331 q 231 160 189 222 q 343 97 274 97 q 449 156 408 97 q 528 331 489 215 q 449 503 489 444 q 343 561 408 561 q 232 499 275 561 q 189 331 189 438 z "},"β":{"ha":765,"x_min":104,"x_max":707,"o":"m 104 647 q 180 848 104 778 q 381 918 256 918 q 528 887 465 918 q 625 801 592 856 q 658 679 658 747 q 624 567 658 615 q 525 492 590 519 q 518 485 518 489 q 525 479 518 482 q 661 401 615 456 q 707 254 707 346 q 671 119 707 176 q 572 31 635 61 q 433 0 510 0 q 328 19 379 0 q 240 81 278 39 q 229 89 235 89 q 224 75 224 89 l 224 -250 l 104 -250 l 104 647 m 224 263 q 282 142 224 186 q 417 97 340 97 q 546 140 500 97 q 592 257 592 182 q 379 426 592 426 l 331 426 l 331 524 l 379 524 q 499 566 456 524 q 543 665 543 608 q 499 778 543 736 q 383 821 456 821 q 267 776 310 821 q 224 647 224 731 l 224 263 z "},"γ":{"ha":806,"x_min":46,"x_max":760,"o":"m 343 0 q 336 26 343 10 l 46 604 l 150 654 l 390 175 q 397 164 392 172 q 404 156 401 156 q 417 175 408 156 l 657 654 l 760 604 l 469 26 q 463 0 463 10 l 463 -250 l 343 -250 l 343 0 z "},"δ":{"ha":778,"x_min":72,"x_max":706,"o":"m 389 0 q 219 43 290 0 q 110 160 147 86 q 72 329 72 235 q 123 518 72 438 q 271 635 174 599 q 274 639 274 636 q 271 643 274 642 q 187 697 217 664 q 157 775 157 731 q 223 880 157 842 q 417 918 289 918 q 592 900 508 918 l 592 804 q 418 821 511 821 q 311 806 346 821 q 276 758 276 792 q 317 702 276 729 q 447 654 357 675 q 638 542 571 625 q 706 329 706 460 q 668 160 706 235 q 559 43 631 86 q 389 0 488 0 m 189 329 q 244 160 189 222 q 389 97 299 97 q 533 160 478 97 q 589 329 589 224 q 533 499 589 436 q 389 561 478 561 q 244 499 299 561 q 189 329 189 436 z "},"ε":{"ha":606,"x_min":58,"x_max":553,"o":"m 304 -10 q 186 13 243 -10 q 94 80 129 36 q 58 181 58 124 q 96 290 58 249 q 183 340 133 331 q 183 347 193 343 q 117 397 143 363 q 90 485 90 432 q 153 617 90 565 q 317 668 217 668 q 453 631 399 668 q 535 538 507 594 l 446 485 q 399 551 429 528 q 319 574 369 574 q 235 551 265 574 q 204 476 204 529 q 325 381 204 381 l 431 381 l 431 288 l 304 288 q 172 190 172 288 q 303 85 172 85 q 400 107 360 85 q 467 175 440 129 l 553 113 q 304 -10 468 -10 z "},"ζ":{"ha":647,"x_min":69,"x_max":606,"o":"m 422 -211 q 479 -112 479 -162 q 453 -65 479 -86 q 354 -22 426 -44 q 164 88 236 15 q 92 267 92 160 q 132 449 92 364 q 255 617 172 533 q 475 807 338 701 l 69 807 l 69 904 l 606 904 l 606 821 q 304 512 397 633 q 211 283 211 390 q 260 149 211 197 q 417 65 310 101 q 551 -8 508 35 q 594 -93 594 -51 q 503 -268 594 -185 l 422 -211 z "},"η":{"ha":769,"x_min":100,"x_max":669,"o":"m 553 360 q 399 561 553 561 q 269 497 321 561 q 217 318 217 432 l 217 11 l 100 11 l 100 647 l 211 647 l 217 582 q 223 571 218 572 q 233 576 228 569 q 410 658 308 658 q 599 583 528 658 q 669 347 669 507 l 669 -250 l 553 -250 l 553 360 z "},"θ":{"ha":829,"x_min":72,"x_max":757,"o":"m 415 0 q 158 126 243 0 q 72 460 72 253 q 158 792 72 665 q 415 918 243 918 q 672 792 588 918 q 757 460 757 665 q 672 126 757 253 q 415 0 588 0 m 193 411 q 256 179 200 261 q 415 97 313 97 q 574 179 518 97 q 636 411 629 261 l 714 411 l 714 508 l 636 508 q 574 739 629 657 q 415 821 518 821 q 256 739 313 821 q 193 508 200 657 l 115 508 l 115 411 l 193 411 m 192 460 q 193 411 192 426 l 636 411 q 638 460 638 426 q 636 508 638 493 l 193 508 q 192 460 192 493 z "},"ι":{"ha":326,"x_min":100,"x_max":264,"o":"m 232 8 q 100 121 100 8 l 100 647 l 217 647 l 217 121 q 242 97 217 97 q 264 100 256 97 l 264 11 q 232 8 250 8 z "},"κ":{"ha":732,"x_min":100,"x_max":694,"o":"m 350 275 q 331 276 340 286 l 224 176 q 217 160 217 169 l 217 11 l 100 11 l 100 647 l 217 647 l 217 342 q 222 331 217 333 q 233 335 228 329 l 571 664 l 661 588 l 433 374 q 429 364 429 369 q 433 354 429 361 l 694 64 l 604 -7 l 350 275 z "},"λ":{"ha":742,"x_min":42,"x_max":689,"o":"m 42 39 l 307 626 q 307 646 313 636 l 269 742 q 219 806 250 790 q 147 821 188 821 q 68 815 115 821 l 68 914 q 164 918 114 918 q 297 879 244 918 q 385 760 350 840 l 689 39 l 583 0 l 381 483 q 371 493 376 493 q 360 483 364 493 l 147 0 l 42 39 z "},"μ":{"ha":769,"x_min":100,"x_max":669,"o":"m 100 647 l 217 647 l 217 313 q 253 144 217 192 q 364 97 290 97 q 456 127 413 97 q 526 213 499 157 q 553 340 553 268 l 553 647 l 669 647 l 669 11 l 558 11 l 553 88 q 547 99 551 97 q 536 93 542 100 q 453 25 500 50 q 353 0 407 0 q 284 11 318 0 q 236 38 250 22 q 225 43 231 43 q 217 28 217 43 l 217 -250 l 100 -250 l 100 647 z "},"ν":{"ha":678,"x_min":39,"x_max":639,"o":"m 39 629 l 149 657 l 335 153 q 354 133 342 133 q 378 153 365 133 q 484 385 447 261 q 529 657 521 510 l 639 643 q 565 292 619 436 q 397 14 510 147 l 281 14 l 39 629 z "},"ξ":{"ha":644,"x_min":69,"x_max":603,"o":"m 431 -211 q 488 -112 488 -162 q 480 -80 488 -93 q 445 -52 472 -67 q 363 -22 418 -37 q 141 85 213 19 q 69 257 69 150 q 286 515 69 449 q 293 522 293 518 q 286 526 293 525 q 161 599 203 553 q 119 710 119 646 q 193 861 119 804 q 406 918 267 918 q 551 899 485 918 l 529 801 q 474 815 510 810 q 401 821 438 821 q 238 707 238 821 q 265 637 238 669 q 339 585 293 604 q 436 565 385 565 l 507 565 l 507 467 l 426 467 q 313 443 367 467 q 224 372 258 419 q 189 257 189 324 q 241 144 189 186 q 400 72 293 103 q 558 0 513 40 q 603 -93 603 -40 q 511 -268 603 -185 l 431 -211 z "},"ο":{"ha":778,"x_min":72,"x_max":706,"o":"m 389 0 q 219 43 290 0 q 110 160 147 86 q 72 329 72 235 q 110 498 72 424 q 219 615 147 572 q 389 658 290 658 q 559 615 488 658 q 668 498 631 572 q 706 329 706 424 q 668 160 706 235 q 559 43 631 86 q 389 0 488 0 m 189 329 q 244 160 189 222 q 389 97 299 97 q 533 160 478 97 q 589 329 589 224 q 533 499 589 436 q 389 561 478 561 q 244 499 299 561 q 189 329 189 436 z "},"π":{"ha":839,"x_min":56,"x_max":783,"o":"m 192 536 q 178 550 192 550 l 56 550 l 56 647 l 783 647 l 783 550 l 626 550 q 613 536 613 550 l 613 186 q 631 115 613 133 q 699 97 649 97 l 764 97 l 764 0 l 692 0 q 569 17 611 0 q 510 81 528 35 q 492 219 492 126 l 492 536 q 478 550 492 550 l 325 550 q 311 536 311 550 l 311 13 l 192 13 l 192 536 z "},"ρ":{"ha":806,"x_min":100,"x_max":733,"o":"m 100 331 q 138 499 100 425 q 247 616 175 574 q 417 658 318 658 q 587 615 515 658 q 696 498 658 572 q 733 329 733 424 q 696 160 733 235 q 587 43 658 86 q 417 0 515 0 q 310 21 360 0 q 231 74 261 42 q 222 78 226 79 q 217 69 217 76 l 217 -250 l 100 -250 l 100 331 m 217 329 q 272 160 217 222 q 417 97 326 97 q 561 160 506 97 q 617 329 617 224 q 561 499 617 436 q 417 561 506 561 q 272 499 326 561 q 217 329 217 436 z "},"σ":{"ha":811,"x_min":72,"x_max":769,"o":"m 389 0 q 219 41 290 0 q 110 156 147 82 q 72 322 72 229 q 110 490 72 417 q 219 606 147 564 q 389 647 290 647 l 769 647 l 769 550 l 624 550 q 613 547 614 550 q 618 536 611 543 q 683 442 660 497 q 706 322 706 386 q 668 156 706 229 q 559 41 631 82 q 389 0 488 0 m 189 322 q 243 157 189 217 q 389 97 297 97 q 533 157 478 97 q 589 322 589 217 q 533 490 589 429 q 389 550 478 550 q 244 490 299 550 q 189 322 189 429 z "},"τ":{"ha":667,"x_min":56,"x_max":611,"o":"m 275 519 q 269 544 275 539 q 244 550 264 550 l 56 550 l 56 647 l 611 647 l 611 550 l 425 550 q 400 544 406 550 q 394 519 394 539 l 394 165 q 409 114 394 131 q 454 97 424 97 q 503 103 476 97 l 503 4 q 438 0 476 0 q 319 43 363 0 q 275 160 275 86 l 275 519 z "},"υ":{"ha":792,"x_min":104,"x_max":688,"o":"m 396 0 q 173 85 242 0 q 104 325 104 169 l 104 647 l 224 647 l 224 313 q 263 153 224 208 q 396 97 301 97 q 527 160 486 97 q 568 313 568 224 q 549 488 568 418 q 485 647 529 557 l 604 647 q 668 494 649 561 q 688 325 688 428 q 617 92 688 185 q 396 0 546 0 z "},"φ":{"ha":942,"x_min":72,"x_max":869,"o":"m 411 0 q 230 47 307 3 q 113 166 153 92 q 72 331 72 240 q 116 506 72 419 q 221 644 160 592 l 297 574 q 220 465 249 529 q 192 331 192 401 q 249 172 192 235 q 396 99 306 108 l 399 99 q 408 103 404 99 q 411 113 411 107 l 411 539 q 442 629 411 600 q 549 658 474 658 q 704 617 631 658 q 824 501 778 576 q 869 331 869 426 q 826 169 869 242 q 706 51 783 96 q 531 0 629 7 l 531 -250 l 411 -250 l 411 0 m 531 113 q 535 101 531 106 q 546 99 540 97 q 694 167 638 107 q 750 331 750 226 q 698 493 750 433 q 574 558 646 553 q 531 518 531 561 l 531 113 z "},"χ":{"ha":689,"x_min":33,"x_max":656,"o":"m 39 61 l 264 329 q 269 340 269 335 q 264 351 269 346 l 119 526 q 99 546 107 542 q 78 550 92 550 l 33 550 l 33 647 l 118 647 q 153 640 139 647 q 186 607 167 632 l 326 435 q 338 428 333 428 q 347 435 340 428 l 525 657 l 617 604 l 408 351 q 403 340 403 343 q 408 329 403 338 l 569 133 q 590 114 582 118 q 611 110 597 110 l 656 110 l 656 13 l 571 13 q 536 20 550 13 q 504 51 522 28 l 347 244 q 338 251 343 251 q 326 244 333 251 l 128 3 l 39 61 z "},"ψ":{"ha":996,"x_min":100,"x_max":896,"o":"m 439 0 q 259 52 336 1 q 141 192 182 103 q 100 394 100 281 l 100 647 l 218 647 l 218 397 q 269 187 218 269 q 424 97 321 104 q 435 102 431 97 q 439 113 439 107 l 439 647 l 557 647 l 557 113 q 562 101 557 106 q 572 99 567 97 q 726 188 675 106 q 778 397 778 269 q 736 647 778 522 l 854 647 q 896 394 896 521 q 855 194 896 282 q 737 54 814 106 q 557 0 660 3 l 557 -250 l 439 -250 l 439 0 z "},"ω":{"ha":1011,"x_min":100,"x_max":911,"o":"m 331 0 q 163 82 226 0 q 100 319 100 164 q 120 492 100 414 q 176 647 140 569 l 293 647 q 231 484 246 558 q 217 319 217 410 q 247 153 217 210 q 336 94 278 96 q 418 149 389 94 q 447 299 447 203 l 447 460 l 564 460 l 564 299 q 593 149 564 203 q 675 94 622 94 q 764 153 733 96 q 794 319 794 210 q 780 484 794 410 q 718 647 765 558 l 835 647 q 891 492 871 569 q 911 319 911 414 q 848 82 911 164 q 681 0 785 0 q 581 33 625 0 q 513 124 536 65 q 506 132 510 132 q 499 124 501 132 q 431 33 475 65 q 331 0 386 0 z "},"ᄀ":{"ha":1026,"x_min":179,"x_max":843,"o":"m 726 624 q 714 658 726 646 q 679 671 701 671 l 179 671 l 179 765 l 722 765 q 814 735 785 765 q 843 643 843 706 l 843 128 l 726 128 l 726 624 z "},"ᄁ":{"ha":1026,"x_min":129,"x_max":867,"o":"m 753 638 q 745 663 753 656 q 719 671 738 671 l 526 671 l 526 765 l 760 765 q 842 740 817 765 q 867 658 867 715 l 867 128 l 753 128 l 753 638 m 129 765 l 356 765 q 438 742 413 765 q 463 663 463 718 l 463 128 l 349 128 l 349 638 q 315 671 349 671 l 129 671 l 129 765 z "},"ᄂ":{"ha":1026,"x_min":186,"x_max":853,"o":"m 306 126 q 215 156 244 126 q 186 249 186 186 l 186 758 l 301 758 l 301 268 q 314 233 301 246 q 350 221 326 221 l 853 221 l 853 126 l 306 126 z "},"ᄃ":{"ha":1026,"x_min":183,"x_max":856,"o":"m 303 128 q 213 158 242 128 q 183 250 183 188 l 183 765 l 844 765 l 844 671 l 331 671 q 307 663 315 671 q 299 639 299 654 l 299 269 q 311 235 299 247 q 347 222 324 222 l 856 222 l 856 128 l 303 128 z "},"ᄄ":{"ha":1026,"x_min":168,"x_max":868,"o":"m 636 128 q 555 151 579 128 q 531 232 531 175 l 531 765 l 856 765 l 856 671 l 678 671 q 647 640 647 671 l 647 257 q 656 231 647 239 q 682 222 664 222 l 868 222 l 868 128 l 636 128 m 168 765 l 475 765 l 475 671 l 315 671 q 285 640 285 671 l 285 268 q 297 234 285 246 q 331 222 308 222 l 482 222 l 482 128 l 285 128 q 197 156 225 128 q 168 243 168 183 l 168 765 z "},"ᄅ":{"ha":1026,"x_min":194,"x_max":842,"o":"m 315 115 q 225 143 253 115 q 197 232 197 171 l 197 496 l 685 496 q 708 505 700 496 q 717 528 717 514 l 717 653 q 685 683 717 683 l 194 683 l 194 779 l 832 779 l 832 407 l 346 407 q 314 375 314 407 l 314 254 q 358 210 314 210 l 842 210 l 842 115 l 315 115 z "},"ᄆ":{"ha":1026,"x_min":183,"x_max":840,"o":"m 296 128 q 210 155 236 128 q 183 242 183 182 l 183 765 l 840 765 l 840 128 l 296 128 m 300 265 q 342 224 300 224 l 693 224 q 724 254 724 224 l 724 640 q 693 671 724 671 l 331 671 q 300 640 300 671 l 300 265 z "},"ᄇ":{"ha":1026,"x_min":183,"x_max":840,"o":"m 299 144 q 211 172 239 144 q 183 260 183 200 l 183 779 l 299 779 l 299 610 q 329 579 299 579 l 694 579 q 725 610 725 579 l 725 779 l 840 779 l 840 144 l 299 144 m 299 285 q 311 251 299 263 q 344 239 324 239 l 694 239 q 725 269 725 239 l 725 454 q 694 485 725 485 l 329 485 q 299 454 299 485 l 299 285 z "},"ᄈ":{"ha":1026,"x_min":169,"x_max":857,"o":"m 285 125 q 197 153 225 125 q 169 240 169 181 l 169 785 l 271 785 l 271 589 q 279 569 271 578 q 299 561 288 561 l 431 561 q 450 569 442 561 q 458 589 458 578 l 458 785 l 568 785 l 568 589 q 576 569 568 578 q 596 561 585 561 l 728 561 q 747 569 739 561 q 756 589 756 578 l 756 785 l 857 785 l 857 125 l 285 125 m 271 265 q 283 231 271 243 q 317 219 296 219 l 431 219 q 450 228 442 219 q 458 247 458 236 l 458 447 q 450 467 458 458 q 431 475 442 475 l 299 475 q 279 467 288 475 q 271 447 271 458 l 271 265 m 568 247 q 576 228 568 236 q 596 219 585 219 l 728 219 q 747 228 739 219 q 756 247 756 236 l 756 447 q 747 467 756 458 q 728 475 739 475 l 596 475 q 576 467 585 475 q 568 447 568 458 l 568 247 z "},"ᄉ":{"ha":1026,"x_min":133,"x_max":914,"o":"m 133 199 q 324 374 254 296 q 432 546 394 453 q 469 763 469 639 l 469 799 l 586 799 q 581 688 586 761 q 569 583 575 614 q 568 564 568 576 q 585 514 568 538 q 914 218 717 347 l 856 131 q 668 272 746 204 q 532 411 590 339 q 510 426 519 426 q 483 406 497 426 q 366 263 428 325 q 203 124 304 200 l 133 199 z "},"ᄊ":{"ha":1026,"x_min":103,"x_max":938,"o":"m 443 175 l 472 225 q 353 415 406 308 q 343 426 346 426 q 335 415 339 426 q 268 263 315 358 q 183 114 221 167 l 103 175 q 247 474 197 332 q 296 751 296 617 l 296 799 l 413 799 l 407 674 q 403 607 403 632 q 410 558 403 586 q 524 331 444 442 q 599 547 571 438 q 626 751 626 657 l 626 799 l 743 799 q 738 685 740 718 l 735 613 q 744 546 735 576 q 832 358 767 471 q 938 199 897 246 l 865 128 q 770 265 829 172 q 683 415 711 357 q 674 432 675 432 q 665 415 669 432 q 601 259 643 351 q 524 114 558 167 l 443 175 z "},"ᄋ":{"ha":1026,"x_min":160,"x_max":867,"o":"m 514 93 q 329 138 410 93 q 204 262 249 182 q 160 443 160 342 q 204 624 160 544 q 329 747 249 703 q 514 792 410 792 q 698 747 618 792 q 822 624 778 703 q 867 443 867 544 q 822 262 867 342 q 698 138 778 182 q 514 93 618 93 m 276 443 q 308 311 276 369 q 393 220 339 253 q 514 188 447 188 q 635 220 581 188 q 719 310 689 253 q 750 443 750 368 q 719 576 750 518 q 635 665 689 633 q 514 697 581 697 q 393 665 447 697 q 308 575 339 633 q 276 443 276 517 z "},"ᄌ":{"ha":1026,"x_min":132,"x_max":907,"o":"m 132 200 q 449 433 290 297 q 669 667 607 569 q 679 692 679 682 q 661 704 679 704 l 178 704 l 178 799 l 713 799 q 814 735 814 799 q 807 699 814 722 q 752 596 792 650 q 643 469 713 542 q 632 450 632 458 q 640 435 632 443 q 763 327 685 390 q 907 221 842 264 l 849 138 q 701 247 788 179 q 560 364 615 315 q 543 372 550 372 q 522 360 538 372 q 369 238 472 314 q 194 119 267 163 l 132 200 z "},"ᄍ":{"ha":1026,"x_min":110,"x_max":954,"o":"m 464 182 l 489 210 q 385 357 449 260 q 375 367 378 367 q 360 351 371 367 q 188 117 261 201 l 110 193 q 276 429 196 292 q 389 672 356 567 q 393 690 393 685 q 388 701 393 699 q 374 704 383 704 l 175 704 l 175 799 l 457 799 q 503 785 488 799 q 518 740 518 772 q 514 700 518 724 q 486 610 508 672 q 440 493 464 549 q 436 475 436 483 q 446 447 436 465 q 494 371 464 415 q 550 294 524 326 q 658 491 611 386 q 728 672 704 596 q 731 690 731 681 q 726 701 731 699 q 711 704 722 704 l 549 704 l 549 799 l 785 799 q 857 735 857 799 q 854 706 857 728 q 783 496 844 651 q 778 472 778 476 q 789 443 778 463 q 954 194 889 279 l 876 122 q 726 343 803 218 q 714 353 721 353 q 696 338 706 353 q 542 113 603 197 l 464 182 z "},"ᄎ":{"ha":1026,"x_min":132,"x_max":907,"o":"m 132 171 q 440 394 281 267 q 649 593 600 521 q 658 614 658 608 q 625 626 658 626 l 178 626 l 178 721 l 403 721 q 429 749 429 721 l 429 869 l 546 869 l 546 749 q 575 721 546 721 l 699 721 q 789 651 789 721 q 788 632 789 639 q 735 530 782 593 q 638 418 688 467 q 631 406 631 411 q 642 388 631 399 q 754 293 678 349 q 907 192 831 238 l 858 101 q 700 205 785 142 q 560 322 615 268 q 544 331 551 331 q 522 318 539 331 q 358 198 456 267 q 186 83 261 129 l 132 171 z "},"ᄏ":{"ha":1026,"x_min":174,"x_max":843,"o":"m 726 326 q 696 357 726 357 l 174 357 l 174 451 l 696 451 q 726 482 726 451 l 726 646 q 715 680 726 668 q 681 692 703 692 l 179 692 l 179 786 l 726 786 q 815 758 786 786 q 843 671 843 731 l 843 115 l 726 115 l 726 326 z "},"ᄐ":{"ha":1026,"x_min":196,"x_max":840,"o":"m 313 115 q 224 143 253 115 q 196 231 196 171 l 196 778 l 829 778 l 829 683 l 343 683 q 313 653 313 683 l 313 525 q 343 494 313 494 l 819 494 l 819 408 l 343 408 q 313 378 313 408 l 313 256 q 324 222 313 233 q 358 210 336 210 l 840 210 l 840 115 l 313 115 z "},"ᄑ":{"ha":1026,"x_min":153,"x_max":871,"o":"m 153 219 l 260 219 q 290 250 290 219 l 290 642 q 260 672 290 672 l 156 672 l 156 765 l 868 765 l 868 672 l 764 672 q 733 642 733 672 l 733 250 q 764 219 733 219 l 871 219 l 871 126 l 153 126 l 153 219 m 400 250 q 431 219 400 219 l 593 219 q 624 250 624 219 l 624 642 q 593 672 624 672 l 431 672 q 400 642 400 672 l 400 250 z "},"ᄒ":{"ha":1026,"x_min":133,"x_max":893,"o":"m 517 69 q 385 101 443 69 q 294 186 326 132 q 261 306 261 240 q 294 425 261 371 q 385 510 326 479 q 517 542 443 542 q 649 511 590 542 q 740 427 707 481 q 772 306 772 374 q 740 184 772 238 q 649 100 707 131 q 517 69 590 69 m 133 706 l 431 706 q 457 733 457 706 l 457 854 l 574 854 l 574 733 q 603 706 574 706 l 893 706 l 893 614 l 133 614 l 133 706 m 378 306 q 419 205 378 246 q 517 164 460 164 q 615 203 575 164 q 656 306 656 243 q 615 408 656 368 q 517 447 575 447 q 419 406 460 447 q 378 306 378 365 z "},"ᅡ":{"ha":1067,"x_min":442,"x_max":771,"o":"m 442 911 l 558 911 l 558 599 q 589 568 558 568 l 771 568 l 771 474 l 589 474 q 558 443 558 474 l 558 28 l 442 28 l 442 911 z "},"ᅢ":{"ha":1069,"x_min":356,"x_max":713,"o":"m 596 433 q 565 464 596 464 l 501 464 q 471 433 471 464 l 471 33 l 356 33 l 356 910 l 471 910 l 471 589 q 501 558 471 558 l 565 558 q 596 589 596 558 l 596 925 l 713 925 l 713 11 l 596 11 l 596 433 z "},"ᅣ":{"ha":1067,"x_min":442,"x_max":771,"o":"m 442 911 l 558 911 l 558 747 q 589 717 558 717 l 771 717 l 771 625 l 589 625 q 558 594 558 625 l 558 449 q 589 418 558 418 l 771 418 l 771 326 l 589 326 q 558 296 558 326 l 558 28 l 442 28 l 442 911 z "},"ᅤ":{"ha":1069,"x_min":356,"x_max":713,"o":"m 596 301 q 565 332 596 332 l 501 332 q 471 301 471 332 l 471 33 l 356 33 l 356 910 l 471 910 l 471 753 q 501 722 471 722 l 565 722 q 596 753 596 722 l 596 925 l 713 925 l 713 11 l 596 11 l 596 301 m 471 454 q 501 424 471 424 l 565 424 q 596 454 596 424 l 596 600 q 565 631 596 631 l 501 631 q 471 600 471 631 l 471 454 z "},"ᅥ":{"ha":1028,"x_min":288,"x_max":617,"o":"m 500 456 q 469 486 500 486 l 288 486 l 288 581 l 469 581 q 500 611 500 581 l 500 911 l 617 911 l 617 28 l 500 28 l 500 456 z "},"ᅦ":{"ha":1069,"x_min":247,"x_max":768,"o":"m 432 458 q 401 489 432 489 l 247 489 l 247 581 l 401 581 q 432 611 432 581 l 432 910 l 547 910 l 547 33 l 432 33 l 432 458 m 651 925 l 768 925 l 768 11 l 651 11 l 651 925 z "},"ᅧ":{"ha":1028,"x_min":288,"x_max":617,"o":"m 500 313 q 469 343 500 343 l 288 343 l 288 435 l 469 435 q 500 465 500 435 l 500 597 q 469 628 500 628 l 288 628 l 288 719 l 469 719 q 500 750 500 719 l 500 911 l 617 911 l 617 28 l 500 28 l 500 313 z "},"ᅨ":{"ha":1069,"x_min":247,"x_max":768,"o":"m 432 313 q 401 343 432 343 l 247 343 l 247 435 l 401 435 q 432 465 432 435 l 432 597 q 401 628 432 628 l 247 628 l 247 719 l 401 719 q 432 750 432 719 l 432 910 l 547 910 l 547 33 l 432 33 l 432 313 m 651 925 l 768 925 l 768 11 l 651 11 l 651 925 z "},"ᅩ":{"ha":1026,"x_min":63,"x_max":964,"o":"m 63 354 l 425 354 q 456 385 456 354 l 456 699 l 571 699 l 571 385 q 601 354 571 354 l 964 354 l 964 258 l 63 258 l 63 354 z "},"ᅪ":{"ha":1094,"x_min":63,"x_max":1076,"o":"m 775 911 l 892 911 l 892 599 q 922 568 892 568 l 1076 568 l 1076 474 l 922 474 q 892 443 892 474 l 892 0 l 775 0 l 775 911 m 63 238 l 294 238 q 325 268 325 238 l 325 528 l 440 528 l 440 268 q 471 238 440 238 l 722 238 l 722 143 l 63 143 l 63 238 z "},"ᅫ":{"ha":1069,"x_min":56,"x_max":956,"o":"m 56 238 l 224 238 q 254 268 254 238 l 254 528 l 369 528 l 369 268 q 400 238 369 238 l 568 238 l 568 143 l 56 143 l 56 238 m 617 903 l 732 903 l 732 589 q 763 558 732 558 l 810 558 q 840 589 840 558 l 840 911 l 956 911 l 956 0 l 840 0 l 840 433 q 810 464 840 464 l 763 464 q 732 433 732 464 l 732 17 l 617 17 l 617 903 z "},"ᅬ":{"ha":1047,"x_min":69,"x_max":925,"o":"m 69 238 l 301 238 q 332 268 332 238 l 332 528 l 447 528 l 447 268 q 478 238 447 238 l 743 238 l 743 143 l 69 143 l 69 238 m 808 911 l 925 911 l 925 0 l 808 0 l 808 911 z "},"ᅭ":{"ha":1026,"x_min":63,"x_max":964,"o":"m 63 354 l 258 354 q 289 385 289 354 l 289 699 l 404 699 l 404 385 q 435 354 404 354 l 592 354 q 622 385 622 354 l 622 699 l 738 699 l 738 385 q 768 354 738 354 l 964 354 l 964 258 l 63 258 l 63 354 z "},"ᅮ":{"ha":1026,"x_min":63,"x_max":964,"o":"m 456 465 q 425 496 456 496 l 63 496 l 63 592 l 964 592 l 964 496 l 601 496 q 571 465 571 496 l 571 68 l 456 68 l 456 465 z "},"ᅯ":{"ha":1056,"x_min":69,"x_max":933,"o":"m 329 328 q 299 358 329 358 l 69 358 l 69 453 l 743 453 l 743 358 l 475 358 q 444 328 444 358 l 444 -57 l 329 -57 l 329 328 m 601 231 l 786 231 q 817 261 817 231 l 817 936 l 933 936 l 933 -69 l 817 -69 l 817 108 q 786 139 817 139 l 601 139 l 601 231 z "},"ᅰ":{"ha":1069,"x_min":56,"x_max":956,"o":"m 625 108 q 594 139 625 139 l 465 139 l 465 231 l 594 231 q 625 261 625 231 l 625 928 l 740 928 l 740 -53 l 625 -53 l 625 108 m 56 453 l 563 453 l 563 358 l 400 358 q 369 350 383 358 q 356 328 356 342 l 356 -57 l 240 -57 l 240 328 q 210 358 240 358 l 56 358 l 56 453 m 840 936 l 956 936 l 956 -69 l 840 -69 l 840 936 z "},"ᅱ":{"ha":1047,"x_min":69,"x_max":925,"o":"m 346 286 q 315 317 346 317 l 69 317 l 69 411 l 743 411 l 743 317 l 492 317 q 461 286 461 317 l 461 -57 l 346 -57 l 346 286 m 808 936 l 925 936 l 925 -69 l 808 -69 l 808 936 z "},"ᅲ":{"ha":1026,"x_min":63,"x_max":964,"o":"m 275 465 q 244 496 275 496 l 63 496 l 63 592 l 964 592 l 964 496 l 782 496 q 751 465 751 496 l 751 68 l 636 68 l 636 465 q 606 496 636 496 l 421 496 q 390 465 390 496 l 390 68 l 275 68 l 275 465 z "},"ᅳ":{"ha":1026,"x_min":63,"x_max":964,"o":"m 63 504 l 964 504 l 964 408 l 63 408 l 63 504 z "},"ᅴ":{"ha":1047,"x_min":69,"x_max":925,"o":"m 808 911 l 925 911 l 925 0 l 808 0 l 808 911 m 69 246 l 743 246 l 743 151 l 69 151 l 69 246 z "},"ᅵ":{"ha":1019,"x_min":451,"x_max":568,"o":"m 451 911 l 568 911 l 568 28 l 451 28 l 451 911 z "},"ᆨ":{"ha":1026,"x_min":179,"x_max":843,"o":"m 726 624 q 714 658 726 646 q 679 671 701 671 l 179 671 l 179 765 l 722 765 q 814 735 785 765 q 843 643 843 706 l 843 128 l 726 128 l 726 624 z "},"ᆩ":{"ha":1026,"x_min":129,"x_max":867,"o":"m 753 638 q 745 663 753 656 q 719 671 738 671 l 526 671 l 526 765 l 760 765 q 842 740 817 765 q 867 658 867 715 l 867 128 l 753 128 l 753 638 m 129 765 l 356 765 q 438 742 413 765 q 463 663 463 718 l 463 128 l 349 128 l 349 638 q 315 671 349 671 l 129 671 l 129 765 z "},"ᆪ":{"ha":1026,"x_min":122,"x_max":944,"o":"m 485 171 q 654 735 654 419 l 654 774 l 771 774 q 758 569 764 625 q 757 546 757 561 q 771 483 757 521 q 944 183 846 297 l 879 106 q 711 376 769 235 q 703 388 707 388 q 696 376 700 388 q 639 234 671 297 q 554 96 607 171 l 485 171 m 122 765 l 349 765 q 417 758 396 765 q 445 730 438 750 q 453 663 453 710 l 453 128 l 342 128 l 342 638 q 335 665 342 658 q 308 671 328 671 l 122 671 l 122 765 z "},"ᆫ":{"ha":1026,"x_min":186,"x_max":853,"o":"m 306 126 q 215 156 244 126 q 186 249 186 186 l 186 758 l 301 758 l 301 268 q 314 233 301 246 q 350 221 326 221 l 853 221 l 853 126 l 306 126 z "},"ᆬ":{"ha":1026,"x_min":151,"x_max":924,"o":"m 474 164 q 606 409 571 299 q 646 656 640 519 l 481 656 l 481 747 l 894 747 l 894 656 l 758 656 l 751 528 q 751 487 750 497 q 760 461 753 476 q 924 183 828 293 l 858 106 q 774 219 810 163 q 706 344 738 276 q 696 357 700 357 q 688 344 694 357 q 628 217 657 271 q 549 100 599 164 l 474 164 m 151 758 l 267 758 l 267 268 q 274 228 267 235 q 315 221 282 221 l 443 221 l 443 126 l 271 126 q 197 137 222 126 q 161 173 171 147 q 151 249 151 199 l 151 758 z "},"ᆭ":{"ha":1026,"x_min":138,"x_max":943,"o":"m 257 126 q 183 137 208 126 q 147 173 157 147 q 138 249 138 199 l 138 758 l 253 758 l 253 268 q 260 228 253 235 q 301 221 268 221 l 451 221 l 451 126 l 257 126 m 447 685 l 619 685 q 636 688 633 685 q 639 706 639 692 l 639 813 l 756 813 l 756 706 q 760 688 756 692 q 778 685 764 685 l 943 685 l 943 593 l 447 593 l 447 685 m 493 306 q 548 456 493 399 q 699 514 603 514 q 849 456 794 514 q 904 306 904 399 q 849 155 904 213 q 699 97 794 97 q 548 155 603 97 q 493 306 493 213 m 601 306 q 629 219 601 251 q 699 188 657 188 q 768 219 740 188 q 796 306 796 251 q 768 392 796 360 q 699 424 740 424 q 629 392 657 424 q 601 306 601 360 z "},"ᆮ":{"ha":1026,"x_min":183,"x_max":856,"o":"m 303 128 q 213 158 242 128 q 183 250 183 188 l 183 765 l 844 765 l 844 671 l 331 671 q 307 663 315 671 q 299 639 299 654 l 299 269 q 311 235 299 247 q 347 222 324 222 l 856 222 l 856 128 l 303 128 z "},"ᆯ":{"ha":1026,"x_min":194,"x_max":842,"o":"m 315 115 q 225 143 253 115 q 197 232 197 171 l 197 496 l 685 496 q 708 505 700 496 q 717 528 717 514 l 717 653 q 685 683 717 683 l 194 683 l 194 779 l 832 779 l 832 407 l 346 407 q 314 375 314 407 l 314 254 q 358 210 314 210 l 842 210 l 842 115 l 315 115 z "},"ᆰ":{"ha":1026,"x_min":153,"x_max":879,"o":"m 274 115 q 198 124 222 115 q 165 158 174 133 q 156 232 156 182 l 156 496 l 339 496 q 365 502 358 496 q 371 528 371 508 l 371 653 q 365 678 371 674 q 339 683 360 683 l 153 683 l 153 779 l 482 779 l 482 407 l 299 407 q 272 401 278 407 q 267 375 267 396 l 267 254 q 276 219 267 228 q 311 210 285 210 l 492 210 l 492 115 l 274 115 m 544 779 l 758 779 q 834 769 808 779 q 869 733 860 758 q 879 657 879 707 l 879 128 l 768 128 l 768 638 q 760 678 768 671 q 721 685 753 685 l 544 685 l 544 779 z "},"ᆱ":{"ha":1026,"x_min":153,"x_max":879,"o":"m 274 115 q 198 124 222 115 q 165 158 174 133 q 156 232 156 182 l 156 496 l 332 496 q 358 502 351 496 q 364 528 364 508 l 364 653 q 358 678 364 674 q 332 683 353 683 l 153 683 l 153 779 l 475 779 l 475 407 l 299 407 q 272 401 278 407 q 267 375 267 396 l 267 254 q 276 219 267 228 q 311 210 285 210 l 485 210 l 485 115 l 274 115 m 553 779 l 879 779 l 879 115 l 651 115 q 572 135 592 115 q 553 215 553 156 l 553 779 m 664 251 q 672 217 664 225 q 706 210 679 210 l 738 210 q 763 215 758 210 q 768 240 768 219 l 768 654 q 763 679 768 674 q 738 685 758 685 l 694 685 q 669 679 674 685 q 664 654 664 674 l 664 251 z "},"ᆲ":{"ha":1026,"x_min":153,"x_max":879,"o":"m 274 115 q 198 124 222 115 q 165 158 174 133 q 156 232 156 182 l 156 496 l 332 496 q 358 502 351 496 q 364 528 364 508 l 364 653 q 358 678 364 674 q 332 683 353 683 l 153 683 l 153 779 l 475 779 l 475 407 l 299 407 q 272 401 278 407 q 267 375 267 396 l 267 254 q 276 219 267 228 q 311 210 285 210 l 485 210 l 485 115 l 274 115 m 553 779 l 664 779 l 664 596 q 669 571 664 576 q 694 565 675 565 l 738 565 q 763 571 757 565 q 768 596 768 576 l 768 779 l 879 779 l 879 115 l 668 115 q 592 124 615 115 q 561 155 569 132 q 553 231 553 178 l 553 779 m 664 254 q 671 217 664 224 q 708 210 678 210 l 742 210 q 763 215 758 210 q 768 236 768 219 l 768 440 q 763 465 768 460 q 738 471 757 471 l 694 471 q 669 465 675 471 q 664 440 664 460 l 664 254 z "},"ᆳ":{"ha":1026,"x_min":153,"x_max":917,"o":"m 485 171 q 643 735 643 403 l 643 774 l 754 774 q 749 569 751 615 q 746 526 746 531 q 757 474 746 503 q 917 183 815 307 l 854 106 q 697 372 753 228 q 691 381 694 382 q 685 372 688 381 q 553 97 643 225 l 485 171 m 153 779 l 482 779 l 482 407 l 299 407 q 272 401 278 407 q 267 375 267 396 l 267 254 q 276 219 267 228 q 311 210 285 210 l 450 210 l 450 115 l 274 115 q 198 124 222 115 q 165 158 174 133 q 156 232 156 182 l 156 496 l 339 496 q 365 502 358 496 q 371 528 371 508 l 371 653 q 365 678 371 674 q 339 683 360 683 l 153 683 l 153 779 z "},"ᆴ":{"ha":1026,"x_min":153,"x_max":882,"o":"m 274 115 q 198 124 222 115 q 165 158 174 133 q 156 232 156 182 l 156 496 l 332 496 q 358 502 351 496 q 364 528 364 508 l 364 653 q 358 678 364 674 q 332 683 353 683 l 153 683 l 153 779 l 475 779 l 475 407 l 299 407 q 272 401 278 407 q 267 375 267 396 l 267 254 q 276 219 267 228 q 311 210 285 210 l 485 210 l 485 115 l 274 115 m 553 778 l 876 778 l 876 683 l 694 683 q 669 678 674 683 q 664 653 664 672 l 664 525 q 669 500 664 506 q 694 494 674 494 l 864 494 l 864 408 l 694 408 q 669 403 674 408 q 664 378 664 397 l 664 256 q 674 219 664 229 q 710 210 683 210 l 882 210 l 882 115 l 663 115 q 575 137 597 115 q 553 224 553 158 l 553 778 z "},"ᆵ":{"ha":1026,"x_min":139,"x_max":918,"o":"m 517 208 l 556 208 q 575 213 571 208 q 579 231 579 217 l 579 671 q 576 683 579 681 q 563 686 572 686 l 519 686 l 519 779 l 915 779 l 915 686 l 879 686 q 860 682 864 686 q 856 664 856 678 l 856 231 q 860 213 856 217 q 879 208 864 208 l 918 208 l 918 115 l 517 115 l 517 208 m 139 779 l 454 779 l 454 407 l 285 407 q 258 401 264 407 q 253 375 253 396 l 253 254 q 262 219 253 228 q 297 210 271 210 l 464 210 l 464 115 l 260 115 q 184 124 208 115 q 151 158 160 133 q 142 232 142 182 l 142 496 l 311 496 q 337 502 331 496 q 343 528 343 508 l 343 653 q 338 678 343 674 q 311 683 332 683 l 139 683 l 139 779 m 682 231 q 686 213 682 217 q 706 208 690 208 l 729 208 q 749 213 744 208 q 753 231 753 217 l 753 664 q 749 682 753 678 q 729 686 744 686 l 706 686 q 686 682 690 686 q 682 664 682 678 l 682 231 z "},"ᆶ":{"ha":1026,"x_min":153,"x_max":929,"o":"m 274 115 q 198 124 222 115 q 165 158 174 133 q 156 232 156 182 l 156 496 l 318 496 q 344 502 338 496 q 350 528 350 508 l 350 653 q 344 678 350 674 q 318 683 339 683 l 153 683 l 153 779 l 461 779 l 461 407 l 299 407 q 272 401 278 407 q 267 375 267 396 l 267 254 q 276 219 267 228 q 311 210 285 210 l 471 210 l 471 115 l 274 115 m 517 685 l 643 685 q 660 688 657 685 q 663 706 663 692 l 663 813 l 779 813 l 779 706 q 783 688 779 692 q 801 685 788 685 l 929 685 l 929 593 l 517 593 l 517 685 m 542 306 q 590 458 542 401 q 719 514 639 514 q 849 460 801 514 q 897 306 897 406 q 849 151 897 206 q 719 97 801 97 q 590 153 639 97 q 542 306 542 210 m 653 306 q 672 219 653 251 q 719 188 690 188 q 768 217 750 188 q 786 306 786 247 q 768 394 786 364 q 719 424 750 424 q 672 392 690 424 q 653 306 653 360 z "},"ᆷ":{"ha":1026,"x_min":183,"x_max":840,"o":"m 296 128 q 210 155 236 128 q 183 242 183 182 l 183 765 l 840 765 l 840 128 l 296 128 m 300 265 q 342 224 300 224 l 693 224 q 724 254 724 224 l 724 640 q 693 671 724 671 l 331 671 q 300 640 300 671 l 300 265 z "},"ᆸ":{"ha":1026,"x_min":183,"x_max":840,"o":"m 299 144 q 211 172 239 144 q 183 260 183 200 l 183 779 l 299 779 l 299 610 q 329 579 299 579 l 694 579 q 725 610 725 579 l 725 779 l 840 779 l 840 144 l 299 144 m 299 285 q 311 251 299 263 q 344 239 324 239 l 694 239 q 725 269 725 239 l 725 454 q 694 485 725 485 l 329 485 q 299 454 299 485 l 299 285 z "},"ᆹ":{"ha":1026,"x_min":136,"x_max":931,"o":"m 508 158 q 623 415 585 275 q 661 735 661 556 l 661 774 l 769 774 q 765 569 769 631 q 764 542 764 560 q 774 482 764 511 q 842 322 804 393 q 931 183 879 251 l 863 106 q 778 233 811 175 q 718 356 744 290 q 714 361 717 361 q 710 357 711 361 q 662 229 688 286 q 589 96 636 172 l 508 158 m 136 779 l 247 779 l 247 596 q 253 571 247 576 q 278 565 258 565 l 335 565 q 360 571 354 565 q 365 596 365 576 l 365 779 l 476 779 l 476 115 l 251 115 q 176 124 199 115 q 144 155 153 132 q 136 231 136 178 l 136 779 m 247 254 q 254 217 247 224 q 292 210 261 210 l 339 210 q 360 215 356 210 q 365 236 365 219 l 365 440 q 360 465 365 460 q 335 471 354 471 l 278 471 q 253 465 258 471 q 247 440 247 460 l 247 254 z "},"ᆺ":{"ha":1026,"x_min":133,"x_max":914,"o":"m 133 199 q 324 374 254 296 q 432 546 394 453 q 469 763 469 639 l 469 799 l 586 799 q 581 688 586 761 q 569 583 575 614 q 568 564 568 576 q 585 514 568 538 q 914 218 717 347 l 856 131 q 668 272 746 204 q 532 411 590 339 q 510 426 519 426 q 483 406 497 426 q 366 263 428 325 q 203 124 304 200 l 133 199 z "},"ᆻ":{"ha":1026,"x_min":103,"x_max":938,"o":"m 443 175 l 472 225 q 353 415 406 308 q 343 426 346 426 q 335 415 339 426 q 268 263 315 358 q 183 114 221 167 l 103 175 q 247 474 197 332 q 296 751 296 617 l 296 799 l 413 799 l 407 674 q 403 607 403 632 q 410 558 403 586 q 524 331 444 442 q 599 547 571 438 q 626 751 626 657 l 626 799 l 743 799 q 738 685 740 718 l 735 613 q 744 546 735 576 q 832 358 767 471 q 938 199 897 246 l 865 128 q 770 265 829 172 q 683 415 711 357 q 674 432 675 432 q 665 415 669 432 q 601 259 643 351 q 524 114 558 167 l 443 175 z "},"ᆼ":{"ha":1026,"x_min":160,"x_max":867,"o":"m 514 93 q 329 138 410 93 q 204 262 249 182 q 160 443 160 342 q 204 624 160 544 q 329 747 249 703 q 514 792 410 792 q 698 747 618 792 q 822 624 778 703 q 867 443 867 544 q 822 262 867 342 q 698 138 778 182 q 514 93 618 93 m 276 443 q 308 311 276 369 q 393 220 339 253 q 514 188 447 188 q 635 220 581 188 q 719 310 689 253 q 750 443 750 368 q 719 576 750 518 q 635 665 689 633 q 514 697 581 697 q 393 665 447 697 q 308 575 339 633 q 276 443 276 517 z "},"ᆽ":{"ha":1026,"x_min":132,"x_max":907,"o":"m 132 200 q 449 433 290 297 q 669 667 607 569 q 679 692 679 682 q 661 704 679 704 l 178 704 l 178 799 l 713 799 q 814 735 814 799 q 807 699 814 722 q 752 596 792 650 q 643 469 713 542 q 632 450 632 458 q 640 435 632 443 q 763 327 685 390 q 907 221 842 264 l 849 138 q 701 247 788 179 q 560 364 615 315 q 543 372 550 372 q 522 360 538 372 q 369 238 472 314 q 194 119 267 163 l 132 200 z "},"ᆾ":{"ha":1026,"x_min":132,"x_max":907,"o":"m 132 171 q 440 394 281 267 q 649 593 600 521 q 658 614 658 608 q 625 626 658 626 l 178 626 l 178 721 l 403 721 q 429 749 429 721 l 429 869 l 546 869 l 546 749 q 575 721 546 721 l 699 721 q 789 651 789 721 q 788 632 789 639 q 735 530 782 593 q 638 418 688 467 q 631 406 631 411 q 642 388 631 399 q 754 293 678 349 q 907 192 831 238 l 858 101 q 700 205 785 142 q 560 322 615 268 q 544 331 551 331 q 522 318 539 331 q 358 198 456 267 q 186 83 261 129 l 132 171 z "},"ᆿ":{"ha":1026,"x_min":174,"x_max":843,"o":"m 726 326 q 696 357 726 357 l 174 357 l 174 451 l 696 451 q 726 482 726 451 l 726 646 q 715 680 726 668 q 681 692 703 692 l 179 692 l 179 786 l 726 786 q 815 758 786 786 q 843 671 843 731 l 843 115 l 726 115 l 726 326 z "},"ᇀ":{"ha":1026,"x_min":196,"x_max":840,"o":"m 313 115 q 224 143 253 115 q 196 231 196 171 l 196 778 l 829 778 l 829 683 l 343 683 q 313 653 313 683 l 313 525 q 343 494 313 494 l 819 494 l 819 408 l 343 408 q 313 378 313 408 l 313 256 q 324 222 313 233 q 358 210 336 210 l 840 210 l 840 115 l 313 115 z "},"ᇁ":{"ha":1026,"x_min":153,"x_max":871,"o":"m 153 219 l 260 219 q 290 250 290 219 l 290 642 q 260 672 290 672 l 156 672 l 156 765 l 868 765 l 868 672 l 764 672 q 733 642 733 672 l 733 250 q 764 219 733 219 l 871 219 l 871 126 l 153 126 l 153 219 m 400 250 q 431 219 400 219 l 593 219 q 624 250 624 219 l 624 642 q 593 672 624 672 l 431 672 q 400 642 400 672 l 400 250 z "},"ᇂ":{"ha":1026,"x_min":133,"x_max":893,"o":"m 517 69 q 385 101 443 69 q 294 186 326 132 q 261 306 261 240 q 294 425 261 371 q 385 510 326 479 q 517 542 443 542 q 649 511 590 542 q 740 427 707 481 q 772 306 772 374 q 740 184 772 238 q 649 100 707 131 q 517 69 590 69 m 133 706 l 431 706 q 457 733 457 706 l 457 854 l 574 854 l 574 733 q 603 706 574 706 l 893 706 l 893 614 l 133 614 l 133 706 m 378 306 q 419 205 378 246 q 517 164 460 164 q 615 203 575 164 q 656 306 656 243 q 615 408 656 368 q 517 447 575 447 q 419 406 460 447 q 378 306 378 365 z "},"가":{"ha":1067,"x_min":60,"x_max":1049,"o":"m 60 175 q 342 448 240 306 q 471 703 443 590 q 478 743 478 733 q 469 760 478 756 q 440 764 461 764 l 93 764 l 93 860 l 483 860 q 568 838 542 860 q 594 768 594 817 q 589 717 594 756 q 442 403 561 569 q 142 101 324 238 l 60 175 m 747 911 l 864 911 l 864 590 q 894 560 864 560 l 1049 560 l 1049 465 l 894 465 q 864 435 864 465 l 864 28 l 747 28 l 747 911 z "},"각":{"ha":1053,"x_min":60,"x_max":1035,"o":"m 60 407 q 232 515 146 449 q 381 651 318 581 q 465 778 444 722 q 476 818 476 807 q 467 835 476 831 q 435 839 457 839 l 93 839 l 93 933 l 483 933 q 594 846 594 933 q 586 790 594 822 q 485 606 563 697 q 309 442 408 515 q 114 322 210 369 l 60 407 m 224 229 l 747 229 q 835 201 807 229 q 863 114 863 174 l 863 -192 l 746 -192 l 746 89 q 733 123 746 111 q 700 135 721 135 l 224 135 l 224 229 m 746 981 l 863 981 l 863 772 q 893 742 863 742 l 1035 742 l 1035 647 l 893 647 q 863 617 863 647 l 863 318 l 746 318 l 746 981 z "},"갂":{"ha":1236,"x_min":0,"x_max":0,"o":""},"갃":{"ha":1236,"x_min":0,"x_max":0,"o":""},"간":{"ha":1053,"x_min":60,"x_max":1035,"o":"m 60 399 q 231 508 146 440 q 381 649 317 575 q 465 778 444 722 q 476 818 476 807 q 467 835 476 831 q 435 839 457 839 l 93 839 l 93 933 l 483 933 q 567 913 540 933 q 594 849 594 893 q 586 790 594 824 q 488 605 564 697 q 314 438 413 513 q 119 314 215 363 l 60 399 m 233 200 l 350 200 l 350 -37 q 362 -72 350 -60 q 396 -83 374 -83 l 888 -83 l 888 -178 l 350 -178 q 262 -150 290 -178 q 233 -62 233 -122 l 233 200 m 746 981 l 863 981 l 863 725 q 893 694 863 694 l 1035 694 l 1035 600 l 893 600 q 863 569 863 600 l 863 157 l 746 157 l 746 981 z "},"갅":{"ha":1236,"x_min":0,"x_max":0,"o":""},"갆":{"ha":1236,"x_min":0,"x_max":0,"o":""},"갇":{"ha":1053,"x_min":60,"x_max":1035,"o":"m 60 438 q 316 602 193 501 q 471 776 439 703 q 482 817 482 806 q 472 833 482 829 q 440 838 463 838 l 93 838 l 93 933 l 483 933 q 567 913 540 933 q 594 849 594 893 q 586 790 594 824 q 415 549 554 664 q 114 353 276 433 l 60 438 m 232 240 l 868 240 l 868 144 l 379 144 q 349 114 349 144 l 349 -51 q 392 -94 349 -94 l 886 -94 l 886 -189 l 346 -189 q 259 -162 286 -189 q 232 -76 232 -136 l 232 240 m 746 981 l 863 981 l 863 772 q 893 742 863 742 l 1035 742 l 1035 647 l 893 647 q 863 617 863 647 l 863 332 l 746 332 l 746 981 z "},"갈":{"ha":1053,"x_min":61,"x_max":1035,"o":"m 340 -208 q 253 -182 281 -208 q 226 -96 226 -156 l 226 96 l 717 96 q 747 126 747 96 l 747 176 q 717 207 747 207 l 224 207 l 224 301 l 863 301 l 863 7 l 374 7 q 343 -24 343 7 l 343 -71 q 386 -114 343 -114 l 886 -114 l 886 -208 l 340 -208 m 61 454 q 331 632 233 543 q 461 790 428 721 q 474 829 474 815 q 463 847 474 842 q 431 853 453 853 l 93 853 l 93 947 l 481 947 q 594 864 594 947 q 585 806 594 836 q 430 583 554 700 q 121 369 306 467 l 61 454 m 746 994 l 863 994 l 863 785 q 893 754 863 754 l 1035 754 l 1035 660 l 893 660 q 863 629 863 660 l 863 382 l 746 382 l 746 994 z "},"갉":{"ha":1053,"x_min":61,"x_max":1035,"o":"m 61 449 q 330 627 232 536 q 461 790 428 718 q 474 829 474 815 q 463 847 474 842 q 431 853 453 853 l 93 853 l 93 947 l 481 947 q 594 864 594 947 q 585 806 594 836 q 429 579 554 699 q 121 364 304 460 l 61 449 m 176 296 l 489 296 l 489 -1 l 313 -1 q 299 -5 303 -1 q 296 -18 296 -8 l 296 -82 q 302 -105 296 -99 q 325 -111 308 -111 l 524 -111 l 524 -206 l 279 -206 q 201 -183 224 -206 q 179 -107 179 -161 l 179 88 l 360 88 q 373 91 369 88 q 376 104 376 94 l 376 185 q 373 198 376 194 q 360 201 369 201 l 176 201 l 176 296 m 553 296 l 760 296 q 839 272 815 296 q 863 193 863 247 l 863 -212 l 749 -212 l 749 169 q 717 201 749 201 l 553 201 l 553 296 m 746 994 l 863 994 l 863 785 q 893 754 863 754 l 1035 754 l 1035 660 l 893 660 q 863 629 863 660 l 863 371 l 746 371 l 746 994 z "},"갊":{"ha":1053,"x_min":61,"x_max":1035,"o":"m 61 449 q 330 627 232 536 q 461 790 428 718 q 474 829 474 815 q 463 847 474 842 q 431 853 453 853 l 93 853 l 93 947 l 481 947 q 594 864 594 947 q 585 806 594 836 q 429 579 554 699 q 121 364 304 460 l 61 449 m 171 296 l 469 296 l 469 -1 l 307 -1 q 294 -5 297 -1 q 290 -18 290 -8 l 290 -82 q 297 -105 290 -99 q 319 -111 303 -111 l 483 -111 l 483 -206 l 274 -206 q 196 -183 218 -206 q 174 -107 174 -161 l 174 88 l 342 88 q 355 91 351 88 q 358 104 358 94 l 358 185 q 355 198 358 194 q 342 201 351 201 l 171 201 l 171 296 m 542 296 l 863 296 l 863 -206 l 635 -206 q 562 -183 582 -206 q 542 -106 542 -161 l 542 296 m 653 -82 q 659 -104 653 -99 q 681 -110 665 -110 l 735 -110 q 749 -107 746 -110 q 751 -93 751 -104 l 751 185 q 748 198 751 194 q 735 201 744 201 l 669 201 q 656 198 660 201 q 653 185 653 194 l 653 -82 m 746 994 l 863 994 l 863 785 q 893 754 863 754 l 1035 754 l 1035 660 l 893 660 q 863 629 863 660 l 863 371 l 746 371 l 746 994 z "},"갋":{"ha":1389,"x_min":0,"x_max":0,"o":""},"갌":{"ha":1236,"x_min":0,"x_max":0,"o":""},"갍":{"ha":1236,"x_min":0,"x_max":0,"o":""},"갎":{"ha":1236,"x_min":0,"x_max":0,"o":""},"갏":{"ha":1236,"x_min":0,"x_max":0,"o":""},"감":{"ha":1053,"x_min":60,"x_max":1035,"o":"m 60 438 q 316 602 193 501 q 471 776 439 703 q 482 817 482 806 q 472 833 482 829 q 440 838 463 838 l 93 838 l 93 933 l 483 933 q 567 913 540 933 q 594 849 594 893 q 586 790 594 824 q 415 549 554 664 q 114 353 276 433 l 60 438 m 226 240 l 863 240 l 863 -189 l 340 -189 q 253 -162 281 -189 q 226 -76 226 -136 l 226 240 m 343 -51 q 386 -94 343 -94 l 715 -94 q 746 -64 746 -94 l 746 114 q 715 144 746 144 l 374 144 q 343 114 343 144 l 343 -51 m 746 981 l 863 981 l 863 767 q 893 736 863 736 l 1035 736 l 1035 642 l 893 642 q 863 611 863 642 l 863 332 l 746 332 l 746 981 z "},"갑":{"ha":1053,"x_min":60,"x_max":1035,"o":"m 60 421 q 233 527 146 463 q 385 659 321 592 q 471 776 450 726 q 482 817 482 806 q 472 833 482 829 q 440 838 463 838 l 93 838 l 93 933 l 483 933 q 567 913 540 933 q 594 849 594 893 q 586 790 594 824 q 488 615 564 703 q 310 456 411 528 q 114 336 210 383 l 60 421 m 225 258 l 340 258 l 340 169 q 371 139 340 139 l 717 139 q 747 169 747 139 l 747 258 l 863 258 l 863 -201 l 340 -201 q 253 -174 281 -201 q 225 -86 225 -146 l 225 258 m 340 -61 q 353 -95 340 -83 q 386 -107 365 -107 l 717 -107 q 747 -76 747 -107 l 747 14 q 717 44 747 44 l 371 44 q 340 14 340 44 l 340 -61 m 746 981 l 863 981 l 863 767 q 893 736 863 736 l 1035 736 l 1035 642 l 893 642 q 863 611 863 642 l 863 332 l 746 332 l 746 981 z "},"값":{"ha":1053,"x_min":60,"x_max":1035,"o":"m 60 421 q 233 527 146 463 q 385 659 321 592 q 471 776 450 726 q 482 817 482 806 q 472 833 482 829 q 440 838 463 838 l 93 838 l 93 933 l 483 933 q 567 913 540 933 q 594 849 594 893 q 586 790 594 824 q 488 615 564 703 q 310 456 411 528 q 114 336 210 383 l 60 421 m 172 258 l 288 258 l 288 161 q 292 143 288 147 q 310 139 296 139 l 354 139 q 373 143 369 139 q 376 161 376 147 l 376 258 l 489 258 l 489 -201 l 279 -201 q 196 -178 219 -201 q 172 -94 172 -154 l 172 258 m 288 -69 q 296 -99 288 -92 q 325 -107 304 -107 l 354 -107 q 373 -103 369 -107 q 376 -85 376 -100 l 376 22 q 373 41 376 38 q 354 44 369 44 l 310 44 q 292 41 296 44 q 288 22 288 38 l 288 -69 m 524 -165 q 606 -25 579 -79 q 644 94 632 29 q 656 261 656 160 l 761 261 q 756 147 761 204 l 754 131 q 760 104 754 119 q 824 -28 781 43 q 911 -147 867 -100 l 842 -214 q 774 -133 807 -179 q 718 -39 742 -86 q 706 -40 713 -26 q 604 -221 664 -136 l 524 -165 m 746 981 l 863 981 l 863 767 q 893 736 863 736 l 1035 736 l 1035 642 l 893 642 q 863 611 863 642 l 863 332 l 746 332 l 746 981 z "},"갓":{"ha":1053,"x_min":60,"x_max":1035,"o":"m 156 -132 q 399 55 318 -39 q 479 239 479 149 l 479 258 l 596 258 q 578 135 596 207 q 574 121 574 126 q 585 99 574 110 q 735 -22 643 42 q 904 -117 828 -85 l 861 -206 q 690 -115 778 -172 q 535 3 601 -57 q 514 15 521 15 q 496 3 507 15 q 369 -115 444 -56 q 208 -218 293 -175 l 156 -132 m 60 407 q 232 515 146 449 q 381 651 318 581 q 465 778 444 722 q 476 818 476 807 q 467 835 476 831 q 435 839 457 839 l 93 839 l 93 933 l 483 933 q 594 846 594 933 q 586 790 594 822 q 485 606 563 697 q 309 442 408 515 q 114 322 210 369 l 60 407 m 746 981 l 863 981 l 863 758 q 893 728 863 728 l 1035 728 l 1035 633 l 893 633 q 863 603 863 633 l 863 242 l 746 242 l 746 981 z "},"갔":{"ha":1053,"x_min":60,"x_max":1035,"o":"m 60 421 q 233 527 146 463 q 385 659 321 592 q 471 776 450 726 q 482 817 482 806 q 472 833 482 829 q 440 838 463 838 l 93 838 l 93 933 l 483 933 q 567 913 540 933 q 594 849 594 893 q 586 790 594 824 q 488 615 564 703 q 310 456 411 528 q 114 336 210 383 l 60 421 m 97 -146 q 212 -12 172 -71 q 267 109 251 47 q 283 258 283 171 l 396 258 q 388 149 396 200 q 385 125 385 129 q 394 100 385 114 q 526 -47 457 13 q 608 91 583 21 q 632 258 632 161 l 744 258 q 736 149 744 200 q 735 129 735 140 q 744 100 735 118 q 843 -17 785 44 q 964 -118 901 -78 l 908 -200 q 794 -115 849 -165 q 699 -10 740 -64 q 690 -3 694 -3 q 681 -11 685 -3 q 603 -121 651 -61 q 508 -215 554 -181 l 432 -146 l 460 -119 q 350 -10 406 -78 q 340 -3 343 -3 q 332 -11 336 -3 q 174 -215 258 -137 l 97 -146 m 746 981 l 863 981 l 863 772 q 893 742 863 742 l 1035 742 l 1035 647 l 893 647 q 863 617 863 647 l 863 332 l 746 332 l 746 981 z "},"강":{"ha":1053,"x_min":60,"x_max":1035,"o":"m 60 407 q 232 515 146 449 q 381 651 318 581 q 465 778 444 722 q 476 818 476 807 q 467 835 476 831 q 435 839 457 839 l 93 839 l 93 933 l 483 933 q 594 846 594 933 q 586 790 594 822 q 485 606 563 697 q 309 442 408 515 q 114 322 210 369 l 60 407 m 285 47 q 322 177 285 118 q 423 271 358 236 q 567 306 488 306 q 708 271 644 306 q 808 177 772 236 q 844 47 844 118 q 808 -83 844 -24 q 709 -176 772 -142 q 567 -210 646 -210 q 423 -176 488 -210 q 322 -83 358 -142 q 285 47 285 -24 m 401 47 q 447 -70 401 -25 q 567 -115 493 -115 q 686 -69 639 -115 q 733 47 733 -24 q 686 163 733 118 q 567 208 639 208 q 447 163 493 208 q 401 47 401 118 m 746 981 l 863 981 l 863 786 q 893 756 863 756 l 1035 756 l 1035 661 l 893 661 q 863 631 863 661 l 863 346 l 746 346 l 746 981 z "},"갖":{"ha":1053,"x_min":60,"x_max":1035,"o":"m 60 438 q 316 602 193 501 q 471 776 439 703 q 482 817 482 806 q 472 833 482 829 q 440 838 463 838 l 93 838 l 93 933 l 483 933 q 567 913 540 933 q 594 849 594 893 q 586 790 594 824 q 415 549 554 664 q 114 353 276 433 l 60 438 m 175 -131 q 488 140 488 -8 l 488 146 l 214 146 l 214 240 l 869 240 l 869 146 l 604 146 q 590 67 603 103 q 585 53 585 56 q 593 39 585 46 q 736 -47 647 -3 q 907 -115 825 -90 l 875 -207 q 692 -140 788 -185 q 543 -51 596 -94 q 525 -42 532 -42 q 511 -49 521 -42 q 385 -139 458 -94 q 228 -217 313 -183 l 175 -131 m 746 981 l 863 981 l 863 767 q 893 736 863 736 l 1035 736 l 1035 642 l 893 642 q 863 611 863 642 l 863 332 l 746 332 l 746 981 z "},"갗":{"ha":1053,"x_min":60,"x_max":1035,"o":"m 60 407 q 232 515 146 449 q 381 651 318 581 q 465 778 444 722 q 476 818 476 807 q 467 835 476 831 q 435 839 457 839 l 93 839 l 93 933 l 483 933 q 594 846 594 933 q 586 790 594 822 q 485 606 563 697 q 309 442 408 515 q 114 322 210 369 l 60 407 m 175 -131 q 417 -2 349 -62 q 488 121 485 58 l 214 121 l 214 213 l 472 213 q 485 216 482 213 q 488 229 488 219 l 488 314 l 604 314 l 604 229 q 608 216 604 219 q 621 213 611 213 l 869 213 l 869 121 l 604 121 q 590 53 603 93 q 585 39 585 42 q 593 25 585 32 q 907 -115 688 -47 l 875 -207 q 686 -144 779 -182 q 543 -65 593 -106 q 525 -56 532 -56 q 511 -62 521 -56 q 228 -217 422 -140 l 175 -131 m 746 981 l 863 981 l 863 767 q 893 736 863 736 l 1035 736 l 1035 642 l 893 642 q 863 611 863 642 l 863 332 l 746 332 l 746 981 z "},"갘":{"ha":1236,"x_min":0,"x_max":0,"o":""},"같":{"ha":1053,"x_min":61,"x_max":1035,"o":"m 343 -208 q 255 -181 283 -208 q 226 -93 226 -153 l 226 301 l 869 301 l 869 207 l 374 207 q 343 176 343 207 l 343 126 q 374 96 343 96 l 857 96 l 857 7 l 374 7 q 343 -24 343 7 l 343 -68 q 355 -102 343 -90 q 389 -114 367 -114 l 886 -114 l 886 -208 l 343 -208 m 61 454 q 331 632 233 543 q 461 790 428 721 q 474 829 474 815 q 463 847 474 842 q 431 853 453 853 l 93 853 l 93 947 l 481 947 q 594 864 594 947 q 585 806 594 836 q 430 583 554 700 q 121 369 306 467 l 61 454 m 746 994 l 863 994 l 863 785 q 893 754 863 754 l 1035 754 l 1035 660 l 893 660 q 863 629 863 660 l 863 382 l 746 382 l 746 994 z "},"갚":{"ha":1053,"x_min":60,"x_max":1035,"o":"m 60 438 q 316 602 193 501 q 471 776 439 703 q 482 817 482 806 q 472 833 482 829 q 440 838 463 838 l 93 838 l 93 933 l 483 933 q 567 913 540 933 q 594 849 594 893 q 586 790 594 824 q 415 549 554 664 q 114 353 276 433 l 60 438 m 194 -96 l 303 -96 q 333 -65 333 -96 l 333 117 q 303 147 333 147 l 197 147 l 197 240 l 892 240 l 892 147 l 786 147 q 756 117 756 147 l 756 -65 q 786 -96 756 -96 l 894 -96 l 894 -189 l 194 -189 l 194 -96 m 443 -65 q 474 -96 443 -96 l 615 -96 q 646 -65 646 -96 l 646 117 q 615 147 646 147 l 474 147 q 443 117 443 147 l 443 -65 m 746 981 l 863 981 l 863 767 q 893 736 863 736 l 1035 736 l 1035 642 l 893 642 q 863 611 863 642 l 863 332 l 746 332 l 746 981 z "},"갛":{"ha":1053,"x_min":61,"x_max":1035,"o":"m 61 482 q 331 651 235 571 q 461 790 428 731 q 474 828 474 814 q 431 853 474 853 l 93 853 l 93 947 l 481 947 q 594 864 594 947 q 585 806 594 836 q 431 599 556 707 q 121 397 307 492 l 61 482 m 200 306 l 474 306 q 486 309 483 306 q 489 322 489 313 l 489 407 l 606 407 l 606 322 q 609 309 606 313 q 622 306 613 306 l 892 306 l 892 214 l 200 214 l 200 306 m 319 -31 q 349 69 319 25 q 430 138 379 113 q 543 163 481 163 q 659 138 607 163 q 741 69 711 114 q 771 -31 771 25 q 741 -129 771 -85 q 659 -199 711 -174 q 543 -224 607 -224 q 430 -199 481 -224 q 349 -129 379 -174 q 319 -31 319 -85 m 436 -31 q 467 -103 436 -74 q 543 -132 499 -132 q 622 -103 590 -132 q 654 -31 654 -74 q 622 41 654 13 q 543 69 590 69 q 467 41 497 69 q 436 -31 436 13 m 746 994 l 863 994 l 863 792 q 893 761 863 761 l 1035 761 l 1035 667 l 893 667 q 863 636 863 667 l 863 401 l 746 401 l 746 994 z "},"개":{"ha":1069,"x_min":35,"x_max":956,"o":"m 839 433 q 808 464 839 464 l 732 464 q 701 433 701 464 l 701 33 l 586 33 l 586 910 l 701 910 l 701 589 q 732 558 701 558 l 808 558 q 839 589 839 558 l 839 925 l 956 925 l 956 11 l 839 11 l 839 433 m 35 172 q 247 446 167 303 q 354 701 326 589 q 361 740 361 732 q 353 758 361 753 q 324 763 344 763 l 74 763 l 74 858 l 367 858 q 451 838 425 858 q 476 768 476 817 q 471 715 476 743 q 351 408 444 571 q 121 106 258 244 l 35 172 z "},"객":{"ha":1085,"x_min":35,"x_max":971,"o":"m 854 89 q 842 123 854 111 q 808 135 831 135 l 258 135 l 258 229 l 854 229 q 942 201 914 229 q 971 113 971 172 l 971 -192 l 854 -192 l 854 89 m 35 403 q 249 577 163 481 q 365 767 335 674 q 374 806 374 794 q 365 823 374 818 q 335 828 356 828 l 74 828 l 74 924 l 378 924 q 462 903 436 924 q 488 835 488 882 q 482 781 488 808 q 349 530 457 653 q 97 322 242 407 l 35 403 m 601 971 l 717 971 l 717 776 q 747 746 717 746 l 824 746 q 854 776 854 746 l 854 981 l 971 981 l 971 319 l 854 319 l 854 621 q 824 651 854 651 l 747 651 q 717 621 717 651 l 717 331 l 601 331 l 601 971 z "},"갞":{"ha":1236,"x_min":0,"x_max":0,"o":""},"갟":{"ha":1236,"x_min":0,"x_max":0,"o":""},"갠":{"ha":1085,"x_min":35,"x_max":982,"o":"m 854 590 q 824 621 854 621 l 747 621 q 717 590 717 621 l 717 164 l 601 164 l 601 971 l 717 971 l 717 776 q 724 728 717 740 q 747 715 731 715 l 824 715 q 847 728 839 715 q 854 776 854 740 l 854 981 l 971 981 l 971 153 l 854 153 l 854 590 m 35 394 q 249 573 163 474 q 365 767 335 672 q 374 806 374 794 q 365 823 374 818 q 335 828 356 828 l 74 828 l 74 924 l 378 924 q 462 903 436 924 q 488 835 488 882 q 482 781 488 808 q 349 527 457 653 q 97 314 242 401 l 35 394 m 268 200 l 385 200 l 385 -37 q 397 -72 385 -60 q 431 -83 408 -83 l 982 -83 l 982 -178 l 385 -178 q 297 -150 325 -178 q 268 -62 268 -122 l 268 200 z "},"갡":{"ha":1236,"x_min":0,"x_max":0,"o":""},"갢":{"ha":1236,"x_min":0,"x_max":0,"o":""},"갣":{"ha":1389,"x_min":0,"x_max":0,"o":""},"갤":{"ha":1085,"x_min":35,"x_max":994,"o":"m 375 -208 q 288 -182 315 -208 q 261 -96 261 -156 l 261 96 l 825 96 q 856 126 856 96 l 856 176 q 825 207 856 207 l 258 207 l 258 301 l 971 301 l 971 7 l 408 7 q 378 -24 378 7 l 378 -71 q 421 -114 378 -114 l 994 -114 l 994 -208 l 375 -208 m 35 450 q 255 613 172 533 q 365 781 338 693 q 374 819 374 808 q 365 837 374 832 q 335 842 356 842 l 74 842 l 74 938 l 378 938 q 462 917 436 938 q 488 849 488 896 q 482 794 488 822 q 94 369 439 572 l 35 450 m 601 985 l 717 985 l 717 790 q 747 760 717 760 l 824 760 q 854 790 854 760 l 854 994 l 971 994 l 971 378 l 854 378 l 854 635 q 824 665 854 665 l 747 665 q 717 635 717 665 l 717 389 l 601 389 l 601 985 z "},"갥":{"ha":1236,"x_min":0,"x_max":0,"o":""},"갦":{"ha":1236,"x_min":0,"x_max":0,"o":""},"갧":{"ha":1236,"x_min":0,"x_max":0,"o":""},"갨":{"ha":1236,"x_min":0,"x_max":0,"o":""},"갩":{"ha":1236,"x_min":0,"x_max":0,"o":""},"갪":{"ha":1236,"x_min":0,"x_max":0,"o":""},"갫":{"ha":1236,"x_min":0,"x_max":0,"o":""},"갬":{"ha":1085,"x_min":35,"x_max":971,"o":"m 375 -189 q 288 -162 315 -189 q 261 -76 261 -136 l 261 240 l 971 240 l 971 -189 l 375 -189 m 35 433 q 254 597 171 515 q 365 767 338 679 q 374 806 374 794 q 365 823 374 818 q 335 828 356 828 l 74 828 l 74 924 l 378 924 q 462 903 436 924 q 488 835 488 882 q 482 781 488 808 q 97 353 438 553 l 35 433 m 378 -51 q 421 -94 378 -94 l 824 -94 q 854 -64 854 -94 l 854 114 q 824 144 854 144 l 408 144 q 378 114 378 144 l 378 -51 m 601 971 l 717 971 l 717 776 q 747 746 717 746 l 824 746 q 854 776 854 746 l 854 981 l 971 981 l 971 333 l 854 333 l 854 621 q 824 651 854 651 l 747 651 q 717 621 717 651 l 717 344 l 601 344 l 601 971 z "},"갭":{"ha":1085,"x_min":35,"x_max":971,"o":"m 375 -201 q 288 -174 315 -201 q 260 -86 260 -146 l 260 258 l 375 258 l 375 169 q 406 139 375 139 l 825 139 q 856 169 856 139 l 856 258 l 971 258 l 971 -201 l 375 -201 m 35 417 q 251 586 165 496 q 365 767 336 676 q 374 806 374 794 q 365 823 374 818 q 335 828 356 828 l 74 828 l 74 924 l 378 924 q 462 903 436 924 q 488 835 488 882 q 482 781 488 808 q 351 539 457 654 q 97 336 246 424 l 35 417 m 375 -61 q 388 -95 375 -83 q 421 -107 400 -107 l 825 -107 q 856 -76 856 -107 l 856 14 q 825 44 856 44 l 406 44 q 375 14 375 44 l 375 -61 m 601 971 l 717 971 l 717 776 q 747 746 717 746 l 824 746 q 854 776 854 746 l 854 981 l 971 981 l 971 333 l 854 333 l 854 621 q 824 651 854 651 l 747 651 q 717 621 717 651 l 717 344 l 601 344 l 601 971 z "},"갮":{"ha":1236,"x_min":0,"x_max":0,"o":""},"갯":{"ha":1085,"x_min":35,"x_max":1006,"o":"m 190 -132 q 457 45 367 -43 q 547 239 547 133 l 547 258 l 664 258 q 646 135 664 207 q 642 121 642 126 q 653 99 642 110 q 813 -17 706 47 q 1006 -117 919 -81 l 963 -206 q 765 -109 869 -168 q 603 3 661 -50 q 582 15 589 15 q 564 3 576 15 q 426 -109 515 -49 q 243 -218 338 -169 l 190 -132 m 35 403 q 249 577 163 481 q 365 767 335 674 q 374 806 374 794 q 365 823 374 818 q 335 828 356 828 l 74 828 l 74 924 l 378 924 q 462 903 436 924 q 488 835 488 882 q 482 781 488 808 q 349 530 457 653 q 97 322 242 407 l 35 403 m 601 971 l 717 971 l 717 776 q 747 746 717 746 l 824 746 q 854 776 854 746 l 854 981 l 971 981 l 971 239 l 854 239 l 854 621 q 824 651 854 651 l 747 651 q 717 621 717 651 l 717 333 l 601 333 l 601 971 z "},"갰":{"ha":1085,"x_min":35,"x_max":1014,"o":"m 35 417 q 251 586 165 496 q 365 767 336 676 q 374 806 374 794 q 365 823 374 818 q 335 828 356 828 l 74 828 l 74 924 l 378 924 q 462 903 436 924 q 488 835 488 882 q 482 781 488 808 q 351 539 457 654 q 97 336 246 424 l 35 417 m 118 -146 q 239 -12 197 -71 q 297 109 281 47 q 314 258 314 171 l 426 258 q 418 149 426 200 q 415 125 415 129 q 425 100 415 114 q 564 -49 492 10 q 649 91 624 21 q 674 258 674 161 l 786 258 q 778 149 786 200 l 775 126 q 785 100 775 115 q 887 -15 825 46 q 1014 -118 949 -76 l 960 -200 q 840 -113 897 -165 q 740 -10 782 -61 q 731 -3 733 -3 q 721 -11 725 -3 q 640 -121 690 -61 q 542 -215 589 -181 l 465 -146 l 494 -119 q 381 -10 432 -75 q 371 -3 374 -3 q 361 -11 365 -3 q 286 -117 331 -61 q 194 -215 242 -172 l 118 -146 m 601 971 l 717 971 l 717 776 q 747 746 717 746 l 824 746 q 854 776 854 746 l 854 981 l 971 981 l 971 333 l 854 333 l 854 621 q 824 651 854 651 l 747 651 q 717 621 717 651 l 717 344 l 601 344 l 601 971 z "},"갱":{"ha":1085,"x_min":35,"x_max":971,"o":"m 643 -210 q 494 -175 560 -210 q 391 -81 428 -140 q 354 49 354 -22 q 391 179 354 121 q 494 272 428 238 q 643 306 560 306 q 790 272 725 306 q 891 179 854 238 q 928 49 928 121 q 891 -81 928 -22 q 790 -175 854 -140 q 643 -210 725 -210 m 35 403 q 249 577 163 481 q 365 767 335 674 q 374 806 374 794 q 365 823 374 818 q 335 828 356 828 l 74 828 l 74 924 l 378 924 q 462 903 436 924 q 488 835 488 882 q 482 781 488 808 q 349 530 457 653 q 97 322 242 407 l 35 403 m 471 49 q 519 -67 471 -22 q 643 -112 568 -112 q 764 -67 717 -112 q 811 49 811 -22 q 764 166 811 121 q 643 211 717 211 q 519 166 568 211 q 471 49 471 121 m 601 971 l 717 971 l 717 790 q 747 760 717 760 l 824 760 q 854 790 854 760 l 854 981 l 971 981 l 971 340 l 854 340 l 854 635 q 824 665 854 665 l 747 665 q 717 635 717 665 l 717 386 l 601 386 l 601 971 z "},"갲":{"ha":1236,"x_min":0,"x_max":0,"o":""},"갳":{"ha":1236,"x_min":0,"x_max":0,"o":""},"갴":{"ha":1236,"x_min":0,"x_max":0,"o":""},"갵":{"ha":1236,"x_min":0,"x_max":0,"o":""},"갶":{"ha":1236,"x_min":0,"x_max":0,"o":""},"갷":{"ha":1236,"x_min":0,"x_max":0,"o":""},"갸":{"ha":1067,"x_min":60,"x_max":1049,"o":"m 60 175 q 342 448 240 306 q 471 703 443 590 q 478 743 478 733 q 469 760 478 756 q 440 764 461 764 l 93 764 l 93 860 l 483 860 q 568 838 542 860 q 594 768 594 817 q 589 717 594 756 q 442 403 561 569 q 142 101 324 238 l 60 175 m 747 911 l 864 911 l 864 739 q 894 708 864 708 l 1049 708 l 1049 617 l 894 617 q 864 586 864 617 l 864 440 q 894 410 864 410 l 1049 410 l 1049 318 l 894 318 q 864 288 864 318 l 864 28 l 747 28 l 747 911 z "},"갹":{"ha":1053,"x_min":60,"x_max":1035,"o":"m 60 407 q 232 515 146 449 q 381 651 318 581 q 465 778 444 722 q 476 818 476 807 q 467 835 476 831 q 435 839 457 839 l 93 839 l 93 933 l 483 933 q 594 846 594 933 q 586 790 594 822 q 485 606 563 697 q 309 442 408 515 q 114 322 210 369 l 60 407 m 224 229 l 747 229 q 835 201 807 229 q 863 114 863 174 l 863 -192 l 746 -192 l 746 89 q 733 123 746 111 q 700 135 721 135 l 224 135 l 224 229 m 746 981 l 863 981 l 863 878 q 893 847 863 847 l 1035 847 l 1035 756 l 893 756 q 863 725 863 756 l 863 649 q 893 618 863 618 l 1035 618 l 1035 526 l 893 526 q 863 496 863 526 l 863 318 l 746 318 l 746 981 z "},"갺":{"ha":1236,"x_min":0,"x_max":0,"o":""},"갻":{"ha":1236,"x_min":0,"x_max":0,"o":""},"갼":{"ha":1053,"x_min":60,"x_max":1035,"o":"m 60 399 q 231 508 146 440 q 381 649 317 575 q 465 778 444 722 q 476 818 476 807 q 467 835 476 831 q 435 839 457 839 l 93 839 l 93 933 l 483 933 q 567 913 540 933 q 594 849 594 893 q 586 790 594 824 q 488 605 564 697 q 314 438 413 513 q 119 314 215 363 l 60 399 m 233 200 l 350 200 l 350 -37 q 362 -72 350 -60 q 396 -83 374 -83 l 888 -83 l 888 -178 l 350 -178 q 262 -150 290 -178 q 233 -62 233 -122 l 233 200 m 746 981 l 863 981 l 863 861 q 893 831 863 831 l 1035 831 l 1035 739 l 893 739 q 863 708 863 739 l 863 632 q 893 601 863 601 l 1035 601 l 1035 510 l 893 510 q 863 479 863 510 l 863 157 l 746 157 l 746 981 z "},"갽":{"ha":1236,"x_min":0,"x_max":0,"o":""},"갾":{"ha":1236,"x_min":0,"x_max":0,"o":""},"갿":{"ha":1236,"x_min":0,"x_max":0,"o":""},"걀":{"ha":1053,"x_min":61,"x_max":1035,"o":"m 340 -208 q 253 -182 281 -208 q 226 -96 226 -156 l 226 96 l 717 96 q 747 126 747 96 l 747 176 q 717 207 747 207 l 224 207 l 224 301 l 863 301 l 863 7 l 374 7 q 343 -24 343 7 l 343 -71 q 386 -114 343 -114 l 886 -114 l 886 -208 l 340 -208 m 61 454 q 331 632 233 543 q 461 790 428 721 q 474 829 474 815 q 463 847 474 842 q 431 853 453 853 l 93 853 l 93 947 l 481 947 q 594 864 594 947 q 585 806 594 836 q 430 583 554 700 q 121 369 306 467 l 61 454 m 746 994 l 863 994 l 863 897 q 893 867 863 867 l 1035 867 l 1035 775 l 893 775 q 863 744 863 775 l 863 679 q 893 649 863 649 l 1035 649 l 1035 557 l 893 557 q 863 526 863 557 l 863 382 l 746 382 l 746 994 z "},"걁":{"ha":1236,"x_min":0,"x_max":0,"o":""},"걂":{"ha":1236,"x_min":0,"x_max":0,"o":""},"걃":{"ha":1236,"x_min":0,"x_max":0,"o":""},"걄":{"ha":1236,"x_min":0,"x_max":0,"o":""},"걅":{"ha":1236,"x_min":0,"x_max":0,"o":""},"걆":{"ha":1236,"x_min":0,"x_max":0,"o":""},"걇":{"ha":1236,"x_min":0,"x_max":0,"o":""},"걈":{"ha":1236,"x_min":0,"x_max":0,"o":""},"걉":{"ha":1236,"x_min":0,"x_max":0,"o":""},"걊":{"ha":1236,"x_min":0,"x_max":0,"o":""},"걋":{"ha":1053,"x_min":60,"x_max":1035,"o":"m 156 -132 q 399 55 318 -39 q 479 239 479 149 l 479 258 l 596 258 q 578 135 596 207 q 574 121 574 126 q 585 99 574 110 q 735 -22 643 42 q 904 -117 828 -85 l 861 -206 q 690 -115 778 -172 q 535 3 601 -57 q 514 15 521 15 q 496 3 507 15 q 369 -115 444 -56 q 208 -218 293 -175 l 156 -132 m 60 399 q 231 508 146 440 q 381 649 317 575 q 465 778 444 722 q 476 818 476 807 q 467 835 476 831 q 435 839 457 839 l 93 839 l 93 933 l 483 933 q 567 913 540 933 q 594 849 594 893 q 586 790 594 824 q 488 605 564 697 q 314 438 413 513 q 119 314 215 363 l 60 399 m 746 981 l 863 981 l 863 864 q 893 833 863 833 l 1035 833 l 1035 742 l 893 742 q 863 711 863 742 l 863 635 q 893 604 863 604 l 1035 604 l 1035 513 l 893 513 q 863 482 863 513 l 863 242 l 746 242 l 746 981 z "},"걌":{"ha":1236,"x_min":0,"x_max":0,"o":""},"걍":{"ha":1053,"x_min":60,"x_max":1035,"o":"m 60 407 q 232 515 146 449 q 381 651 318 581 q 465 778 444 722 q 476 818 476 807 q 467 835 476 831 q 435 839 457 839 l 93 839 l 93 933 l 483 933 q 594 846 594 933 q 586 790 594 822 q 485 606 563 697 q 309 442 408 515 q 114 322 210 369 l 60 407 m 285 47 q 322 177 285 118 q 423 271 358 236 q 567 306 488 306 q 708 271 644 306 q 808 177 772 236 q 844 47 844 118 q 808 -83 844 -24 q 709 -176 772 -142 q 567 -210 646 -210 q 423 -176 488 -210 q 322 -83 358 -142 q 285 47 285 -24 m 401 47 q 447 -70 401 -25 q 567 -115 493 -115 q 686 -69 639 -115 q 733 47 733 -24 q 686 163 733 118 q 567 208 639 208 q 447 163 493 208 q 401 47 401 118 m 746 981 l 863 981 l 863 899 q 893 868 863 868 l 1035 868 l 1035 776 l 893 776 q 863 746 863 776 l 863 669 q 893 639 863 639 l 1035 639 l 1035 547 l 893 547 q 863 517 863 547 l 863 346 l 746 346 l 746 981 z "},"걎":{"ha":1236,"x_min":0,"x_max":0,"o":""},"걏":{"ha":1236,"x_min":0,"x_max":0,"o":""},"걐":{"ha":1236,"x_min":0,"x_max":0,"o":""},"걑":{"ha":1236,"x_min":0,"x_max":0,"o":""},"걒":{"ha":1236,"x_min":0,"x_max":0,"o":""},"걓":{"ha":1236,"x_min":0,"x_max":0,"o":""},"걔":{"ha":1069,"x_min":35,"x_max":956,"o":"m 839 288 q 808 318 839 318 l 732 318 q 701 288 701 318 l 701 33 l 586 33 l 586 910 l 701 910 l 701 739 q 732 708 701 708 l 808 708 q 839 739 839 708 l 839 925 l 956 925 l 956 11 l 839 11 l 839 288 m 35 172 q 247 446 167 303 q 354 701 326 589 q 361 740 361 732 q 353 758 361 753 q 324 763 344 763 l 74 763 l 74 858 l 367 858 q 451 838 425 858 q 476 768 476 817 q 471 715 476 743 q 351 408 444 571 q 121 106 258 244 l 35 172 m 701 440 q 732 410 701 410 l 808 410 q 839 440 839 410 l 839 586 q 808 617 839 617 l 732 617 q 701 586 701 617 l 701 440 z "},"걕":{"ha":1236,"x_min":0,"x_max":0,"o":""},"걖":{"ha":1236,"x_min":0,"x_max":0,"o":""},"걗":{"ha":1236,"x_min":0,"x_max":0,"o":""},"걘":{"ha":1085,"x_min":35,"x_max":982,"o":"m 854 479 q 824 510 854 510 l 747 510 q 717 479 717 510 l 717 164 l 601 164 l 601 971 l 717 971 l 717 892 q 724 843 717 856 q 747 831 731 831 l 824 831 q 847 843 839 831 q 854 892 854 856 l 854 981 l 971 981 l 971 153 l 854 153 l 854 479 m 35 394 q 249 573 163 474 q 365 767 335 672 q 374 806 374 794 q 365 823 374 818 q 335 828 356 828 l 74 828 l 74 924 l 378 924 q 462 903 436 924 q 488 835 488 882 q 482 781 488 808 q 349 527 457 653 q 97 314 242 401 l 35 394 m 268 200 l 385 200 l 385 -37 q 397 -72 385 -60 q 431 -83 408 -83 l 982 -83 l 982 -178 l 385 -178 q 297 -150 325 -178 q 268 -62 268 -122 l 268 200 m 717 632 q 747 601 717 601 l 824 601 q 854 632 854 601 l 854 708 q 824 739 854 739 l 747 739 q 717 708 717 739 l 717 632 z "},"걙":{"ha":1236,"x_min":0,"x_max":0,"o":""},"걚":{"ha":1236,"x_min":0,"x_max":0,"o":""},"걛":{"ha":1236,"x_min":0,"x_max":0,"o":""},"걜":{"ha":1085,"x_min":35,"x_max":994,"o":"m 375 -208 q 288 -182 315 -208 q 261 -96 261 -156 l 261 96 l 825 96 q 856 126 856 96 l 856 176 q 825 207 856 207 l 258 207 l 258 301 l 971 301 l 971 7 l 408 7 q 378 -24 378 7 l 378 -71 q 421 -114 378 -114 l 994 -114 l 994 -208 l 375 -208 m 35 450 q 255 613 172 533 q 365 781 338 693 q 374 819 374 808 q 365 837 374 832 q 335 842 356 842 l 74 842 l 74 938 l 378 938 q 462 917 436 938 q 488 849 488 896 q 482 794 488 822 q 94 369 439 572 l 35 450 m 601 985 l 717 985 l 717 897 q 747 867 717 867 l 824 867 q 854 897 854 867 l 854 994 l 971 994 l 971 378 l 854 378 l 854 526 q 824 557 854 557 l 747 557 q 717 526 717 557 l 717 389 l 601 389 l 601 985 m 717 679 q 747 649 717 649 l 824 649 q 854 679 854 649 l 854 744 q 824 775 854 775 l 747 775 q 717 744 717 775 l 717 679 z "},"걝":{"ha":1236,"x_min":0,"x_max":0,"o":""},"걞":{"ha":1236,"x_min":0,"x_max":0,"o":""},"걟":{"ha":1236,"x_min":0,"x_max":0,"o":""},"걠":{"ha":1236,"x_min":0,"x_max":0,"o":""},"걡":{"ha":1236,"x_min":0,"x_max":0,"o":""},"걢":{"ha":1236,"x_min":0,"x_max":0,"o":""},"걣":{"ha":1236,"x_min":0,"x_max":0,"o":""},"걤":{"ha":1236,"x_min":0,"x_max":0,"o":""},"걥":{"ha":1389,"x_min":0,"x_max":0,"o":""},"걦":{"ha":1236,"x_min":0,"x_max":0,"o":""},"걧":{"ha":1236,"x_min":0,"x_max":0,"o":""},"걨":{"ha":1236,"x_min":0,"x_max":0,"o":""},"걩":{"ha":1236,"x_min":0,"x_max":0,"o":""},"걪":{"ha":1236,"x_min":0,"x_max":0,"o":""},"걫":{"ha":1236,"x_min":0,"x_max":0,"o":""},"걬":{"ha":1236,"x_min":0,"x_max":0,"o":""},"걭":{"ha":1236,"x_min":0,"x_max":0,"o":""},"걮":{"ha":1236,"x_min":0,"x_max":0,"o":""},"걯":{"ha":1236,"x_min":0,"x_max":0,"o":""},"거":{"ha":1028,"x_min":60,"x_max":906,"o":"m 60 175 q 342 448 240 306 q 471 703 443 590 q 478 743 478 733 q 469 760 478 756 q 440 764 461 764 l 93 764 l 93 860 l 483 860 q 568 838 542 860 q 594 768 594 817 q 589 717 594 756 q 442 403 561 569 q 142 101 324 238 l 60 175 m 600 558 l 758 558 q 789 589 789 558 l 789 911 l 906 911 l 906 28 l 789 28 l 789 432 q 758 463 789 463 l 600 463 l 600 558 z "},"걱":{"ha":1042,"x_min":60,"x_max":919,"o":"m 60 407 q 232 515 146 449 q 381 651 318 581 q 465 778 444 722 q 476 818 476 807 q 467 835 476 831 q 435 839 457 839 l 93 839 l 93 933 l 483 933 q 594 846 594 933 q 586 790 594 822 q 485 606 563 697 q 309 442 408 515 q 114 322 210 369 l 60 407 m 251 229 l 803 229 q 891 201 863 229 q 919 113 919 172 l 919 -192 l 803 -192 l 803 89 q 791 123 803 111 q 757 135 779 135 l 251 135 l 251 229 m 607 700 l 772 700 q 803 731 803 700 l 803 981 l 919 981 l 919 318 l 803 318 l 803 575 q 772 606 803 606 l 607 606 l 607 700 z "},"걲":{"ha":1236,"x_min":0,"x_max":0,"o":""},"걳":{"ha":1236,"x_min":0,"x_max":0,"o":""},"건":{"ha":1042,"x_min":60,"x_max":932,"o":"m 60 399 q 231 508 146 440 q 381 649 317 575 q 465 778 444 722 q 476 818 476 807 q 467 835 476 831 q 435 839 457 839 l 93 839 l 93 933 l 483 933 q 567 913 540 933 q 594 849 594 893 q 586 790 594 824 q 488 605 564 697 q 314 438 413 513 q 119 314 215 363 l 60 399 m 261 200 l 378 200 l 378 -37 q 390 -72 378 -60 q 424 -83 401 -83 l 932 -83 l 932 -178 l 378 -178 q 290 -150 318 -178 q 261 -62 261 -122 l 261 200 m 607 682 l 772 682 q 803 713 803 682 l 803 981 l 919 981 l 919 157 l 803 157 l 803 560 q 772 590 803 590 l 607 590 l 607 682 z "},"걵":{"ha":1236,"x_min":0,"x_max":0,"o":""},"걶":{"ha":1236,"x_min":0,"x_max":0,"o":""},"걷":{"ha":1042,"x_min":60,"x_max":943,"o":"m 60 438 q 316 602 193 501 q 471 776 439 703 q 482 817 482 806 q 472 833 482 829 q 440 838 463 838 l 93 838 l 93 933 l 483 933 q 567 913 540 933 q 594 849 594 893 q 586 790 594 824 q 415 549 554 664 q 114 353 276 433 l 60 438 m 260 240 l 925 240 l 925 144 l 407 144 q 376 114 376 144 l 376 -51 q 419 -94 376 -94 l 943 -94 l 943 -189 l 374 -189 q 287 -162 314 -189 q 260 -76 260 -136 l 260 240 m 607 708 l 772 708 q 803 739 803 708 l 803 981 l 919 981 l 919 332 l 803 332 l 803 583 q 772 614 803 614 l 607 614 l 607 708 z "},"걸":{"ha":1042,"x_min":60,"x_max":931,"o":"m 382 -208 q 295 -182 322 -208 q 268 -96 268 -156 l 268 96 l 774 96 q 804 126 804 96 l 804 176 q 774 207 804 207 l 265 207 l 265 301 l 919 301 l 919 7 l 415 7 q 385 -24 385 7 l 385 -71 q 428 -114 385 -114 l 931 -114 l 931 -208 l 382 -208 m 60 454 q 432 792 340 599 q 444 829 444 817 q 434 847 444 842 q 401 853 424 853 l 93 853 l 93 947 l 454 947 q 568 864 568 947 q 558 806 568 836 q 413 579 528 696 q 119 369 297 463 l 60 454 m 596 729 l 772 729 q 803 760 803 729 l 803 994 l 919 994 l 919 382 l 803 382 l 803 604 q 772 635 803 635 l 596 635 l 596 729 z "},"걹":{"ha":1236,"x_min":0,"x_max":0,"o":""},"걺":{"ha":1042,"x_min":60,"x_max":919,"o":"m 60 449 q 310 622 228 535 q 432 792 393 710 q 444 829 444 817 q 434 847 444 842 q 401 853 424 853 l 93 853 l 93 947 l 454 947 q 568 864 568 947 q 558 806 568 836 q 411 576 526 694 q 119 364 296 457 l 60 449 m 199 296 l 511 296 l 511 -1 l 335 -1 q 322 -5 325 -1 q 318 -18 318 -8 l 318 -82 q 324 -105 318 -99 q 347 -111 331 -111 l 525 -111 l 525 -206 l 301 -206 q 224 -183 246 -206 q 201 -107 201 -161 l 201 88 l 383 88 q 397 91 393 88 q 400 104 400 94 l 400 185 q 397 198 400 194 q 383 201 393 201 l 199 201 l 199 296 m 585 296 l 919 296 l 919 -206 l 678 -206 q 605 -183 625 -206 q 585 -106 585 -161 l 585 296 m 596 729 l 772 729 q 803 760 803 729 l 803 994 l 919 994 l 919 371 l 803 371 l 803 604 q 772 635 803 635 l 596 635 l 596 729 m 696 -82 q 702 -104 696 -99 q 724 -110 708 -110 l 792 -110 q 806 -107 803 -110 q 808 -93 808 -104 l 808 185 q 805 198 808 194 q 792 201 801 201 l 713 201 q 699 198 703 201 q 696 185 696 194 l 696 -82 z "},"걻":{"ha":1236,"x_min":0,"x_max":0,"o":""},"걼":{"ha":1236,"x_min":0,"x_max":0,"o":""},"걽":{"ha":1236,"x_min":0,"x_max":0,"o":""},"걾":{"ha":1236,"x_min":0,"x_max":0,"o":""},"걿":{"ha":1236,"x_min":0,"x_max":0,"o":""},"검":{"ha":1042,"x_min":60,"x_max":919,"o":"m 60 438 q 316 602 193 501 q 471 776 439 703 q 482 817 482 806 q 472 833 482 829 q 440 838 463 838 l 93 838 l 93 933 l 483 933 q 567 913 540 933 q 594 849 594 893 q 586 790 594 824 q 415 549 554 664 q 114 353 276 433 l 60 438 m 254 240 l 919 240 l 919 -189 l 368 -189 q 281 -162 308 -189 q 254 -76 254 -136 l 254 240 m 371 -51 q 414 -94 371 -94 l 772 -94 q 803 -64 803 -94 l 803 114 q 772 144 803 144 l 401 144 q 371 114 371 144 l 371 -51 m 607 708 l 772 708 q 803 739 803 708 l 803 981 l 919 981 l 919 332 l 803 332 l 803 583 q 772 614 803 614 l 607 614 l 607 708 z "},"겁":{"ha":1042,"x_min":60,"x_max":919,"o":"m 60 421 q 233 527 146 463 q 385 659 321 592 q 471 776 450 726 q 482 817 482 806 q 472 833 482 829 q 440 838 463 838 l 93 838 l 93 933 l 483 933 q 567 913 540 933 q 594 849 594 893 q 586 790 594 824 q 488 615 564 703 q 310 456 411 528 q 114 336 210 383 l 60 421 m 253 258 l 368 258 l 368 169 q 399 139 368 139 l 774 139 q 804 169 804 139 l 804 258 l 919 258 l 919 -201 l 368 -201 q 281 -174 308 -201 q 253 -86 253 -146 l 253 258 m 368 -61 q 381 -95 368 -83 q 414 -107 393 -107 l 774 -107 q 804 -76 804 -107 l 804 14 q 774 44 804 44 l 399 44 q 368 14 368 44 l 368 -61 m 607 708 l 772 708 q 803 739 803 708 l 803 981 l 919 981 l 919 332 l 803 332 l 803 583 q 772 614 803 614 l 607 614 l 607 708 z "},"겂":{"ha":1389,"x_min":0,"x_max":0,"o":""},"것":{"ha":1042,"x_min":60,"x_max":960,"o":"m 183 -133 q 440 49 358 -40 q 521 233 521 139 l 521 258 l 638 258 q 619 135 638 207 q 615 121 615 126 q 626 99 615 110 q 781 -19 682 44 q 960 -117 879 -83 l 917 -206 q 734 -112 829 -171 q 576 3 639 -53 q 556 15 563 15 q 538 3 549 15 q 406 -116 485 -57 q 236 -218 328 -175 l 183 -133 m 60 407 q 232 515 146 449 q 381 651 318 581 q 465 778 444 722 q 476 818 476 807 q 467 835 476 831 q 435 839 457 839 l 93 839 l 93 933 l 483 933 q 594 846 594 933 q 586 790 594 822 q 485 606 563 697 q 309 442 408 515 q 114 322 210 369 l 60 407 m 607 688 l 772 688 q 803 718 803 688 l 803 981 l 919 981 l 919 242 l 803 242 l 803 565 q 772 596 803 596 l 607 596 l 607 688 z "},"겄":{"ha":1042,"x_min":60,"x_max":1021,"o":"m 60 421 q 233 527 146 463 q 385 659 321 592 q 471 776 450 726 q 482 817 482 806 q 472 833 482 829 q 440 838 463 838 l 93 838 l 93 933 l 483 933 q 567 913 540 933 q 594 849 594 893 q 586 790 594 824 q 488 615 564 703 q 310 456 411 528 q 114 336 210 383 l 60 421 m 146 -146 q 263 -11 222 -69 q 320 110 303 47 q 338 258 338 172 l 450 258 q 442 149 450 200 q 439 125 439 129 q 449 100 439 114 q 581 -46 513 13 q 662 92 638 22 q 686 258 686 163 l 799 258 q 790 149 799 200 l 788 126 q 797 100 788 115 q 896 -15 835 46 q 1021 -118 957 -76 l 968 -200 q 851 -114 907 -165 q 754 -10 794 -62 q 744 -3 747 -3 q 735 -11 739 -3 q 655 -122 704 -62 q 560 -215 606 -181 l 482 -146 l 513 -118 q 404 -10 457 -76 q 394 -3 397 -3 q 385 -11 389 -3 q 310 -118 353 -62 q 222 -215 268 -174 l 146 -146 m 607 708 l 772 708 q 803 739 803 708 l 803 981 l 919 981 l 919 332 l 803 332 l 803 583 q 772 614 803 614 l 607 614 l 607 708 z "},"겅":{"ha":1042,"x_min":60,"x_max":919,"o":"m 60 407 q 232 515 146 449 q 381 651 318 581 q 465 778 444 722 q 476 818 476 807 q 467 835 476 831 q 435 839 457 839 l 93 839 l 93 933 l 483 933 q 594 846 594 933 q 586 790 594 822 q 485 606 563 697 q 309 442 408 515 q 114 322 210 369 l 60 407 m 347 49 q 384 178 347 119 q 485 272 421 238 q 629 306 550 306 q 772 272 708 306 q 871 178 835 238 q 907 49 907 119 q 871 -81 907 -22 q 771 -175 835 -140 q 629 -210 707 -210 q 485 -175 550 -210 q 384 -81 421 -140 q 347 49 347 -22 m 464 49 q 511 -67 464 -22 q 629 -112 558 -112 q 744 -67 697 -112 q 790 49 790 -21 q 744 165 790 119 q 629 211 697 211 q 511 165 558 211 q 464 49 464 119 m 607 711 l 772 711 q 803 742 803 711 l 803 981 l 919 981 l 919 346 l 803 346 l 803 586 q 772 617 803 617 l 607 617 l 607 711 z "},"겆":{"ha":1042,"x_min":60,"x_max":963,"o":"m 60 438 q 316 602 193 501 q 471 776 439 703 q 482 817 482 806 q 472 833 482 829 q 440 838 463 838 l 93 838 l 93 933 l 483 933 q 567 913 540 933 q 594 849 594 893 q 586 790 594 824 q 415 549 554 664 q 114 353 276 433 l 60 438 m 203 -131 q 529 140 529 -4 l 529 146 l 242 146 l 242 240 l 925 240 l 925 146 l 646 146 q 632 67 644 103 q 626 53 626 56 q 635 39 626 46 q 782 -45 688 -1 q 963 -115 876 -89 l 931 -207 q 738 -138 840 -183 q 585 -51 636 -93 q 567 -42 574 -42 q 553 -49 563 -42 q 424 -137 504 -92 q 256 -217 344 -182 l 203 -131 m 607 708 l 772 708 q 803 739 803 708 l 803 981 l 919 981 l 919 332 l 803 332 l 803 583 q 772 614 803 614 l 607 614 l 607 708 z "},"겇":{"ha":1236,"x_min":0,"x_max":0,"o":""},"겈":{"ha":1236,"x_min":0,"x_max":0,"o":""},"겉":{"ha":1042,"x_min":60,"x_max":931,"o":"m 385 -208 q 297 -181 325 -208 q 268 -93 268 -153 l 268 301 l 914 301 l 914 207 l 415 207 q 385 176 385 207 l 385 126 q 415 96 385 96 l 901 96 l 901 7 l 415 7 q 385 -24 385 7 l 385 -68 q 397 -102 385 -90 q 431 -114 408 -114 l 931 -114 l 931 -208 l 385 -208 m 60 454 q 432 792 340 599 q 444 829 444 817 q 434 847 444 842 q 401 853 424 853 l 93 853 l 93 947 l 454 947 q 568 864 568 947 q 558 806 568 836 q 413 579 528 696 q 119 369 297 463 l 60 454 m 596 729 l 772 729 q 803 760 803 729 l 803 994 l 919 994 l 919 382 l 803 382 l 803 604 q 772 635 803 635 l 596 635 l 596 729 z "},"겊":{"ha":1042,"x_min":60,"x_max":951,"o":"m 222 -96 l 336 -96 q 367 -65 367 -96 l 367 117 q 336 147 367 147 l 225 147 l 225 240 l 949 240 l 949 147 l 838 147 q 807 117 807 147 l 807 -65 q 838 -96 807 -96 l 951 -96 l 951 -189 l 222 -189 l 222 -96 m 60 438 q 316 602 193 501 q 471 776 439 703 q 482 817 482 806 q 472 833 482 829 q 440 838 463 838 l 93 838 l 93 933 l 483 933 q 567 913 540 933 q 594 849 594 893 q 586 790 594 824 q 415 549 554 664 q 114 353 276 433 l 60 438 m 476 -65 q 507 -96 476 -96 l 667 -96 q 697 -65 697 -96 l 697 117 q 667 147 697 147 l 507 147 q 476 117 476 147 l 476 -65 m 607 708 l 772 708 q 803 739 803 708 l 803 981 l 919 981 l 919 332 l 803 332 l 803 583 q 772 614 803 614 l 607 614 l 607 708 z "},"겋":{"ha":1042,"x_min":60,"x_max":944,"o":"m 60 482 q 315 647 232 571 q 432 792 399 722 q 444 829 444 817 q 434 847 444 842 q 401 853 424 853 l 93 853 l 93 947 l 454 947 q 568 864 568 947 q 558 806 568 836 q 119 397 500 597 l 60 482 m 228 306 l 514 306 q 526 309 524 306 q 529 322 529 313 l 529 407 l 646 407 l 646 322 q 649 309 646 313 q 663 306 653 306 l 944 306 l 944 214 l 228 214 l 228 306 m 360 -31 q 390 69 360 25 q 470 138 419 113 q 583 163 521 163 q 699 138 647 163 q 781 69 751 114 q 811 -31 811 25 q 781 -129 811 -85 q 699 -199 751 -174 q 583 -224 647 -224 q 470 -199 521 -224 q 390 -129 419 -174 q 360 -31 360 -85 m 476 -31 q 508 -103 476 -74 q 583 -132 539 -132 q 663 -103 631 -132 q 694 -31 694 -74 q 663 41 694 13 q 583 69 631 69 q 507 41 538 69 q 476 -31 476 13 m 596 729 l 772 729 q 803 760 803 729 l 803 994 l 919 994 l 919 401 l 803 401 l 803 604 q 772 635 803 635 l 596 635 l 596 729 z "},"게":{"ha":1069,"x_min":35,"x_max":956,"o":"m 35 172 q 247 446 167 303 q 354 701 326 589 q 361 740 361 732 q 353 758 361 753 q 324 763 344 763 l 74 763 l 74 858 l 367 858 q 451 838 425 858 q 476 768 476 817 q 471 715 476 743 q 351 408 444 571 q 121 106 258 244 l 35 172 m 449 550 l 575 550 q 606 581 606 550 l 606 910 l 721 910 l 721 33 l 606 33 l 606 428 q 575 458 606 458 l 449 458 l 449 550 m 839 925 l 956 925 l 956 11 l 839 11 l 839 925 z "},"겍":{"ha":1389,"x_min":0,"x_max":0,"o":""},"겎":{"ha":1236,"x_min":0,"x_max":0,"o":""},"겏":{"ha":1236,"x_min":0,"x_max":0,"o":""},"겐":{"ha":1085,"x_min":35,"x_max":982,"o":"m 385 -178 q 297 -150 325 -178 q 268 -62 268 -122 l 268 200 l 385 200 l 385 -37 q 397 -72 385 -60 q 431 -83 408 -83 l 982 -83 l 982 -178 l 385 -178 m 35 394 q 240 572 157 472 q 354 767 324 672 q 363 806 363 794 q 353 823 363 818 q 324 828 344 828 l 74 828 l 74 924 l 367 924 q 451 903 425 924 q 476 833 476 882 q 471 781 476 808 q 342 526 446 649 q 97 314 239 403 l 35 394 m 463 674 l 592 674 q 622 704 622 674 l 622 971 l 738 971 l 738 164 l 622 164 l 622 549 q 592 579 622 579 l 463 579 l 463 674 m 854 981 l 971 981 l 971 153 l 854 153 l 854 981 z "},"겑":{"ha":1236,"x_min":0,"x_max":0,"o":""},"겒":{"ha":1236,"x_min":0,"x_max":0,"o":""},"겓":{"ha":1236,"x_min":0,"x_max":0,"o":""},"겔":{"ha":1085,"x_min":35,"x_max":994,"o":"m 375 -208 q 288 -182 315 -208 q 261 -96 261 -156 l 261 96 l 825 96 q 856 126 856 96 l 856 176 q 825 207 856 207 l 258 207 l 258 301 l 971 301 l 971 7 l 408 7 q 378 -24 378 7 l 378 -71 q 421 -114 378 -114 l 994 -114 l 994 -208 l 375 -208 m 35 450 q 233 613 154 528 q 340 781 311 699 q 350 819 350 804 q 340 837 350 832 q 310 842 331 842 l 74 842 l 74 938 l 353 938 q 437 917 410 938 q 464 850 464 896 q 457 794 464 829 q 334 568 432 679 q 99 369 236 457 l 35 450 m 463 729 l 592 729 q 622 760 622 729 l 622 985 l 738 985 l 738 389 l 622 389 l 622 604 q 592 635 622 635 l 463 635 l 463 729 m 854 994 l 971 994 l 971 378 l 854 378 l 854 994 z "},"겕":{"ha":1236,"x_min":0,"x_max":0,"o":""},"겖":{"ha":1236,"x_min":0,"x_max":0,"o":""},"겗":{"ha":1236,"x_min":0,"x_max":0,"o":""},"겘":{"ha":1236,"x_min":0,"x_max":0,"o":""},"겙":{"ha":1236,"x_min":0,"x_max":0,"o":""},"겚":{"ha":1236,"x_min":0,"x_max":0,"o":""},"겛":{"ha":1236,"x_min":0,"x_max":0,"o":""},"겜":{"ha":1085,"x_min":35,"x_max":971,"o":"m 375 -189 q 288 -162 315 -189 q 261 -76 261 -136 l 261 240 l 971 240 l 971 -189 l 375 -189 m 35 433 q 244 596 164 511 q 354 767 325 681 q 364 806 364 799 q 354 823 364 818 q 324 828 344 828 l 74 828 l 74 924 l 367 924 q 451 903 425 924 q 476 835 476 882 q 471 781 476 808 q 344 549 446 660 q 97 353 243 439 l 35 433 m 378 -51 q 421 -94 378 -94 l 824 -94 q 854 -64 854 -94 l 854 114 q 824 144 854 144 l 408 144 q 378 114 378 144 l 378 -51 m 463 696 l 592 696 q 622 726 622 696 l 622 971 l 738 971 l 738 344 l 622 344 l 622 571 q 592 601 622 601 l 463 601 l 463 696 m 854 981 l 971 981 l 971 333 l 854 333 l 854 981 z "},"겝":{"ha":1085,"x_min":35,"x_max":971,"o":"m 375 -201 q 288 -174 315 -201 q 260 -86 260 -146 l 260 258 l 375 258 l 375 169 q 406 139 375 139 l 825 139 q 856 169 856 139 l 856 258 l 971 258 l 971 -201 l 375 -201 m 35 417 q 243 584 163 494 q 354 767 324 674 q 363 806 363 794 q 353 823 363 818 q 324 828 344 828 l 74 828 l 74 924 l 367 924 q 451 903 425 924 q 476 835 476 882 q 471 781 476 808 q 344 537 446 653 q 97 336 242 421 l 35 417 m 375 -61 q 388 -95 375 -83 q 421 -107 400 -107 l 825 -107 q 856 -76 856 -107 l 856 14 q 825 44 856 44 l 406 44 q 375 14 375 44 l 375 -61 m 463 696 l 592 696 q 622 726 622 696 l 622 971 l 738 971 l 738 344 l 622 344 l 622 571 q 592 601 622 601 l 463 601 l 463 696 m 854 981 l 971 981 l 971 333 l 854 333 l 854 981 z "},"겞":{"ha":1236,"x_min":0,"x_max":0,"o":""},"겟":{"ha":1085,"x_min":35,"x_max":1006,"o":"m 190 -132 q 457 45 367 -43 q 547 239 547 133 l 547 258 l 664 258 q 646 135 664 207 q 642 121 642 126 q 653 99 642 110 q 813 -17 706 47 q 1006 -117 919 -81 l 963 -206 q 765 -109 869 -168 q 603 3 661 -50 q 582 15 589 15 q 564 3 576 15 q 426 -109 515 -49 q 243 -218 338 -169 l 190 -132 m 35 403 q 242 575 160 479 q 354 767 324 671 q 363 806 363 794 q 353 823 363 818 q 324 828 344 828 l 74 828 l 74 924 l 367 924 q 451 903 425 924 q 476 835 476 882 q 471 781 476 808 q 342 528 446 651 q 97 322 239 406 l 35 403 m 463 696 l 592 696 q 622 726 622 696 l 622 971 l 738 971 l 738 333 l 622 333 l 622 571 q 592 601 622 601 l 463 601 l 463 696 m 854 981 l 971 981 l 971 239 l 854 239 l 854 981 z "},"겠":{"ha":1085,"x_min":35,"x_max":1014,"o":"m 35 417 q 243 584 163 494 q 354 767 324 674 q 363 806 363 794 q 353 823 363 818 q 324 828 344 828 l 74 828 l 74 924 l 367 924 q 451 903 425 924 q 476 835 476 882 q 471 781 476 808 q 344 537 446 653 q 97 336 242 421 l 35 417 m 118 -146 q 239 -12 197 -71 q 297 109 281 47 q 314 258 314 171 l 426 258 q 418 149 426 200 q 415 125 415 129 q 425 100 415 114 q 564 -49 492 10 q 649 91 624 21 q 674 258 674 161 l 786 258 q 778 149 786 200 l 775 126 q 785 100 775 115 q 887 -15 825 46 q 1014 -118 949 -76 l 960 -200 q 840 -113 897 -165 q 740 -10 782 -61 q 731 -3 733 -3 q 721 -11 725 -3 q 640 -121 690 -61 q 542 -215 589 -181 l 465 -146 l 494 -119 q 381 -10 432 -75 q 371 -3 374 -3 q 361 -11 365 -3 q 286 -117 331 -61 q 194 -215 242 -172 l 118 -146 m 463 696 l 592 696 q 622 726 622 696 l 622 971 l 738 971 l 738 344 l 622 344 l 622 571 q 592 601 622 601 l 463 601 l 463 696 m 854 981 l 971 981 l 971 333 l 854 333 l 854 981 z "},"겡":{"ha":1085,"x_min":35,"x_max":971,"o":"m 643 -210 q 494 -175 560 -210 q 391 -81 428 -140 q 354 49 354 -22 q 391 179 354 121 q 494 272 428 238 q 643 306 560 306 q 790 272 725 306 q 891 179 854 238 q 928 49 928 121 q 891 -81 928 -22 q 790 -175 854 -140 q 643 -210 725 -210 m 35 403 q 242 575 160 479 q 354 767 324 671 q 363 806 363 794 q 353 823 363 818 q 324 828 344 828 l 74 828 l 74 924 l 367 924 q 451 903 425 924 q 476 835 476 882 q 471 781 476 808 q 342 528 446 651 q 97 322 239 406 l 35 403 m 463 693 l 592 693 q 622 724 622 693 l 622 971 l 738 971 l 738 386 l 622 386 l 622 568 q 592 599 622 599 l 463 599 l 463 693 m 471 49 q 519 -67 471 -22 q 643 -112 568 -112 q 764 -67 717 -112 q 811 49 811 -22 q 764 166 811 121 q 643 211 717 211 q 519 166 568 211 q 471 49 471 121 m 854 981 l 971 981 l 971 340 l 854 340 l 854 981 z "},"겢":{"ha":1236,"x_min":0,"x_max":0,"o":""},"겣":{"ha":1236,"x_min":0,"x_max":0,"o":""},"겤":{"ha":1236,"x_min":0,"x_max":0,"o":""},"겥":{"ha":1236,"x_min":0,"x_max":0,"o":""},"겦":{"ha":1236,"x_min":0,"x_max":0,"o":""},"겧":{"ha":1236,"x_min":0,"x_max":0,"o":""},"겨":{"ha":1028,"x_min":60,"x_max":906,"o":"m 60 175 q 342 448 240 306 q 471 703 443 590 q 478 743 478 733 q 469 760 478 756 q 440 764 461 764 l 93 764 l 93 860 l 483 860 q 568 838 542 860 q 594 768 594 817 q 589 717 594 756 q 442 403 561 569 q 142 101 324 238 l 60 175 m 554 449 l 758 449 q 789 479 789 449 l 789 597 q 758 628 789 628 l 632 628 l 632 719 l 758 719 q 789 750 789 719 l 789 911 l 906 911 l 906 28 l 789 28 l 789 326 q 758 357 789 357 l 554 357 l 554 449 z "},"격":{"ha":1042,"x_min":60,"x_max":919,"o":"m 60 407 q 297 586 190 481 q 438 778 404 692 q 449 818 449 807 q 439 835 449 831 q 407 839 429 839 l 93 839 l 93 933 l 456 933 q 567 846 567 933 q 558 790 567 822 q 401 538 524 658 q 121 322 278 417 l 60 407 m 251 229 l 803 229 q 891 201 863 229 q 919 113 919 172 l 919 -192 l 803 -192 l 803 89 q 791 123 803 111 q 757 135 779 135 l 251 135 l 251 229 m 568 608 l 772 608 q 803 639 803 608 l 803 708 q 772 739 803 739 l 614 739 l 614 831 l 772 831 q 803 861 803 831 l 803 981 l 919 981 l 919 318 l 803 318 l 803 486 q 772 517 803 517 l 568 517 l 568 608 z "},"겪":{"ha":1042,"x_min":60,"x_max":919,"o":"m 60 438 q 250 560 158 485 q 399 707 342 635 q 456 817 456 779 q 445 833 456 829 q 413 838 435 838 l 93 838 l 93 933 l 456 933 q 540 914 513 933 q 568 850 568 894 q 558 790 568 829 q 396 546 525 665 q 118 353 267 426 l 60 438 m 229 240 l 451 240 q 531 217 507 240 q 554 139 554 193 l 554 -192 l 443 -192 l 443 114 q 411 146 443 146 l 229 146 l 229 240 m 568 608 l 772 608 q 803 639 803 608 l 803 708 q 772 739 803 739 l 614 739 l 614 831 l 772 831 q 803 861 803 831 l 803 981 l 919 981 l 919 332 l 803 332 l 803 486 q 772 517 803 517 l 568 517 l 568 608 m 615 240 l 817 240 q 896 216 872 240 q 919 138 919 192 l 919 -192 l 806 -192 l 806 114 q 774 146 806 146 l 615 146 l 615 240 z "},"겫":{"ha":1236,"x_min":0,"x_max":0,"o":""},"견":{"ha":1042,"x_min":60,"x_max":932,"o":"m 60 399 q 219 507 139 440 q 358 647 299 574 q 438 778 417 719 q 447 818 447 803 q 438 835 447 831 q 407 839 429 839 l 93 839 l 93 933 l 456 933 q 539 913 513 933 q 565 847 565 893 q 558 790 565 818 q 396 523 526 651 q 119 314 265 394 l 60 399 m 261 200 l 378 200 l 378 -37 q 390 -72 378 -60 q 424 -83 401 -83 l 932 -83 l 932 -178 l 378 -178 q 290 -150 318 -178 q 261 -62 261 -122 l 261 200 m 554 571 l 772 571 q 803 601 803 571 l 803 685 q 772 715 803 715 l 614 715 l 614 807 l 772 807 q 803 838 803 807 l 803 981 l 919 981 l 919 157 l 803 157 l 803 449 q 772 479 803 479 l 554 479 l 554 571 z "},"겭":{"ha":1236,"x_min":0,"x_max":0,"o":""},"겮":{"ha":1236,"x_min":0,"x_max":0,"o":""},"겯":{"ha":1042,"x_min":60,"x_max":943,"o":"m 60 438 q 250 560 158 485 q 399 707 342 635 q 456 817 456 779 q 445 833 456 829 q 413 838 435 838 l 93 838 l 93 933 l 456 933 q 540 914 513 933 q 568 850 568 894 q 558 790 568 829 q 396 546 525 665 q 118 353 267 426 l 60 438 m 260 240 l 925 240 l 925 144 l 407 144 q 376 114 376 144 l 376 -51 q 419 -94 376 -94 l 943 -94 l 943 -189 l 374 -189 q 287 -162 314 -189 q 260 -76 260 -136 l 260 240 m 568 608 l 772 608 q 803 639 803 608 l 803 708 q 772 739 803 739 l 614 739 l 614 831 l 772 831 q 803 861 803 831 l 803 981 l 919 981 l 919 332 l 803 332 l 803 486 q 772 517 803 517 l 568 517 l 568 608 z "},"결":{"ha":1042,"x_min":60,"x_max":931,"o":"m 382 -208 q 295 -182 322 -208 q 268 -96 268 -156 l 268 96 l 774 96 q 804 126 804 96 l 804 176 q 774 207 804 207 l 265 207 l 265 301 l 919 301 l 919 7 l 415 7 q 385 -24 385 7 l 385 -71 q 428 -114 385 -114 l 931 -114 l 931 -208 l 382 -208 m 60 454 q 432 792 340 599 q 444 829 444 817 q 434 847 444 842 q 401 853 424 853 l 93 853 l 93 947 l 454 947 q 568 864 568 947 q 558 806 568 836 q 413 579 528 696 q 119 369 297 463 l 60 454 m 568 632 l 772 632 q 803 663 803 632 l 803 724 q 772 754 803 754 l 614 754 l 614 849 l 772 849 q 803 879 803 849 l 803 994 l 919 994 l 919 382 l 803 382 l 803 507 q 772 538 803 538 l 568 538 l 568 632 z "},"겱":{"ha":1236,"x_min":0,"x_max":0,"o":""},"겲":{"ha":1236,"x_min":0,"x_max":0,"o":""},"겳":{"ha":1236,"x_min":0,"x_max":0,"o":""},"겴":{"ha":1236,"x_min":0,"x_max":0,"o":""},"겵":{"ha":1236,"x_min":0,"x_max":0,"o":""},"겶":{"ha":1236,"x_min":0,"x_max":0,"o":""},"겷":{"ha":1389,"x_min":0,"x_max":0,"o":""},"겸":{"ha":1042,"x_min":60,"x_max":919,"o":"m 60 438 q 250 560 158 485 q 399 707 342 635 q 456 817 456 779 q 445 833 456 829 q 413 838 435 838 l 93 838 l 93 933 l 456 933 q 540 914 513 933 q 568 850 568 894 q 558 790 568 829 q 396 546 525 665 q 118 353 267 426 l 60 438 m 254 240 l 919 240 l 919 -189 l 368 -189 q 281 -162 308 -189 q 254 -76 254 -136 l 254 240 m 371 -51 q 414 -94 371 -94 l 772 -94 q 803 -64 803 -94 l 803 114 q 772 144 803 144 l 401 144 q 371 114 371 144 l 371 -51 m 568 608 l 772 608 q 803 639 803 608 l 803 708 q 772 739 803 739 l 614 739 l 614 831 l 772 831 q 803 861 803 831 l 803 981 l 919 981 l 919 332 l 803 332 l 803 486 q 772 517 803 517 l 568 517 l 568 608 z "},"겹":{"ha":1042,"x_min":60,"x_max":919,"o":"m 368 -201 q 281 -174 308 -201 q 253 -86 253 -146 l 253 258 l 368 258 l 368 169 q 399 139 368 139 l 774 139 q 804 169 804 139 l 804 258 l 919 258 l 919 -201 l 368 -201 m 60 421 q 242 545 150 468 q 394 697 335 622 q 454 817 454 772 q 444 833 454 829 q 413 838 435 838 l 93 838 l 93 933 l 456 933 q 540 913 513 933 q 567 849 567 893 q 558 790 567 824 q 465 615 536 703 q 300 456 393 528 q 118 336 207 383 l 60 421 m 368 -61 q 381 -95 368 -83 q 414 -107 393 -107 l 774 -107 q 804 -76 804 -107 l 804 14 q 774 44 804 44 l 399 44 q 368 14 368 44 l 368 -61 m 568 608 l 772 608 q 803 639 803 608 l 803 708 q 772 739 803 739 l 614 739 l 614 831 l 772 831 q 803 861 803 831 l 803 981 l 919 981 l 919 332 l 803 332 l 803 486 q 772 517 803 517 l 568 517 l 568 608 z "},"겺":{"ha":1236,"x_min":0,"x_max":0,"o":""},"겻":{"ha":1042,"x_min":60,"x_max":960,"o":"m 183 -133 q 440 49 358 -40 q 521 233 521 139 l 521 258 l 638 258 q 619 135 638 207 q 615 121 615 126 q 626 99 615 110 q 781 -19 682 44 q 960 -117 879 -83 l 917 -206 q 734 -112 829 -171 q 576 3 639 -53 q 556 15 563 15 q 538 3 549 15 q 406 -116 485 -57 q 236 -218 328 -175 l 183 -133 m 60 407 q 297 586 190 481 q 438 778 404 692 q 449 818 449 807 q 439 835 449 831 q 407 839 429 839 l 93 839 l 93 933 l 456 933 q 567 846 567 933 q 558 790 567 822 q 401 538 524 658 q 121 322 278 417 l 60 407 m 568 608 l 772 608 q 803 639 803 608 l 803 708 q 772 739 803 739 l 614 739 l 614 831 l 772 831 q 803 861 803 831 l 803 981 l 919 981 l 919 242 l 803 242 l 803 486 q 772 517 803 517 l 568 517 l 568 608 z "},"겼":{"ha":1042,"x_min":60,"x_max":1021,"o":"m 60 421 q 242 545 150 468 q 394 697 335 622 q 454 817 454 772 q 444 833 454 829 q 413 838 435 838 l 93 838 l 93 933 l 456 933 q 540 913 513 933 q 567 849 567 893 q 558 790 567 824 q 465 615 536 703 q 300 456 393 528 q 118 336 207 383 l 60 421 m 146 -146 q 263 -11 222 -69 q 320 110 303 47 q 338 258 338 172 l 450 258 q 442 149 450 200 q 439 125 439 129 q 449 100 439 114 q 581 -46 513 13 q 662 92 638 22 q 686 258 686 163 l 799 258 q 790 149 799 200 l 788 126 q 797 100 788 115 q 896 -15 835 46 q 1021 -118 957 -76 l 968 -200 q 851 -114 907 -165 q 754 -10 794 -62 q 744 -3 747 -3 q 735 -11 739 -3 q 655 -122 704 -62 q 560 -215 606 -181 l 482 -146 l 513 -118 q 404 -10 457 -76 q 394 -3 397 -3 q 385 -11 389 -3 q 310 -118 353 -62 q 222 -215 268 -174 l 146 -146 m 568 608 l 772 608 q 803 639 803 608 l 803 708 q 772 739 803 739 l 614 739 l 614 831 l 772 831 q 803 861 803 831 l 803 981 l 919 981 l 919 332 l 803 332 l 803 486 q 772 517 803 517 l 568 517 l 568 608 z "},"경":{"ha":1042,"x_min":60,"x_max":919,"o":"m 60 407 q 297 586 190 481 q 438 778 404 692 q 449 818 449 807 q 439 835 449 831 q 407 839 429 839 l 93 839 l 93 933 l 456 933 q 567 846 567 933 q 558 790 567 822 q 401 538 524 658 q 121 322 278 417 l 60 407 m 347 49 q 384 178 347 119 q 485 272 421 238 q 629 306 550 306 q 772 272 708 306 q 871 178 835 238 q 907 49 907 119 q 871 -81 907 -22 q 771 -175 835 -140 q 629 -210 707 -210 q 485 -175 550 -210 q 384 -81 421 -140 q 347 49 347 -22 m 464 49 q 511 -67 464 -22 q 629 -112 558 -112 q 744 -67 697 -112 q 790 49 790 -21 q 744 165 790 119 q 629 211 697 211 q 511 165 558 211 q 464 49 464 119 m 568 608 l 772 608 q 803 639 803 608 l 803 708 q 772 739 803 739 l 614 739 l 614 831 l 772 831 q 803 861 803 831 l 803 981 l 919 981 l 919 346 l 803 346 l 803 486 q 772 517 803 517 l 568 517 l 568 608 z "},"겾":{"ha":1236,"x_min":0,"x_max":0,"o":""},"겿":{"ha":1389,"x_min":0,"x_max":0,"o":""},"곀":{"ha":1236,"x_min":0,"x_max":0,"o":""},"곁":{"ha":1053,"x_min":60,"x_max":931,"o":"m 385 -208 q 297 -181 325 -208 q 268 -93 268 -153 l 268 301 l 914 301 l 914 207 l 415 207 q 385 176 385 207 l 385 126 q 415 96 385 96 l 901 96 l 901 7 l 415 7 q 385 -24 385 7 l 385 -68 q 397 -102 385 -90 q 431 -114 408 -114 l 931 -114 l 931 -208 l 385 -208 m 60 454 q 432 792 340 599 q 444 829 444 817 q 434 847 444 842 q 401 853 424 853 l 93 853 l 93 947 l 454 947 q 568 864 568 947 q 558 806 568 836 q 413 579 528 696 q 119 369 297 463 l 60 454 m 568 632 l 772 632 q 803 663 803 632 l 803 724 q 772 754 803 754 l 614 754 l 614 849 l 772 849 q 803 879 803 849 l 803 994 l 919 994 l 919 382 l 803 382 l 803 507 q 772 538 803 538 l 568 538 l 568 632 z "},"곂":{"ha":1236,"x_min":0,"x_max":0,"o":""},"곃":{"ha":1236,"x_min":0,"x_max":0,"o":""},"계":{"ha":1069,"x_min":35,"x_max":956,"o":"m 35 172 q 235 449 157 304 q 340 701 314 593 q 347 740 347 732 q 339 758 347 753 q 310 763 331 763 l 74 763 l 74 858 l 353 858 q 435 838 410 858 q 460 771 460 818 q 454 715 460 743 q 340 421 429 579 q 121 106 251 263 l 35 172 m 426 439 l 575 439 q 606 469 606 439 l 606 569 q 575 600 606 600 l 476 600 l 476 692 l 575 692 q 606 722 606 692 l 606 910 l 721 910 l 721 33 l 606 33 l 606 317 q 575 347 606 347 l 426 347 l 426 439 m 839 925 l 956 925 l 956 11 l 839 11 l 839 925 z "},"곅":{"ha":1236,"x_min":0,"x_max":0,"o":""},"곆":{"ha":1236,"x_min":0,"x_max":0,"o":""},"곇":{"ha":1236,"x_min":0,"x_max":0,"o":""},"곈":{"ha":1085,"x_min":35,"x_max":982,"o":"m 385 -178 q 297 -150 325 -178 q 268 -62 268 -122 l 268 200 l 385 200 l 385 -37 q 397 -72 385 -60 q 431 -83 408 -83 l 982 -83 l 982 -178 l 385 -178 m 35 388 q 221 572 146 472 q 326 767 296 672 q 335 806 335 794 q 326 823 335 818 q 296 828 317 828 l 74 828 l 74 924 l 339 924 q 423 903 397 924 q 449 835 449 882 q 443 781 449 808 q 325 530 418 654 q 104 314 232 406 l 35 388 m 440 571 l 592 571 q 622 601 622 571 l 622 685 q 592 715 622 715 l 490 715 l 490 807 l 592 807 q 622 838 622 807 l 622 971 l 738 971 l 738 164 l 622 164 l 622 449 q 592 479 622 479 l 440 479 l 440 571 m 854 981 l 971 981 l 971 153 l 854 153 l 854 981 z "},"곉":{"ha":1236,"x_min":0,"x_max":0,"o":""},"곊":{"ha":1236,"x_min":0,"x_max":0,"o":""},"곋":{"ha":1236,"x_min":0,"x_max":0,"o":""},"곌":{"ha":1085,"x_min":35,"x_max":994,"o":"m 375 -208 q 288 -182 315 -208 q 261 -96 261 -156 l 261 96 l 825 96 q 856 126 856 96 l 856 176 q 825 207 856 207 l 258 207 l 258 301 l 971 301 l 971 7 l 408 7 q 378 -24 378 7 l 378 -71 q 421 -114 378 -114 l 994 -114 l 994 -208 l 375 -208 m 35 450 q 223 611 150 526 q 326 781 296 696 q 336 819 336 804 q 326 837 336 832 q 296 842 317 842 l 74 842 l 74 938 l 339 938 q 423 917 396 938 q 450 850 450 896 q 443 794 450 829 q 324 565 418 676 q 99 369 231 454 l 35 450 m 440 632 l 592 632 q 622 663 622 632 l 622 726 q 592 757 622 757 l 490 757 l 490 849 l 592 849 q 622 879 622 849 l 622 985 l 738 985 l 738 389 l 622 389 l 622 510 q 592 540 622 540 l 440 540 l 440 632 m 854 994 l 971 994 l 971 378 l 854 378 l 854 994 z "},"곍":{"ha":1236,"x_min":0,"x_max":0,"o":""},"곎":{"ha":1236,"x_min":0,"x_max":0,"o":""},"곏":{"ha":1236,"x_min":0,"x_max":0,"o":""},"곐":{"ha":1236,"x_min":0,"x_max":0,"o":""},"곑":{"ha":1236,"x_min":0,"x_max":0,"o":""},"곒":{"ha":1236,"x_min":0,"x_max":0,"o":""},"곓":{"ha":1236,"x_min":0,"x_max":0,"o":""},"곔":{"ha":1236,"x_min":0,"x_max":0,"o":""},"곕":{"ha":1085,"x_min":35,"x_max":971,"o":"m 375 -201 q 288 -174 315 -201 q 260 -86 260 -146 l 260 258 l 375 258 l 375 169 q 406 139 375 139 l 825 139 q 856 169 856 139 l 856 258 l 971 258 l 971 -201 l 375 -201 m 35 413 q 223 580 150 489 q 326 767 296 671 q 335 806 335 794 q 326 823 335 818 q 296 828 317 828 l 74 828 l 74 924 l 339 924 q 423 903 397 924 q 449 835 449 882 q 443 781 449 808 q 325 537 418 654 q 101 336 232 419 l 35 413 m 375 -61 q 388 -95 375 -83 q 421 -107 400 -107 l 825 -107 q 856 -76 856 -107 l 856 14 q 825 44 856 44 l 406 44 q 375 14 375 44 l 375 -61 m 440 608 l 592 608 q 622 639 622 608 l 622 708 q 592 739 622 739 l 490 739 l 490 831 l 592 831 q 622 861 622 831 l 622 971 l 738 971 l 738 344 l 622 344 l 622 486 q 592 517 622 517 l 440 517 l 440 608 m 854 981 l 971 981 l 971 333 l 854 333 l 854 981 z "},"곖":{"ha":1236,"x_min":0,"x_max":0,"o":""},"곗":{"ha":1085,"x_min":35,"x_max":1006,"o":"m 190 -132 q 457 45 367 -43 q 547 239 547 133 l 547 258 l 664 258 q 646 135 664 207 q 642 121 642 126 q 653 99 642 110 q 813 -17 706 47 q 1006 -117 919 -81 l 963 -206 q 765 -109 869 -168 q 603 3 661 -50 q 582 15 589 15 q 564 3 576 15 q 426 -109 515 -49 q 243 -218 338 -169 l 190 -132 m 35 397 q 220 573 143 475 q 326 767 297 671 q 335 806 335 794 q 326 823 335 818 q 296 828 317 828 l 74 828 l 74 924 l 339 924 q 423 903 397 924 q 449 833 449 882 q 443 781 449 808 q 324 531 418 651 q 103 322 229 410 l 35 397 m 440 608 l 592 608 q 622 639 622 608 l 622 708 q 592 739 622 739 l 490 739 l 490 831 l 592 831 q 622 861 622 831 l 622 971 l 738 971 l 738 333 l 622 333 l 622 486 q 592 517 622 517 l 440 517 l 440 608 m 854 981 l 971 981 l 971 239 l 854 239 l 854 981 z "},"곘":{"ha":1389,"x_min":0,"x_max":0,"o":""},"곙":{"ha":1236,"x_min":0,"x_max":0,"o":""},"곚":{"ha":1236,"x_min":0,"x_max":0,"o":""},"곛":{"ha":1236,"x_min":0,"x_max":0,"o":""},"곜":{"ha":1236,"x_min":0,"x_max":0,"o":""},"곝":{"ha":1236,"x_min":0,"x_max":0,"o":""},"곞":{"ha":1236,"x_min":0,"x_max":0,"o":""},"곟":{"ha":1236,"x_min":0,"x_max":0,"o":""},"고":{"ha":1026,"x_min":63,"x_max":964,"o":"m 63 125 l 369 125 q 400 156 400 125 l 400 503 l 515 503 l 515 156 q 546 125 515 125 l 964 125 l 964 29 l 63 29 l 63 125 m 192 892 l 714 892 q 802 863 774 892 q 831 775 831 835 l 831 363 l 714 363 l 714 751 q 702 785 714 774 q 668 797 690 797 l 192 797 l 192 892 z "},"곡":{"ha":1026,"x_min":63,"x_max":964,"o":"m 63 426 l 369 426 q 400 457 400 426 l 400 669 l 515 669 l 515 457 q 546 426 515 426 l 964 426 l 964 332 l 63 332 l 63 426 m 192 968 l 714 968 q 802 940 774 968 q 831 851 831 911 l 831 582 l 714 582 l 714 828 q 702 862 714 850 q 668 874 690 874 l 192 874 l 192 968 m 201 171 l 710 171 q 798 143 769 171 q 826 56 826 115 l 826 -192 l 710 -192 l 710 31 q 698 65 710 53 q 664 76 686 76 l 201 76 l 201 171 z "},"곢":{"ha":1236,"x_min":0,"x_max":0,"o":""},"곣":{"ha":1236,"x_min":0,"x_max":0,"o":""},"곤":{"ha":1026,"x_min":63,"x_max":964,"o":"m 63 421 l 369 421 q 400 451 400 421 l 400 676 l 515 676 l 515 451 q 546 421 515 421 l 964 421 l 964 326 l 63 326 l 63 421 m 192 968 l 714 968 q 802 940 774 968 q 831 851 831 911 l 831 568 l 714 568 l 714 828 q 702 862 714 850 q 668 874 690 874 l 192 874 l 192 968 m 207 171 l 324 171 l 324 -37 q 335 -72 324 -60 q 369 -83 347 -83 l 835 -83 l 835 -178 l 324 -178 q 235 -150 264 -178 q 207 -62 207 -122 l 207 171 z "},"곥":{"ha":1236,"x_min":0,"x_max":0,"o":""},"곦":{"ha":1236,"x_min":0,"x_max":0,"o":""},"곧":{"ha":1026,"x_min":63,"x_max":964,"o":"m 63 489 l 369 489 q 400 519 400 489 l 400 717 l 515 717 l 515 519 q 546 489 515 489 l 964 489 l 964 394 l 63 394 l 63 489 m 192 968 l 714 968 q 802 940 774 968 q 831 851 831 911 l 831 631 l 714 631 l 714 828 q 702 862 714 850 q 668 874 690 874 l 192 874 l 192 968 m 196 225 l 832 225 l 832 131 l 342 131 q 311 100 311 131 l 311 -49 q 323 -83 311 -71 q 357 -94 335 -94 l 840 -94 l 840 -189 l 311 -189 q 224 -160 251 -189 q 196 -72 196 -132 l 196 225 z "},"골":{"ha":1026,"x_min":63,"x_max":964,"o":"m 310 -207 q 223 -181 250 -207 q 196 -94 196 -154 l 196 93 l 682 93 q 713 124 713 93 l 713 169 q 682 200 713 200 l 193 200 l 193 296 l 828 296 l 828 4 l 343 4 q 313 -26 313 4 l 313 -69 q 356 -112 313 -112 l 838 -112 l 838 -207 l 310 -207 m 63 514 l 369 514 q 400 544 400 514 l 400 718 l 515 718 l 515 544 q 546 514 515 514 l 964 514 l 964 419 l 63 419 l 63 514 m 192 982 l 714 982 q 802 953 774 982 q 831 865 831 925 l 831 629 l 714 629 l 714 842 q 702 876 714 864 q 668 888 690 888 l 192 888 l 192 982 z "},"곩":{"ha":1236,"x_min":0,"x_max":0,"o":""},"곪":{"ha":1026,"x_min":63,"x_max":964,"o":"m 63 514 l 369 514 q 400 544 400 514 l 400 718 l 515 718 l 515 544 q 546 514 515 514 l 964 514 l 964 419 l 63 419 l 63 514 m 185 296 l 467 296 l 467 7 l 321 7 q 308 3 311 7 q 304 -10 304 0 l 304 -82 q 310 -105 304 -99 q 333 -111 317 -111 l 481 -111 l 481 -206 l 288 -206 q 210 -183 232 -206 q 188 -107 188 -161 l 188 96 l 339 96 q 352 99 349 96 q 356 113 356 103 l 356 185 q 352 198 356 194 q 339 201 349 201 l 185 201 l 185 296 m 192 982 l 714 982 q 802 953 774 982 q 831 865 831 925 l 831 629 l 714 629 l 714 842 q 702 876 714 864 q 668 888 690 888 l 192 888 l 192 982 m 539 296 l 843 296 l 843 -206 l 632 -206 q 559 -183 579 -206 q 539 -106 539 -161 l 539 296 m 650 -82 q 656 -104 650 -99 q 678 -110 663 -110 l 715 -110 q 729 -107 726 -110 q 732 -93 732 -104 l 732 185 q 728 198 732 194 q 715 201 725 201 l 667 201 q 653 198 657 201 q 650 185 650 194 l 650 -82 z "},"곫":{"ha":1236,"x_min":0,"x_max":0,"o":""},"곬":{"ha":1026,"x_min":63,"x_max":964,"o":"m 63 514 l 369 514 q 400 544 400 514 l 400 718 l 515 718 l 515 544 q 546 514 515 514 l 964 514 l 964 419 l 63 419 l 63 514 m 185 296 l 481 296 l 481 7 l 321 7 q 308 3 311 7 q 304 -10 304 0 l 304 -82 q 310 -105 304 -99 q 333 -111 317 -111 l 481 -111 l 481 -206 l 288 -206 q 210 -183 232 -206 q 188 -107 188 -161 l 188 96 l 353 96 q 366 99 363 96 q 369 113 369 103 l 369 185 q 366 198 369 194 q 353 201 363 201 l 185 201 l 185 296 m 192 982 l 714 982 q 802 953 774 982 q 831 865 831 925 l 831 629 l 714 629 l 714 842 q 702 876 714 864 q 668 888 690 888 l 192 888 l 192 982 m 514 -162 q 616 49 586 -64 q 646 296 646 163 l 751 296 q 746 181 751 215 q 744 161 744 172 q 750 131 744 147 q 817 -18 772 61 q 901 -132 861 -97 l 836 -201 q 768 -124 803 -174 q 708 -25 733 -75 q 696 -26 700 -11 q 652 -130 679 -79 q 593 -218 625 -181 l 514 -162 z "},"곭":{"ha":1236,"x_min":0,"x_max":0,"o":""},"곮":{"ha":1236,"x_min":0,"x_max":0,"o":""},"곯":{"ha":1026,"x_min":63,"x_max":964,"o":"m 63 514 l 369 514 q 400 544 400 514 l 400 718 l 515 718 l 515 544 q 546 514 515 514 l 964 514 l 964 419 l 63 419 l 63 514 m 171 296 l 446 296 l 446 7 l 307 7 q 294 3 297 7 q 290 -10 290 0 l 290 -82 q 297 -105 290 -99 q 319 -111 303 -111 l 460 -111 l 460 -206 l 274 -206 q 196 -183 218 -206 q 174 -107 174 -161 l 174 96 l 318 96 q 331 99 328 96 q 335 113 335 103 l 335 185 q 331 198 335 194 q 318 201 328 201 l 171 201 l 171 296 m 192 982 l 714 982 q 802 953 774 982 q 831 865 831 925 l 831 629 l 714 629 l 714 842 q 702 876 714 864 q 668 888 690 888 l 192 888 l 192 982 m 501 249 l 625 249 q 635 251 632 249 q 638 263 638 254 l 638 325 l 739 325 l 739 263 q 742 252 739 256 q 753 249 744 249 l 871 249 l 871 160 l 501 160 l 501 249 m 529 -56 q 573 65 529 21 q 685 110 617 110 q 798 65 753 110 q 843 -56 843 21 q 798 -176 843 -131 q 685 -222 753 -222 q 574 -176 618 -222 q 529 -56 529 -131 m 638 -56 q 651 -112 638 -93 q 685 -132 665 -132 q 720 -112 706 -132 q 735 -56 735 -93 q 720 0 735 -19 q 685 19 706 19 q 651 0 665 19 q 638 -56 638 -19 z "},"곰":{"ha":1026,"x_min":63,"x_max":964,"o":"m 63 489 l 369 489 q 400 519 400 489 l 400 717 l 515 717 l 515 519 q 546 489 515 489 l 964 489 l 964 394 l 63 394 l 63 489 m 192 968 l 714 968 q 802 940 774 968 q 831 851 831 911 l 831 631 l 714 631 l 714 828 q 702 862 714 850 q 668 874 690 874 l 192 874 l 192 968 m 197 231 l 829 231 l 829 -183 l 310 -183 q 224 -156 250 -183 q 197 -69 197 -129 l 197 231 m 314 -47 q 356 -89 314 -89 l 682 -89 q 713 -58 713 -89 l 713 106 q 682 136 713 136 l 344 136 q 314 106 314 136 l 314 -47 z "},"곱":{"ha":1026,"x_min":63,"x_max":964,"o":"m 63 489 l 369 489 q 400 519 400 489 l 400 717 l 515 717 l 515 519 q 546 489 515 489 l 964 489 l 964 394 l 63 394 l 63 489 m 192 968 l 714 968 q 802 940 774 968 q 831 851 831 911 l 831 631 l 714 631 l 714 828 q 702 862 714 850 q 668 874 690 874 l 192 874 l 192 968 m 197 250 l 313 250 l 313 158 q 343 128 313 128 l 683 128 q 714 158 714 128 l 714 250 l 829 250 l 829 -201 l 313 -201 q 225 -174 253 -201 q 197 -86 197 -146 l 197 250 m 313 -61 q 325 -95 313 -83 q 358 -107 338 -107 l 683 -107 q 714 -76 714 -107 l 714 3 q 683 33 714 33 l 343 33 q 313 3 313 33 l 313 -61 z "},"곲":{"ha":1236,"x_min":0,"x_max":0,"o":""},"곳":{"ha":1026,"x_min":63,"x_max":964,"o":"m 151 -135 q 384 42 308 -53 q 460 228 460 138 l 460 250 l 576 250 q 572 189 576 215 q 560 126 568 163 q 556 113 556 121 q 565 94 556 104 q 718 -30 624 36 q 889 -119 813 -96 l 844 -208 q 668 -122 760 -182 q 515 -3 576 -62 q 496 10 503 10 q 479 -3 488 10 q 367 -120 436 -62 q 210 -219 297 -178 l 151 -135 m 63 483 l 369 483 q 400 514 400 483 l 400 717 l 515 717 l 515 514 q 546 483 515 483 l 964 483 l 964 389 l 63 389 l 63 483 m 192 968 l 714 968 q 802 940 774 968 q 831 851 831 911 l 831 631 l 714 631 l 714 828 q 702 862 714 850 q 668 874 690 874 l 192 874 l 192 968 z "},"곴":{"ha":1236,"x_min":0,"x_max":0,"o":""},"공":{"ha":1026,"x_min":63,"x_max":964,"o":"m 63 496 l 369 496 q 400 526 400 496 l 400 710 l 515 710 l 515 526 q 546 496 515 496 l 964 496 l 964 401 l 63 401 l 63 496 m 192 974 l 714 974 q 802 945 774 974 q 831 857 831 917 l 831 621 l 714 621 l 714 833 q 702 867 714 856 q 668 879 690 879 l 192 879 l 192 974 m 246 31 q 281 156 246 99 q 378 245 317 213 q 517 278 440 278 q 653 245 592 278 q 749 156 714 213 q 783 31 783 99 q 749 -94 783 -37 q 653 -184 714 -151 q 517 -217 592 -217 q 378 -184 440 -217 q 281 -94 317 -151 q 246 31 246 -37 m 361 31 q 404 -80 361 -37 q 517 -122 447 -122 q 629 -79 585 -122 q 674 31 674 -36 q 629 140 674 97 q 517 182 585 182 q 404 140 447 182 q 361 31 361 97 z "},"곶":{"ha":1026,"x_min":63,"x_max":964,"o":"m 63 489 l 369 489 q 400 519 400 489 l 400 717 l 515 717 l 515 519 q 546 489 515 489 l 964 489 l 964 394 l 63 394 l 63 489 m 156 -132 q 399 4 331 -64 q 468 138 468 72 l 192 138 l 192 232 l 853 232 l 853 138 l 585 138 q 571 65 583 104 q 565 51 565 54 q 574 38 565 44 q 717 -48 628 -4 q 888 -117 806 -92 l 856 -208 q 672 -141 768 -186 q 524 -53 576 -96 q 506 -43 513 -43 q 492 -50 501 -43 q 366 -140 439 -96 q 208 -218 293 -185 l 156 -132 m 192 968 l 714 968 q 802 940 774 968 q 831 851 831 911 l 831 631 l 714 631 l 714 828 q 702 862 714 850 q 668 874 690 874 l 192 874 l 192 968 z "},"곷":{"ha":1236,"x_min":0,"x_max":0,"o":""},"곸":{"ha":1236,"x_min":0,"x_max":0,"o":""},"곹":{"ha":1389,"x_min":0,"x_max":0,"o":""},"곺":{"ha":1236,"x_min":0,"x_max":0,"o":""},"곻":{"ha":1236,"x_min":0,"x_max":0,"o":""},"과":{"ha":1094,"x_min":63,"x_max":1076,"o":"m 63 154 l 232 154 q 263 185 263 154 l 263 500 l 378 500 l 378 185 q 408 154 378 154 l 722 154 l 722 60 l 63 60 l 63 154 m 108 879 l 526 879 q 610 848 578 879 q 643 763 643 817 l 643 369 l 526 369 l 526 739 q 515 773 526 761 q 481 785 503 785 l 108 785 l 108 879 m 775 911 l 892 911 l 892 599 q 922 568 892 568 l 1076 568 l 1076 474 l 922 474 q 892 443 892 474 l 892 0 l 775 0 l 775 911 z "},"곽":{"ha":1067,"x_min":63,"x_max":1049,"o":"m 760 75 q 748 109 760 97 q 714 121 736 121 l 231 121 l 231 215 l 760 215 q 848 187 819 215 q 876 99 876 158 l 876 -192 l 760 -192 l 760 75 m 63 453 l 218 453 q 249 483 249 453 l 249 671 l 364 671 l 364 483 q 394 453 364 453 l 694 453 l 694 358 l 63 358 l 63 453 m 108 954 l 499 954 q 587 926 558 954 q 615 838 615 897 l 615 556 l 499 556 l 499 814 q 487 848 499 836 q 453 860 475 860 l 108 860 l 108 954 m 760 986 l 876 986 l 876 786 q 907 756 876 756 l 1049 756 l 1049 664 l 907 664 q 876 633 876 664 l 876 301 l 760 301 l 760 986 z "},"곾":{"ha":1236,"x_min":0,"x_max":0,"o":""},"곿":{"ha":1236,"x_min":0,"x_max":0,"o":""},"관":{"ha":1067,"x_min":63,"x_max":1049,"o":"m 760 986 l 876 986 l 876 742 q 907 711 876 711 l 1049 711 l 1049 617 l 907 617 q 876 586 876 617 l 876 129 l 760 129 l 760 986 m 63 431 l 218 431 q 249 461 249 431 l 249 679 l 364 679 l 364 461 q 394 431 364 431 l 694 431 l 694 336 l 63 336 l 63 431 m 108 954 l 499 954 q 587 926 558 954 q 615 838 615 897 l 615 567 l 499 567 l 499 814 q 487 848 499 836 q 453 860 475 860 l 108 860 l 108 954 m 233 172 l 350 172 l 350 -37 q 362 -72 350 -60 q 396 -83 374 -83 l 894 -83 l 894 -178 l 350 -178 q 262 -150 290 -178 q 233 -62 233 -122 l 233 172 z "},"괁":{"ha":1236,"x_min":0,"x_max":0,"o":""},"괂":{"ha":1236,"x_min":0,"x_max":0,"o":""},"괃":{"ha":1236,"x_min":0,"x_max":0,"o":""},"괄":{"ha":1067,"x_min":63,"x_max":1049,"o":"m 347 -207 q 260 -181 288 -207 q 233 -94 233 -154 l 233 86 l 731 86 q 761 117 761 86 l 761 163 q 731 193 761 193 l 231 193 l 231 288 l 876 288 l 876 -3 l 381 -3 q 350 -33 350 -3 l 350 -69 q 393 -112 350 -112 l 886 -112 l 886 -207 l 347 -207 m 63 522 l 218 522 q 249 553 249 522 l 249 713 l 364 713 l 364 553 q 394 522 364 522 l 694 522 l 694 428 l 63 428 l 63 522 m 108 963 l 499 963 q 587 934 558 963 q 615 846 615 906 l 615 625 l 499 625 l 499 822 q 487 856 499 844 q 453 868 475 868 l 108 868 l 108 963 m 760 994 l 876 994 l 876 803 q 907 772 876 772 l 1049 772 l 1049 678 l 907 678 q 876 647 876 678 l 876 379 l 760 379 l 760 994 z "},"괅":{"ha":1236,"x_min":0,"x_max":0,"o":""},"괆":{"ha":1067,"x_min":63,"x_max":1049,"o":"m 63 522 l 218 522 q 249 553 249 522 l 249 713 l 364 713 l 364 553 q 394 522 364 522 l 694 522 l 694 428 l 63 428 l 63 522 m 108 963 l 499 963 q 587 934 558 963 q 615 846 615 906 l 615 625 l 499 625 l 499 822 q 487 856 499 844 q 453 868 475 868 l 108 868 l 108 963 m 178 296 l 479 296 l 479 -1 l 314 -1 q 301 -5 304 -1 q 297 -18 297 -8 l 297 -82 q 303 -105 297 -99 q 326 -111 310 -111 l 493 -111 l 493 -206 l 281 -206 q 203 -183 225 -206 q 181 -107 181 -161 l 181 88 l 351 88 q 365 91 361 88 q 368 104 368 94 l 368 185 q 365 198 368 194 q 351 201 361 201 l 178 201 l 178 296 m 551 296 l 876 296 l 876 -206 l 644 -206 q 572 -183 592 -206 q 551 -106 551 -161 l 551 296 m 663 -82 q 669 -104 663 -99 q 690 -110 675 -110 l 749 -110 q 763 -107 760 -110 q 765 -93 765 -104 l 765 185 q 762 198 765 194 q 749 201 758 201 l 679 201 q 666 198 669 201 q 663 185 663 194 l 663 -82 m 760 994 l 876 994 l 876 803 q 907 772 876 772 l 1049 772 l 1049 678 l 907 678 q 876 647 876 678 l 876 379 l 760 379 l 760 994 z "},"괇":{"ha":1236,"x_min":0,"x_max":0,"o":""},"괈":{"ha":1236,"x_min":0,"x_max":0,"o":""},"괉":{"ha":1236,"x_min":0,"x_max":0,"o":""},"괊":{"ha":1236,"x_min":0,"x_max":0,"o":""},"괋":{"ha":1236,"x_min":0,"x_max":0,"o":""},"괌":{"ha":1067,"x_min":63,"x_max":1049,"o":"m 347 -189 q 260 -162 288 -189 q 233 -76 233 -136 l 233 226 l 876 226 l 876 -189 l 347 -189 m 63 467 l 218 467 q 249 497 249 467 l 249 671 l 364 671 l 364 497 q 394 467 364 467 l 694 467 l 694 372 l 63 372 l 63 467 m 108 954 l 499 954 q 587 926 558 954 q 615 838 615 897 l 615 569 l 499 569 l 499 814 q 487 848 499 836 q 453 860 475 860 l 108 860 l 108 954 m 350 -51 q 393 -94 350 -94 l 729 -94 q 760 -64 760 -94 l 760 100 q 729 131 760 131 l 381 131 q 350 100 350 131 l 350 -51 m 760 986 l 876 986 l 876 786 q 907 756 876 756 l 1049 756 l 1049 664 l 907 664 q 876 633 876 664 l 876 315 l 760 315 l 760 986 z "},"괍":{"ha":1067,"x_min":63,"x_max":1049,"o":"m 347 -201 q 260 -174 288 -201 q 232 -86 232 -146 l 232 244 l 347 244 l 347 163 q 378 132 347 132 l 731 132 q 761 163 761 132 l 761 244 l 876 244 l 876 -201 l 347 -201 m 63 467 l 218 467 q 249 497 249 467 l 249 671 l 364 671 l 364 497 q 394 467 364 467 l 694 467 l 694 372 l 63 372 l 63 467 m 108 954 l 499 954 q 587 926 558 954 q 615 838 615 897 l 615 569 l 499 569 l 499 814 q 487 848 499 836 q 453 860 475 860 l 108 860 l 108 954 m 347 -61 q 360 -95 347 -83 q 393 -107 372 -107 l 731 -107 q 761 -76 761 -107 l 761 7 q 731 38 761 38 l 378 38 q 347 7 347 38 l 347 -61 m 760 986 l 876 986 l 876 786 q 907 756 876 756 l 1049 756 l 1049 664 l 907 664 q 876 633 876 664 l 876 315 l 760 315 l 760 986 z "},"괎":{"ha":1236,"x_min":0,"x_max":0,"o":""},"괏":{"ha":1067,"x_min":63,"x_max":1049,"o":"m 163 -132 q 409 49 329 -37 q 489 225 489 136 l 489 244 l 606 244 q 588 121 606 193 q 583 107 583 113 q 594 85 583 96 q 741 -25 647 32 q 918 -117 835 -82 l 875 -206 q 697 -115 788 -171 q 544 -3 607 -60 q 524 10 531 10 q 506 -3 517 10 q 380 -116 457 -58 q 215 -218 303 -174 l 163 -132 m 63 458 l 218 458 q 249 489 249 458 l 249 671 l 364 671 l 364 489 q 394 458 364 458 l 694 458 l 694 364 l 63 364 l 63 458 m 108 954 l 499 954 q 587 926 558 954 q 615 838 615 897 l 615 569 l 499 569 l 499 814 q 487 848 499 836 q 453 860 475 860 l 108 860 l 108 954 m 760 986 l 876 986 l 876 786 q 907 756 876 756 l 1049 756 l 1049 664 l 907 664 q 876 633 876 664 l 876 225 l 760 225 l 760 986 z "},"괐":{"ha":1389,"x_min":0,"x_max":0,"o":""},"광":{"ha":1067,"x_min":63,"x_max":1049,"o":"m 572 -222 q 439 -190 499 -222 q 345 -101 379 -158 q 311 26 311 -44 q 345 153 311 97 q 439 241 379 210 q 572 272 499 272 q 703 241 644 272 q 795 153 761 210 q 829 26 829 97 q 795 -101 829 -44 q 703 -190 761 -158 q 572 -222 644 -222 m 63 489 l 218 489 q 249 519 249 489 l 249 693 l 364 693 l 364 519 q 394 489 364 489 l 694 489 l 694 394 l 63 394 l 63 489 m 108 963 l 499 963 q 587 934 558 963 q 615 846 615 906 l 615 592 l 499 592 l 499 822 q 487 856 499 844 q 453 868 475 868 l 108 868 l 108 963 m 425 26 q 467 -84 425 -43 q 572 -125 508 -125 q 674 -84 633 -125 q 715 26 715 -43 q 674 138 715 96 q 572 179 632 179 q 467 138 510 179 q 425 26 425 96 m 760 994 l 876 994 l 876 786 q 907 756 876 756 l 1049 756 l 1049 664 l 907 664 q 876 633 876 664 l 876 304 l 760 304 l 760 994 z "},"괒":{"ha":1389,"x_min":0,"x_max":0,"o":""},"괓":{"ha":1236,"x_min":0,"x_max":0,"o":""},"괔":{"ha":1236,"x_min":0,"x_max":0,"o":""},"괕":{"ha":1236,"x_min":0,"x_max":0,"o":""},"괖":{"ha":1236,"x_min":0,"x_max":0,"o":""},"괗":{"ha":1236,"x_min":0,"x_max":0,"o":""},"괘":{"ha":1069,"x_min":56,"x_max":956,"o":"m 56 154 l 151 154 q 182 185 182 154 l 182 500 l 297 500 l 297 185 q 328 154 297 154 l 568 154 l 568 60 l 56 60 l 56 154 m 104 879 l 390 879 q 478 851 450 879 q 507 763 507 822 l 507 369 l 390 369 l 390 739 q 342 785 390 785 l 104 785 l 104 879 m 617 903 l 732 903 l 732 589 q 763 558 732 558 l 810 558 q 840 589 840 558 l 840 911 l 956 911 l 956 0 l 840 0 l 840 433 q 810 464 840 464 l 763 464 q 732 433 732 464 l 732 17 l 617 17 l 617 903 z "},"괙":{"ha":1236,"x_min":0,"x_max":0,"o":""},"괚":{"ha":1236,"x_min":0,"x_max":0,"o":""},"괛":{"ha":1236,"x_min":0,"x_max":0,"o":""},"괜":{"ha":1069,"x_min":56,"x_max":974,"o":"m 378 -178 q 290 -150 318 -178 q 261 -62 261 -122 l 261 172 l 378 172 l 378 -37 q 390 -72 378 -60 q 424 -83 401 -83 l 974 -83 l 974 -178 l 378 -178 m 56 431 l 151 431 q 182 461 182 431 l 182 679 l 297 679 l 297 461 q 328 431 297 431 l 568 431 l 568 336 l 56 336 l 56 431 m 104 956 l 390 956 q 478 927 450 956 q 507 839 507 899 l 507 567 l 390 567 l 390 815 q 342 861 390 861 l 104 861 l 104 956 m 617 981 l 732 981 l 732 742 q 763 711 732 711 l 810 711 q 840 742 840 711 l 840 989 l 956 989 l 956 129 l 840 129 l 840 586 q 810 617 840 617 l 763 617 q 732 586 732 617 l 732 146 l 617 146 l 617 981 z "},"괝":{"ha":1236,"x_min":0,"x_max":0,"o":""},"괞":{"ha":1236,"x_min":0,"x_max":0,"o":""},"괟":{"ha":1236,"x_min":0,"x_max":0,"o":""},"괠":{"ha":1069,"x_min":56,"x_max":965,"o":"m 375 -207 q 288 -181 315 -207 q 261 -94 261 -154 l 261 86 l 810 86 q 840 117 840 86 l 840 163 q 810 193 840 193 l 258 193 l 258 288 l 956 288 l 956 -3 l 408 -3 q 378 -33 378 -3 l 378 -69 q 421 -112 378 -112 l 965 -112 l 965 -207 l 375 -207 m 56 522 l 151 522 q 182 553 182 522 l 182 713 l 297 713 l 297 553 q 328 522 297 522 l 568 522 l 568 428 l 56 428 l 56 522 m 104 963 l 390 963 q 478 934 450 963 q 507 846 507 906 l 507 625 l 390 625 l 390 822 q 342 868 390 868 l 104 868 l 104 963 m 617 981 l 732 981 l 732 801 q 763 771 732 771 l 810 771 q 840 801 840 771 l 840 989 l 956 989 l 956 379 l 840 379 l 840 646 q 810 676 840 676 l 763 676 q 732 646 732 676 l 732 396 l 617 396 l 617 981 z "},"괡":{"ha":1236,"x_min":0,"x_max":0,"o":""},"괢":{"ha":1389,"x_min":0,"x_max":0,"o":""},"괣":{"ha":1236,"x_min":0,"x_max":0,"o":""},"괤":{"ha":1236,"x_min":0,"x_max":0,"o":""}}}
